<?xml version="1.0" standalone="no"?>
<!DOCTYPE svg PUBLIC "-//W3C//DTD SVG 1.1//EN" "http://www.w3.org/Graphics/SVG/1.1/DTD/svg11.dtd" >
<svg xmlns="http://www.w3.org/2000/svg" xmlns:xlink="http://www.w3.org/1999/xlink" version="1.1">
<metadata>
Created by FontForge 20170731 at Tue Dec 28 17:04:36 2010
 By Aleksey,,,
</metadata>
<defs>
<font id="SiyamRupaliANSI" horiz-adv-x="0" >
  <font-face 
    font-family="Siyam Rupali ANSI"
    font-weight="400"
    font-stretch="normal"
    units-per-em="1000"
    panose-1="2 0 0 0 0 0 0 0 0 0"
    ascent="800"
    descent="-200"
    x-height="103"
    cap-height="727"
    bbox="-852 -439 1210 1162"
    underline-thickness="20"
    underline-position="-337"
    unicode-range="U+0020-2212"
  />
<missing-glyph horiz-adv-x="500" 
d="M63 0v863h375v-863h-375zM125 63h250v738h-250v-738z" />
    <glyph glyph-name=".notdef" horiz-adv-x="500" 
d="M63 0v863h375v-863h-375zM125 63h250v738h-250v-738z" />
    <glyph glyph-name=".null" 
 />
    <glyph glyph-name="nonmarkingreturn" horiz-adv-x="269" 
 />
    <glyph glyph-name="space" unicode=" " horiz-adv-x="269" 
 />
    <glyph glyph-name="exclam" unicode="!" horiz-adv-x="398" 
d="M286 764l-10 -503h-66l-8 503h84zM245 55q-23 0 -39 15.5t-16 37.5q0 23 16 39t39 16q22 0 38 -16t16 -39q0 -22 -16 -37.5t-38 -15.5z" />
    <glyph glyph-name="quotedbl" unicode="&#x22;" horiz-adv-x="469" 
d="M304 510v266h69v-266h-69zM116 507v269h69v-269h-69z" />
    <glyph glyph-name="numbersign" unicode="#" horiz-adv-x="675" 
d="M53 550v70h615v-70h-615zM442 18l-71 10l132 853l70 -10zM185 18l-70 10l132 853l69 -10zM4 292v68h629v-68h-629z" />
    <glyph glyph-name="dollar" unicode="$" horiz-adv-x="550" 
d="M295 475v-69h-87v-121q0 -23 2 -43t10.5 -36.5t23.5 -26.5t42 -12q30 0 59 15.5t50.5 40t35 54t13.5 58.5q0 27 -14 50.5t-47 38.5l59 46q37 -27 54 -61.5t17 -72.5q0 -43 -18 -85t-48.5 -76t-70.5 -55.5t-84 -21.5q-48 0 -78 18.5t-47 49t-22.5 70t-5.5 81.5v89h-117v69
h117v101q0 19 -2 38t-9 35t-20 26.5t-35 12.5l32 52q34 -14 54.5 -28.5t31 -33.5t14 -45t3.5 -64v-94h87z" />
    <glyph glyph-name="percent" unicode="%" horiz-adv-x="833" 
d="M197 354q-72 0 -115 47.5t-43 127.5q0 87 45.5 137t122.5 50q75 0 116 -46.5t41 -130.5t-46 -134.5t-121 -50.5zM204 662q-46 0 -73 -34.5t-27 -94.5q0 -59 26.5 -92t71.5 -33q46 0 72 34.5t26 94.5q0 59 -25.5 92t-70.5 33zM646 675l-429 -675l-50 31l429 674zM614 -6
q-72 0 -115 48t-43 127q0 87 46 137.5t122 50.5q74 0 115.5 -47t41.5 -131t-46 -134.5t-121 -50.5zM621 302q-47 0 -73.5 -34.5t-26.5 -94.5q0 -58 26.5 -91t71.5 -33q46 0 72 34.5t26 94.5q0 59 -25.5 91.5t-70.5 32.5z" />
    <glyph glyph-name="ampersand" unicode="&#x26;" horiz-adv-x="1" 
d="M-58 -224l-229 167l45 53l224 -166z" />
    <glyph glyph-name="quotesingle" unicode="'" horiz-adv-x="208" 
d="M70 510v274h69v-274h-69z" />
    <glyph glyph-name="parenleft" unicode="(" horiz-adv-x="450" 
d="M424 884q-69 -43 -120 -101t-84.5 -127t-50 -145t-16.5 -155q0 -81 17.5 -161t51.5 -153t83.5 -135.5t114.5 -108.5l-44 -50q-71 52 -125.5 121t-91.5 148t-56.5 165t-19.5 173q0 84 18.5 167.5t55.5 159t93.5 141t133.5 115.5z" />
    <glyph glyph-name="parenright" unicode=")" horiz-adv-x="450" 
d="M50 -202q66 53 115.5 117t82.5 135t49 146t16 151q0 77 -17 153t-50.5 145t-83.5 130t-116 109l40 54q74 -61 129.5 -131.5t92.5 -147t55.5 -157t18.5 -162.5q0 -80 -18 -159t-54 -155t-90 -146t-127 -132z" />
    <glyph glyph-name="asterisk" unicode="*" horiz-adv-x="675" 
d="M559 789l32 -60l-182 -102l180 -109l-35 -57l-184 112v-211h-66v218l-185 -102l-33 59l178 107l-181 107l36 57l185 -110v202h66v-206z" />
    <glyph glyph-name="plus" unicode="+" horiz-adv-x="761" 
d="M345 12v309h-305v69h305v300h70v-300h305v-69h-305v-309h-70z" />
    <glyph glyph-name="comma" unicode="," horiz-adv-x="337" 
d="M85 -161q26 7 48 22.5t37 35.5t23.5 42.5t8.5 43.5q0 17 -5 31t-16 24.5t-28 17t-41 6.5h-10l21 65q38 0 66.5 -11.5t46.5 -32t26.5 -46.5t8.5 -55t-9 -60t-27.5 -58t-45 -48t-62.5 -32z" />
    <glyph glyph-name="hyphen" unicode="-" horiz-adv-x="450" 
d="M58 270v69h334v-69h-334z" />
    <glyph glyph-name="period" unicode="." horiz-adv-x="337" 
d="M169 136q35 0 56.5 -21t21.5 -57q0 -16 -6 -29.5t-17 -24.5t-25 -17t-30 -6t-30 6t-24.5 17t-16.5 24.5t-6 29.5q0 17 6 31t16 24.5t24 16.5t31 6z" />
    <glyph glyph-name="slash" unicode="/" horiz-adv-x="375" 
d="M70 -136l-69 21l335 1041l69 -22z" />
    <glyph glyph-name="zero" unicode="0" horiz-adv-x="676" 
d="M566 355q0 -59 -19 -108t-53 -84.5t-80.5 -55t-101.5 -19.5q-50 0 -91 18.5t-70.5 50t-46 74t-16.5 91.5q0 53 19 100.5t53 82.5t80.5 55.5t99.5 20.5q50 0 91 -17t71.5 -47t47 -71.5t16.5 -90.5zM339 512q-41 0 -74.5 -14t-57.5 -39t-37 -59.5t-13 -75.5q0 -36 11 -67
t31.5 -53t49 -34.5t64.5 -12.5q43 0 77 15.5t58 42.5t36.5 63t12.5 78q0 36 -11 64.5t-32 48.5t-50 31.5t-65 11.5z" />
    <glyph glyph-name="one" unicode="1" horiz-adv-x="591" 
d="M254 2q-32 0 -59 9.5t-47.5 23.5t-32 32.5t-11.5 37.5q0 23 12 44.5t32.5 38t48 26.5t58.5 10l15 -63q-14 -4 -30.5 -8t-31.5 -10.5t-25 -15.5t-10 -23q0 -10 6.5 -16t16 -9.5t21 -5t22.5 -1.5q40 0 73.5 14t58 38.5t38 58.5t13.5 75q0 34 -11 63.5t-30 56t-43 51
t-50 46.5t-52.5 42.5t-48.5 40.5q-83 71 -83 135q0 9 7 23.5t20 34.5l57 -35q-15 -18 -15 -32q0 -16 18 -39.5t60 -53.5q56 -39 100.5 -75.5t75.5 -77t48 -88t17 -109.5q0 -47 -19.5 -89.5t-52.5 -76t-76 -53.5t-90 -20z" />
    <glyph glyph-name="two" unicode="2" horiz-adv-x="646" 
d="M333 226q133 -88 317 -257l-45 -49q-53 49 -97 87t-83 69t-76.5 57.5t-77.5 52.5t-85.5 53.5t-102.5 60.5l-17 82q38 -22 64.5 -37t46.5 -25t35 -16t28.5 -9t28 -4t32.5 -1q158 0 158 116q0 69 -65 115q-13 7 -32 18q-17 9 -41.5 23t-56.5 33q-79 45 -100 96l52 47
q12 -26 20.5 -40t21.5 -23.5t34.5 -19t56.5 -26.5q179 -85 179 -237q0 -34 -16.5 -64t-43.5 -52.5t-62 -36t-73 -13.5z" />
    <glyph glyph-name="three" unicode="3" horiz-adv-x="716" 
d="M676 366q0 -69 -19.5 -125t-56 -96.5t-89.5 -62.5t-121 -22q-62 0 -115.5 34t-99 99.5t-83.5 160.5t-70 215l70 17q10 -40 24.5 -90t33.5 -100.5t44.5 -98.5t58.5 -85.5t73.5 -60.5t90.5 -23q46 3 82 24.5t59.5 55t35.5 75t12 86.5q0 44 -14 89.5t-39.5 82.5t-60 60.5
t-76.5 23.5q-26 0 -47 -7t-36 -19t-23.5 -27.5t-8.5 -31.5q0 -31 31 -58l-21 -66q-41 14 -60 44t-19 65q0 30 12 60.5t34 54.5t52 39t67 15q40 0 75.5 -12.5t66.5 -34.5t56.5 -53t43.5 -67.5t27.5 -77t9.5 -83.5z" />
    <glyph glyph-name="four" unicode="4" horiz-adv-x="636" 
d="M532 207q0 -40 -18 -72t-49 -55t-72 -36t-88 -13q-45 0 -82 13t-64.5 37t-42.5 59t-15 79q0 25 6 45t22 40.5t44 44.5t73 57q-39 12 -70 31t-53.5 44t-34 55.5t-11.5 64.5q0 36 17.5 69t47 58t68 39.5t79.5 14.5q50 0 90.5 -12.5t69 -36t44 -57.5t15.5 -77
q0 -27 -4.5 -48.5t-20.5 -43t-45 -46t-76 -56.5q86 -34 128 -83.5t42 -114.5zM439 606q-2 28 -13 48t-31.5 33t-49.5 19t-64 6q-23 0 -47.5 -8.5t-43.5 -23t-31.5 -35t-12.5 -43.5q0 -31 14.5 -56.5t38 -44.5t53 -29.5t59.5 -10.5q22 12 36 20.5t22.5 16t13.5 13t10 9.5
q21 18 33.5 39t12.5 44v3zM308 363q-29 -11 -54 -29t-44 -39t-29.5 -42.5t-10.5 -42.5q0 -25 11.5 -45t31.5 -34.5t47 -22.5t57 -8t57 8t46.5 22.5t31 34.5t11.5 45q0 91 -155 153z" />
    <glyph glyph-name="five" unicode="5" horiz-adv-x="648" 
d="M593 482q-66 -27 -108.5 -51.5t-67.5 -52t-35.5 -60.5t-10.5 -76q0 -46 26.5 -92t79.5 -92l-44 -52q-9 6 -16.5 12t-14.5 14q-14 -4 -28 -5.5t-29 -1.5q-34 0 -68.5 11t-65.5 30.5t-57.5 47t-46 59t-30.5 66t-11 70.5q0 60 10 107t30.5 86t50.5 70.5t68.5 60t85.5 54
t104 54.5l29 -58l-50 -26q5 -28 9 -46t9.5 -29t13 -17.5t18 -13.5t25.5 -15t34 -22q15 7 30 14.5t34 15.5zM345 94q-22 29 -32.5 63.5t-10.5 71.5t9 73.5t26.5 69.5t41.5 61t54 46q-35 21 -51.5 34.5t-24 28.5t-11 33.5t-11.5 48.5q-43 -19 -79.5 -50t-63 -70.5t-42 -84
t-15.5 -91.5q0 -42 16 -84t44.5 -75t67 -54t82.5 -21z" />
    <glyph glyph-name="six" unicode="6" horiz-adv-x="677" 
d="M355 313q-39 0 -61.5 15.5t-34 49t-17.5 85t-11 121.5l-4 47q-1 10 -17.5 16t-43.5 6l5 70q46 0 75.5 -19.5t50.5 -51.5q6 -8 9 -32.5t4.5 -54.5t3.5 -62t7.5 -59t15 -44.5t26.5 -17.5q23 0 38.5 10.5t27 26.5t20.5 35t19.5 34.5t24.5 26t34 10.5q24 0 45 -16.5t37 -45
t26.5 -66.5t10.5 -80q0 -53 -16 -103.5t-45.5 -90.5t-73 -64t-98.5 -24q-58 0 -107.5 21.5t-91 58t-74.5 86t-56.5 105t-38.5 114.5t-20 115l69 11q5 -46 18 -96.5t33.5 -99.5t48.5 -93.5t63 -78t75.5 -54t88.5 -20.5q38 0 67 20t49 51.5t29.5 70t9.5 76.5q0 39 -10.5 73
t-32.5 53q-6 -28 -23.5 -52t-42.5 -42.5t-55 -29.5t-57 -11z" />
    <glyph glyph-name="seven" unicode="7" horiz-adv-x="680" 
d="M585 61q-12 -8 -23 -12t-20.5 -6t-17 -2.5t-9.5 -0.5q-19 0 -32 12t-21.5 33t-13.5 48t-7.5 57t-3 59.5t-0.5 57.5l4 51q-30 0 -64.5 -5t-69.5 -5q-41 0 -80.5 6.5t-71.5 24t-53.5 48.5t-25.5 80q0 39 19.5 78.5t51 71.5t70 52t77.5 20q42 0 74 -13t55.5 -35.5t39.5 -53
t25.5 -67t13.5 -76t4 -79.5v-221q0 -15 1.5 -28t4.5 -24t8 -17t14 -6q4 0 10 5t11 7zM437 426q-1 11 -1 27t-1.5 34.5t-6.5 40.5t-16 47q-11 24 -25.5 40.5t-30 26.5t-31 14t-30.5 4q-16 0 -33 -7t-34 -18.5t-32 -26.5t-26.5 -32t-18 -35t-6.5 -34q0 -19 9.5 -35.5t26 -28.5
t39.5 -19t49 -7q3 0 16 0.5t28 1t29 1t20 1.5z" />
    <glyph glyph-name="eight" unicode="8" horiz-adv-x="715" 
d="M418 384q4 -15 6.5 -31t2.5 -31q0 -51 -19 -101t-51 -90t-75 -64.5t-91 -24.5q-33 0 -62 27t-51 79v485q0 38 -39 69l59 29q24 -17 36.5 -43t12.5 -62v-174q64 38 124 38q77 0 107 -46q62 47 116 47q3 0 10.5 -1t16 -2t18 -1.5t17.5 -0.5q27 0 43.5 2.5t26.5 7.5t18 12
t19 16l32 -59q-11 -17 -23.5 -27t-33.5 -15t-54.5 -6.5t-86.5 -1.5q-21 0 -42.5 -8t-36.5 -23zM147 152q0 -6 4.5 -13.5t11 -13.5t15 -10t16.5 -4q39 0 69.5 19.5t51 49t31.5 64.5t11 67q0 30 -4.5 51.5t-15.5 34.5t-28.5 18.5t-43.5 5.5q-30 0 -59 -11t-59 -36v-222z" />
    <glyph glyph-name="nine" unicode="9" horiz-adv-x="650" 
d="M532 292q-4 42 -27.5 73t-59 54t-79.5 40.5t-89.5 33t-88.5 32t-76 36.5t-53.5 46.5t-20.5 63.5q0 61 48 104l52 -46q-31 -12 -31 -35q0 -27 29.5 -53.5t94.5 -50.5q102 -39 161.5 -63t77.5 -35q131 -78 131 -200q0 -53 -23 -96.5t-61 -75t-87 -52t-100 -28.5l10 69
l31 10q4 14 4.5 31.5t0.5 38.5q0 31 -9.5 57.5t-27 46.5t-42 31.5t-54.5 11.5q-17 0 -32 -9t-25.5 -24t-16 -33t-5.5 -37q0 -73 78 -73l-30 -63q-26 0 -47.5 12t-37.5 31.5t-24.5 44t-8.5 51.5q0 38 13.5 69.5t36.5 54t55 34t71 11.5t71 -21t55 -53.5t36.5 -72.5t13.5 -77
q0 -8 -1 -14.5t-2 -15.5q16 6 32 22.5t28.5 37t20.5 42.5t8 39z" />
    <glyph glyph-name="colon" unicode=":" horiz-adv-x="375" 
d="M102 539q0 16 6 30.5t16.5 25t25 17t30.5 6.5t30.5 -6.5t25.5 -17t17 -25t6 -30.5t-6 -30.5t-17 -25t-25.5 -17t-30.5 -6.5t-30.5 6.5t-25 17t-16.5 25t-6 30.5zM102 93q0 16 6 30.5t16.5 25.5t25 17t30.5 6t30.5 -6t25.5 -17t17 -25.5t6 -30.5t-6 -30.5t-17 -25
t-25.5 -16.5t-30.5 -6t-30.5 6t-25 16.5t-16.5 25t-6 30.5z" />
    <glyph glyph-name="semicolon" unicode=";" horiz-adv-x="375" 
d="M92 -157q118 84 118 165q0 39 -33 49l-21 -4l-43 -29l-38 59q37 21 62 31.5t36 10.5q24 0 43.5 -9t33.5 -25t21 -37.5t7 -47.5q0 -69 -45 -126q-13 -19 -38.5 -41t-62.5 -49zM91 487q0 16 6.5 30.5t17 25t25 17t30.5 6.5t30.5 -6.5t25 -17t17 -25t6.5 -30.5t-6.5 -30.5
t-17 -25.5t-25 -17t-30.5 -6t-30.5 6t-25 17t-17 25.5t-6.5 30.5z" />
    <glyph glyph-name="less" unicode="&#x3c;" horiz-adv-x="761" 
d="M151 353l586 -277l-29 -68l-672 308v69l675 313l30 -69z" />
    <glyph glyph-name="equal" unicode="=" horiz-adv-x="761" 
d="M721 440h-681v87h681v-87zM721 178h-681v86h681v-86z" />
    <glyph glyph-name="greater" unicode="&#x3e;" horiz-adv-x="761" 
d="M76 8l-30 68l585 277l-589 276l30 69l675 -313v-69z" />
    <glyph glyph-name="question" unicode="?" horiz-adv-x="417" 
d="M189 292q0 -36 34 -58l-40 -52q-29 19 -43 47t-14 65q0 28 13.5 50.5t34 43.5t44.5 40.5t44.5 41.5t34.5 47t14 57q0 19 -8.5 35t-21.5 28.5t-29.5 20t-35.5 7.5q-9 0 -22 -4t-24.5 -10t-20 -13.5t-8.5 -13.5q0 -24 48 -36l-10 -67q-106 18 -106 108q0 23 14.5 42
t36 32.5t45.5 21t44 7.5q30 0 60 -12t53.5 -33t38.5 -49t15 -58v-7q-3 -37 -13.5 -65.5t-28 -53t-42.5 -48t-57 -50.5q-50 -42 -50 -64zM188 19q-22 0 -38 15.5t-16 37.5q0 23 16 38.5t38 15.5t38 -15.5t16 -38.5q0 -22 -16 -37.5t-38 -15.5z" />
    <glyph glyph-name="at" unicode="@" horiz-adv-x="819" 
d="M420 118q-46 40 -87 51q-42 6 -84 13l-49 120q59 -41 133 -41q36 0 70 15q27 12 40 24q29 27 29 54q0 17 -11 32q-19 27 -66 27q-11 0 -18 -3q-1 -32 -39 -66q-20 -18 -50 -18q-51 0 -48 42q2 22 4 28.5t15 23.5q39 52 105 44q21 -2 43 -5t42 -11q64 -26 64 -97
q0 -107 -124 -153q-2 -1 -2 -2q0 -4 39 -28l42 -32q63 -48 108 -48q23 0 36 12q48 44 72 126q13 44 13 80q0 35 -11 66q-26 73 -77 124q-57 55 -128 68q-47 9 -105 -3q-209 -42 -246 -276q-10 -63 -10 -89q0 -50 19 -109q32 -99 88 -143q59 -47 161 -47q73 0 121 15
q32 10 93 43l16 -33q-31 -16 -104 -44q-32 -9 -90 -16h-65q-90 0 -171 63q-72 56 -117 143q-37 72 -37 158q0 61 36 148q29 71 75 110q170 145 333 112q45 -9 66 -17q52 -20 90 -56q97 -94 97 -218q0 -101 -77 -207q-34 -47 -87 -47q-13 0 -28 3q-24 5 -119 64z" />
    <glyph glyph-name="A" unicode="A" horiz-adv-x="875" 
d="M602 294q-71 -99 -160 -99q-55 0 -100 18t-83 48.5t-68 72t-53.5 89.5t-40 100t-28.5 103l70 22q9 -40 22 -84t32.5 -86.5t44 -81.5t55 -68t66 -46.5t77.5 -17.5q28 0 51.5 12t40.5 31.5t26.5 45t9.5 54.5q0 26 -11 54t-30 51.5t-44.5 38t-53.5 14.5q-26 0 -45.5 -19.5
t-30.5 -61.5l-63 15q27 136 139 136q39 0 77 -20t67 -52t46.5 -71.5t17.5 -78.5q0 -9 -1.5 -18t-2.5 -19l84 -122v430h-720v69h889v-69h-101v-684h-68v124z" />
    <glyph glyph-name="B" unicode="B" horiz-adv-x="661" 
d="M616 -67q-46 42 -86.5 78t-79.5 66.5t-78 57t-81.5 49.5t-89.5 44t-102 40l-40 83q23 -7 49 -15t53 -15t53 -11.5t47 -4.5q33 0 66 8.5t60 25.5t43.5 43t16.5 61q0 26 -8.5 50.5t-25.5 42.5t-39.5 29t-50.5 11q-27 0 -48 -10t-37 -25.5t-27 -33t-17 -33.5l-69 25
q4 27 24.5 53.5t48 47t59 33.5t58.5 13h2q42 -1 78.5 -18t63.5 -45.5t42.5 -66t15.5 -79.5q0 -74 -48.5 -121.5t-143.5 -69.5q111 -56 332 -268zM677 684h-686v69h465q14 23 14 43q0 16 -8.5 27t-24 18t-37 10.5t-46.5 3.5q-22 0 -46 -1.5t-48 -3.5t-47 -4t-43 -2l-23 1
q-38 0 -69.5 10.5t-55 28.5t-36.5 42.5t-13 52.5q0 17 5 39t15 48l64 -21q-15 -47 -15 -62q0 -41 33.5 -56t103.5 -15q21 0 44 2.5t47 4.5t47 4t47 2q36 0 68 -8t55.5 -23t37 -37.5t13.5 -51.5q0 -13 -3 -25.5t-7 -26.5h149v-69z" />
    <glyph glyph-name="C" unicode="C" horiz-adv-x="716" 
d="M-14 684v69h576q0 38 -11 55.5t-33 24.5q-7 3 -28.5 4t-59.5 1h-243q-46 0 -76.5 7t-49.5 23.5t-26.5 43t-7.5 67.5q0 13 1 30.5t2 32.5h57q-2 -7 -2 -20v-29q0 -27 6.5 -44t18.5 -26.5t28.5 -12.5t36.5 -3q58 0 104 0.5t82.5 1.5t64 1.5t49.5 0.5q38 0 66 -8t45.5 -27
t25.5 -49t8 -74h126v-69h-760zM632 531q-49 -73 -72 -143.5t-23 -141.5q0 -58 13 -114.5t42 -114.5l-62 -30q-19 44 -31 83.5t-19 76t-9.5 70.5t-2.5 68q0 77 70 214q-16 -11 -34.5 -29t-37.5 -39.5t-37 -45t-33.5 -44t-27.5 -36t-17 -22.5q-36 -37 -66 -56t-59 -19
q-94 0 -142 135l69 23q0 -10 7 -25t17.5 -29.5t23.5 -24.5t25 -10q21 0 53.5 30t73.5 92v8q0 28 -9.5 56.5t-27 52t-43 38.5t-58.5 15q-15 0 -27 -4.5t-20.5 -13t-13.5 -19t-5 -22.5q0 -10 4 -20l-69 28q0 26 10 47.5t27.5 37.5t41 25t50.5 11h9q38 0 72.5 -17.5t61.5 -42.5
t44 -52.5t21 -48.5q17 23 38 43t45 34t50.5 21.5t53.5 7.5z" />
    <glyph glyph-name="D" unicode="D" horiz-adv-x="761" 
d="M381 448q0 -55 38 -55q9 0 21.5 9.5t25.5 24.5t27.5 33.5t27 36.5t22 33.5t14.5 24.5q32 -13 54.5 -34t38 -47.5t22.5 -56.5t7 -62q0 -61 -18 -110.5t-50.5 -85t-78 -55.5t-99.5 -20q-59 0 -107 25t-86 67t-66.5 97.5t-56 132t-45.5 201.5l67 10q3 -35 13.5 -83.5
t28.5 -100t43.5 -101.5t56.5 -90t66.5 -64t74.5 -24q41 0 75.5 16t60 42.5t39 61t13.5 70.5q0 28 -8.5 55t-27.5 52q-28 -33 -44.5 -54t-32 -34.5t-32 -24t-49.5 -14.5q-23 0 -42 10t-33 27t-21.5 38t-7.5 44v241h-328v69h577q1 6 1 11v12q0 21 -6.5 35.5t-22.5 23
t-44.5 12.5t-71.5 4l-138 -12q-112 0 -167.5 35.5t-55.5 103.5q0 24 25 88l61 -23l-18 -65q3 -21 12.5 -34.5t31 -21.5t58.5 -11t95 -3l154 11q37 0 65 -11.5t47.5 -33t30 -52.5t10.5 -69h140v-69h-387v-236z" />
    <glyph glyph-name="E" unicode="E" horiz-adv-x="779" 
d="M785 684h-348v-228q0 -45 24 -45q67 0 154 151q26 -18 47 -43t35.5 -55.5t22.5 -66t8 -70.5q0 -59 -20.5 -103.5t-57.5 -75t-87.5 -46.5t-111.5 -16q-59 0 -110.5 25.5t-94.5 68.5t-76.5 98.5t-56.5 116t-36 121.5t-16 76l71 11q13 -96 37.5 -170.5t60.5 -127.5
q-62 175 -70 271l70 13q6 -55 16.5 -111.5t24.5 -106.5t30 -90t33 -62q48 -63 138 -63q40 0 74 15.5t59 41.5t39 61t14 74q0 70 -42 104q-41 -58 -82 -85t-83 -27q-15 0 -30.5 12t-27.5 29.5t-18.5 36.5t-6.5 33v233h-379v69h596q1 10 2 17t1 13q0 23 -6.5 37t-22.5 22
t-42.5 10.5t-69.5 2.5l-137 -10q-113 0 -168 35t-55 103q0 23 24 89l61 -23l-17 -66q2 -21 11.5 -34.5t31.5 -21.5t59 -10.5t95 -2.5l153 11q75 0 115 -44.5t40 -127.5h125v-69z" />
    <glyph glyph-name="F" unicode="F" horiz-adv-x="836" 
d="M462 582q-65 -27 -126.5 -59.5t-114.5 -72.5q34 -21 59 -36.5t45 -27t35.5 -22t31 -23.5t32.5 -29t38 -39v309zM462 0v157q-67 129 -292 235l-47 75q65 48 136.5 89.5t148.5 78.5q-8 9 -17 20.5t-19 22.5t-21 19t-24 11q-12 -19 -32.5 -37t-44 -32t-49.5 -22.5t-48 -8.5
q-20 0 -40 7.5t-35.5 20t-25 29.5t-9.5 37q0 51 46 73l49 -38q-11 -8 -18.5 -15.5t-7.5 -16.5q4 -20 14 -23.5t21 -3.5q20 0 44.5 12.5t48.5 31t45 39.5t32 38q17 -5 38 -19.5t41.5 -33.5t38 -39.5t27.5 -36.5v195h70v-413q83 -46 135 -113v526h69v-112h108v-69h-108v-684
h-69v143q0 38 -4 68t-16.5 56t-45.5 59t-69 47v-373h-70z" />
    <glyph glyph-name="G" unicode="G" horiz-adv-x="802" 
d="M704 0h-69q-1 51 -13 86t-36 56.5t-60 31t-86 9.5q-8 0 -25 -1t-38 -2.5t-42.5 -3t-38.5 -1.5q-60 0 -102 13t-68.5 40.5t-38.5 70t-12 102.5q0 43 9 82.5t24 76.5l60 -32q-13 -47 -18.5 -85t-5.5 -68q0 -37 9.5 -62t31.5 -40t57.5 -21.5t88.5 -6.5q39 0 76 4.5t74 4.5
q40 0 79.5 -12t74.5 -46v457q0 11 -5 20t-14 15t-19 9.5t-20 3.5q-14 0 -34.5 -11.5t-44 -29.5t-47.5 -40.5t-42.5 -46t-30.5 -44.5t-12 -34q0 -28 27 -28q11 0 24 7l30 -50q-31 -22 -60 -22q-19 0 -35 7.5t-27.5 19.5t-18 28.5t-6.5 35.5q0 25 13.5 55.5t36 61.5t51.5 60
t60.5 51.5t62.5 36t59 13.5q22 0 43.5 -8.5t39 -23t28 -33.5t10.5 -41v-665z" />
    <glyph glyph-name="H" unicode="H" horiz-adv-x="867" 
d="M627 0q0 78 -30 122t-102 55q-15 2 -30 5t-33 3q-36 0 -74 -4t-68 -4q-61 0 -103.5 12.5t-69 39.5t-38.5 69.5t-12 102.5q0 43 8 82.5t26 76.5l59 -32q-13 -47 -18.5 -85t-5.5 -68q0 -34 8.5 -58.5t27 -40t48.5 -23t72 -7.5h30q40 0 77 4t74 4q41 0 79 -11.5t75 -46.5
v459q0 10 -5 18.5t-13.5 15t-19 9.5t-20.5 3q-13 0 -33.5 -11t-44 -29t-47 -41t-42 -45.5t-30.5 -44t-12 -35.5q0 -11 8.5 -16.5t18.5 -5.5q6 0 11.5 3t9.5 6l31 -58q-15 -11 -31 -16t-33 -5q-20 0 -35 7t-26 19.5t-17 29.5t-6 37q0 25 14 55.5t37 60.5t52.5 58.5t61.5 51
t62.5 36t56.5 13.5q57 0 89 -35.5t32 -109.5q0 -13 -2 -29q28 12 39.5 33.5t11.5 53.5q0 79 -125 130l-233 77q-62 28 -91.5 64t-29.5 82q0 16 2 28t10.5 23.5t25.5 27.5t49 41l38 -55q-29 -18 -43 -33.5t-14 -28.5q0 -34 30 -58.5t92 -44.5q106 -33 165.5 -51.5t67.5 -22.5
q62 -32 93.5 -76.5t31.5 -104.5q0 -58 -29.5 -101t-88.5 -71v-510h-69z" />
    <glyph glyph-name="I" unicode="I" horiz-adv-x="752" 
d="M629 422q18 -19 31 -34.5t21 -32t11.5 -35t3.5 -42.5q0 -40 -15 -75.5t-40.5 -61.5t-60 -41.5t-72.5 -15.5q-94 0 -170 49.5t-138 145.5q-63 96 -155 356l70 21q14 -56 36 -115t49 -114.5t60 -105.5t70 -87t78 -58.5t86 -21.5q31 0 55.5 10.5t41.5 27.5t26 39.5t9 47.5
q0 31 -13.5 61.5t-41.5 56.5q-39 -12 -84 -16l-13 67q150 0 150 127q0 20 -10 35.5t-27.5 26t-40 15.5t-47.5 5q-24 0 -53 -9.5t-54.5 -24.5t-42.5 -33t-17 -35q0 -21 13.5 -38.5t42.5 -30.5l-27 -62q-98 44 -98 131q0 34 23 64.5t58.5 54.5t79 38.5t85.5 14.5
q92 0 138 -41.5t46 -126.5q0 -45 -16 -79t-48 -58z" />
    <glyph glyph-name="J" unicode="J" horiz-adv-x="840" 
d="M631 418q31 -27 45.5 -62t14.5 -78q0 -40 -15 -75.5t-40.5 -61.5t-59.5 -41.5t-73 -15.5q-95 0 -170.5 49.5t-137.5 145.5q-63 96 -154 356l69 21q11 -45 23.5 -84t25.5 -71.5t26 -59t23 -48.5q31 -63 67.5 -108t73 -74t73 -43t67.5 -14q32 0 56 10t41.5 27t26.5 39.5
t9 47.5q0 30 -14 60.5t-42 58.5q-39 -12 -84 -16l-13 67q40 0 69 7.5t47 23.5t26 39.5t8 57.5q0 44 -33.5 62.5t-100.5 18.5q-24 0 -51.5 -10t-51 -25t-39 -33t-15.5 -34q0 -21 13 -38.5t42 -30.5l-27 -62q-98 44 -98 131q0 34 23 64.5t58.5 54.5t79 38.5t85.5 14.5
q41 0 75 -11t58 -30.5t37.5 -48.5t13.5 -65q0 -7 -2 -15.5t-5 -17t-6.5 -16t-6.5 -14.5q73 14 73 116q0 42 -14 72.5t-38 53t-55 39t-66 29t-70.5 23.5t-66.5 22q-92 34 -138 76.5t-46 93.5q0 62 95 128l39 -51q-65 -41 -65 -73q0 -30 30.5 -55t94.5 -47q99 -34 158 -57.5
t81 -36.5q64 -39 97.5 -93t33.5 -124q0 -41 -13.5 -74.5t-38 -60.5t-57.5 -45.5t-71 -26.5z" />
    <glyph glyph-name="K" unicode="K" horiz-adv-x="834" 
d="M444 553q-11 -1 -33 -8.5t-50 -19t-58 -26t-56.5 -28t-45.5 -26t-27 -21.5q23 -5 49 -15t52.5 -24.5t52.5 -33t49 -38t40.5 -40.5t26.5 -41v321zM514 622q52 -5 100 -24.5t84.5 -52t58 -77t21.5 -98.5q0 -23 -8 -47t-23 -44t-35 -33t-44 -13q-19 0 -49.5 12t-59.5 38
l43 53q38 -33 57 -33q11 0 21 7t16 18t9.5 24t3.5 24q0 37 -17.5 69t-45 56t-61.5 38t-68 14h-3v-553h-70v119q-7 22 -26.5 48.5t-45.5 54t-58 53.5t-64.5 45.5t-65 34.5t-76.5 8l-35 74q89 69 183 114.5t188 70.5v62h-476v69h872v-69h-326v-62z" />
    <glyph glyph-name="L" unicode="L" horiz-adv-x="667" 
d="M501 111q-9 22 -31.5 48.5t-52 53t-64 52t-69 46t-66.5 34t-56 15.5l-27 66q20 3 44.5 8.5t49.5 15t49 22t42 29t29 36t11 41.5q0 36 -36 70q-15 -30 -30 -53.5t-33 -39.5t-41.5 -25.5t-55.5 -11.5q-24 0 -45 7.5t-37 20t-25.5 31t-9.5 40.5q0 49 30 84l54 -31
q-10 -15 -12 -28t-2 -20q0 -3 3 -8.5t8.5 -11.5t15 -10.5t22.5 -4.5q15 0 28 5t27.5 21t32 46.5t40.5 82.5q24 -10 48 -28t43.5 -41.5t32 -50t12.5 -53.5q0 -31 -15.5 -60t-39 -52.5t-53.5 -40t-58 -22.5q53 -20 112 -62t125 -106v639h69v-112h114v-69h-114v-684h-69v111z
" />
    <glyph glyph-name="M" unicode="M" horiz-adv-x="690" 
d="M701 753v-69h-108v-684h-70v479q-113 209 -243 209q-22 0 -46.5 -10t-45 -26.5t-33.5 -38.5t-13 -46q0 -22 14 -22q9 0 27.5 5.5t38.5 12t38 12.5t26 6q22 0 41 -7t33.5 -20t23 -32t8.5 -43q0 -18 -12.5 -40t-33.5 -46t-48 -51t-57 -54l-56 43q44 42 70.5 70.5t41.5 45.5
t20 26t5 13q0 18 -11 25t-32 7q-4 0 -21 -6.5t-38 -14.5t-40.5 -14.5t-28.5 -6.5q-18 0 -32.5 7t-25 19t-15.5 28t-5 34q0 39 17 74t46 61.5t66.5 42t77.5 15.5q44 0 77 -10.5t61 -31t53.5 -52.5t51.5 -74v276h70v-112h108z" />
    <glyph glyph-name="N" unicode="N" horiz-adv-x="648" 
d="M146 367l105 111q-6 -1 -12.5 -2t-11.5 -1q-30 0 -56.5 11t-47 29.5t-33 43t-12.5 51.5q0 19 5.5 37.5t19.5 36.5h-107v69h661v-69h-106v-684h-70v88q-19 44 -51 81.5t-73.5 66.5t-90 49t-99.5 28zM182 684q-19 -17 -27 -33t-8 -31q0 -19 11 -33t28 -23.5t39.5 -14.5
t44.5 -5q29 0 50 9t44 34l44 -48q-41 -40 -84.5 -82.5t-89.5 -89.5q46 -17 78.5 -31t59 -31t52.5 -40t57 -57v476h-299z" />
    <glyph glyph-name="O" unicode="O" horiz-adv-x="674" 
d="M299 535q34 -18 83 -18q25 0 46 4t36 13t24 22.5t9 32.5v4q-2 26 -23 38.5t-52 12.5q-20 0 -42 -9t-39.5 -23.5t-29.5 -34.5t-12 -42zM422 706q25 0 50.5 -7.5t46.5 -22t34 -35.5t13 -48q0 -32 -17 -56.5t-42.5 -42t-56.5 -26.5t-60 -9q-32 0 -54.5 5t-41.5 16
q-1 -13 -1.5 -29t-0.5 -29q0 -20 2.5 -41t10 -37.5t21.5 -27.5t37 -11q18 0 37 12.5t35 30.5t27.5 39t13.5 39l54 11q26 -18 45 -40t32 -48t19.5 -54.5t6.5 -57.5q0 -42 -13.5 -83.5t-41 -75t-69 -54t-97.5 -20.5q-62 0 -111.5 25.5t-89 68t-68.5 97.5t-49.5 114.5
t-33.5 119.5t-19 112l69 14q10 -78 23 -134t27 -91q16 -44 40 -89.5t56 -82.5t71.5 -61t86.5 -24q70 0 110 41t40 114q0 64 -50 125q-7 -22 -21.5 -43t-33.5 -37.5t-41.5 -26.5t-45.5 -10q-75 0 -112 50.5t-37 150.5q0 32 4 77q-28 23 -60.5 61t-71.5 92l54 41
q40 -86 93 -136q8 28 26 52t43 42.5t53.5 29t57.5 10.5z" />
    <glyph glyph-name="P" unicode="P" horiz-adv-x="602" 
d="M187 602q24 -32 42.5 -52t37.5 -32.5t44.5 -19.5t64.5 -12q36 -6 60.5 -11.5t38.5 -13.5q21 -13 37 -35.5t16 -55.5q0 -54 -35 -113.5t-97 -125.5q-60 -64 -114 -96.5t-101 -32.5h-3q-19 12 -34 25t-26 26v631h-133v69h620v-69h-418v-82zM187 72q32 0 71.5 28t93.5 87
q106 114 106 180q0 30 -48 45q-28 6 -59.5 13.5t-61.5 18t-56.5 24.5t-45.5 37v-433z" />
    <glyph glyph-name="Q" unicode="Q" horiz-adv-x="641" 
d="M163 389q9 -15 17.5 -23t21.5 -8q19 0 41.5 14.5t42 35.5t33 44.5t13.5 42.5q0 21 -22 23h-38q-67 0 -109 51v-180zM366 166q41 -15 70.5 -28.5t54 -27.5t45 -29t42.5 -34t48 -43.5t62 -56.5l-46 -49q-43 50 -101 94.5t-124 77.5t-135 52.5t-142 19.5v69h96q55 0 105 16
t88.5 42.5t61.5 61.5t23 71q0 22 -3.5 37t-13 26t-26 18t-41.5 14l-28 3q-4 -39 -22.5 -76.5t-46 -67.5t-62.5 -48.5t-71 -18.5q-20 0 -38.5 8t-33.5 21.5t-24.5 30t-9.5 32.5v303h-103v69h657v-69h-485v-28q17 -28 36 -45t42 -27q14 -1 36.5 -4t47 -7t48 -7t42.5 -3
q6 0 12 0.5t10 1.5q30 0 57 -14t46.5 -38.5t31 -56.5t11.5 -68q0 -34 -17 -67t-46.5 -62.5t-69 -53.5t-84.5 -39z" />
    <glyph glyph-name="R" unicode="R" horiz-adv-x="832" 
d="M408 687q16 -41 37.5 -66t48.5 -39.5t58 -19t67 -4.5q20 0 44 1t61 4l34 -45q-15 -45 -27.5 -83.5t-21 -73.5t-13 -68t-4.5 -66q0 -46 8.5 -96t30.5 -114l-65 -21q-20 66 -31.5 127.5t-11.5 121.5q0 62 10 119.5t37 123.5q-56 0 -98 3.5t-72.5 10.5t-52.5 18.5t-39 28
t-30.5 39t-28.5 52.5q-20 -10 -36 -26.5t-27.5 -37t-17 -43t-5.5 -45.5q0 -16 5.5 -31.5t15.5 -27.5t23.5 -19t28.5 -7q57 0 83 47l50 10q30 -25 48 -44t28 -35t13.5 -33t3.5 -40q0 -39 -17 -75t-45 -63t-64 -43.5t-75 -16.5q-99 0 -178 91q-30 34 -54 70t-40.5 83
t-26 110.5t-9.5 152.5h70v-45t1 -40.5t2.5 -38.5t4.5 -39q7 -55 30 -104.5t55 -87.5t69.5 -60.5t74.5 -22.5q24 0 48 10.5t42.5 28t30 40.5t11.5 47q0 49 -38 81q-25 -25 -54.5 -38.5t-65.5 -13.5q-30 0 -56 13t-44.5 34.5t-29.5 49t-11 56.5q0 131 102 197h-309v69h855v-69
h-433v3z" />
    <glyph glyph-name="S" unicode="S" horiz-adv-x="783" 
d="M431 557q-12 -1 -34 -8.5t-50.5 -19.5t-59 -26.5t-57 -29t-46.5 -27t-27 -21.5q22 -5 48.5 -15t54 -24.5t53.5 -32.5t49 -38t40.5 -40.5t28.5 -41.5v324zM616 76v54q-58 88 -116 111v-241h-69v119q-11 25 -31.5 53t-47 55.5t-58 52.5t-63 43.5t-62 30t-56.5 11.5h-8
q-3 0 -7 -2l-36 74q78 66 170 113.5t199 75.5v58h-440v69h509v-428q55 -20 116 -96v636h69v-112h116v-69h-116v-608h-69z" />
    <glyph glyph-name="T" unicode="T" horiz-adv-x="1087" 
d="M682 355q18 -21 44.5 -46.5t56.5 -48t60.5 -37.5t55.5 -15q37 0 51 16t14 55q0 26 -10.5 45.5t-27.5 33t-38.5 20t-42.5 6.5q-14 0 -27.5 -1.5t-25.5 -4.5v69q13 -3 25 -3.5t25 -0.5q23 0 43.5 5.5t36.5 17t26 28.5t10 41q0 14 -5.5 27.5t-16 24t-24 17t-27.5 6.5
q-37 0 -87 -40t-116 -122v-93zM1033 278q0 -70 -35.5 -105t-103.5 -35q-27 0 -57.5 12t-59.5 31t-54 42.5t-41 46.5v-270h-69q0 106 -50 145q-13 9 -38.5 15t-58 8.5t-69.5 3.5t-71 1h-98q-49 2 -81.5 20t-52 47t-27 67t-7.5 83q0 46 8.5 90.5t23.5 79.5l64 -14
q-17 -56 -22.5 -98t-5.5 -73q0 -34 7.5 -58.5t24.5 -41.5t45.5 -25t72.5 -8q10 0 35.5 0.5t56 1t60 1t45.5 0.5q79 0 138 -48v458q0 6 -3.5 14.5t-8.5 15t-11.5 11.5t-12.5 5q-13 0 -24 -1t-21 -5q-12 -3 -30 -15t-38 -29.5t-39.5 -38t-34.5 -41.5t-25 -39t-10 -31t6 -24.5
t21 -11.5q29 0 46 22l46 -48q-48 -43 -92 -43q-21 0 -38.5 7.5t-30 21t-20 32t-7.5 39.5q0 24 13.5 53t36 59.5t51.5 59.5t58.5 51.5t59 36t53.5 13.5q35 0 59 -8.5t38.5 -32.5t20.5 -67t6 -111q41 40 68.5 65.5t49 39.5t41.5 19t45 5q30 0 55.5 -11t45 -31t30.5 -46.5
t11 -55.5q0 -70 -60 -122q32 -35 48.5 -68t16.5 -67z" />
    <glyph glyph-name="U" unicode="U" horiz-adv-x="584" 
d="M182 216q0 -36 11 -54t30 -18q27 0 53 12t49.5 33t44 48.5t35.5 59t23.5 64.5t8.5 64q0 49 -40 49q-18 0 -52 -22l-41 45q51 41 96 41q22 0 41.5 -8.5t34 -24t23 -37.5t8.5 -49q0 -38 -11.5 -78.5t-31 -78.5t-46 -72t-58 -60t-66 -40.5t-69.5 -14.5q-27 0 -47.5 10
t-35 28.5t-22 44t-7.5 54.5v472h-131v69h464q3 10 5 19.5t2 17.5q0 35 -31 51.5t-92 17.5l-208 -15q-34 0 -64 11t-52.5 30.5t-35.5 46.5t-13 60q0 42 45 98l57 -40q-33 -42 -33 -74q0 -62 131 -62l207 15q36 0 65.5 -12.5t50.5 -35t32.5 -53.5t11.5 -67v-8h64v-69h-406
v-468z" />
    <glyph glyph-name="V" unicode="V" horiz-adv-x="581" 
d="M353 551q0 -54 -17.5 -106.5t-47.5 -97t-71.5 -76.5t-90.5 -45q0 -153 139 -153q35 0 65.5 21.5t53.5 56.5t36.5 79.5t13.5 90.5q0 114 -81 230zM349 684q41 -63 66.5 -108t39.5 -74q22 -47 35 -98.5t13 -107.5q0 -52 -19.5 -104t-52.5 -94t-75.5 -68t-87.5 -26
q-47 0 -85.5 16t-66.5 44t-43.5 67t-15.5 87q0 26 7 39.5t19 22t29 15.5t37 21q39 27 65 52.5t41 57t20.5 72.5t5.5 100q0 25 -4 47t-11 39h-273v69h233q-54 64 -81 118t-27 104q0 80 72 175l52 -37q-21 -28 -31.5 -46t-16 -31.5t-6.5 -23.5t-1 -20q0 -26 5.5 -49.5
t20 -50.5t39.5 -60.5t65 -78.5h267v-69h-235z" />
    <glyph glyph-name="W" unicode="W" horiz-adv-x="754" 
d="M378 420q0 -15 5.5 -22.5t18.5 -7.5q11 0 27 8.5t34 22.5t37 30.5t35 33t28.5 31.5t17.5 24q45 -30 73 -83.5t28 -129.5q0 -50 -20.5 -94.5t-56.5 -78.5t-84 -53.5t-103 -19.5q-64 0 -113 24.5t-85.5 67t-61.5 97.5t-42.5 116t-28.5 121.5t-19 111.5l69 8
q16 -124 44 -213.5t66 -148t82.5 -87.5t92.5 -29q37 0 72 17t61.5 43.5t42 61t15.5 70.5q0 28 -9 53.5t-26 51.5q-13 -21 -35 -43t-48 -40t-53.5 -30t-51.5 -12q-14 0 -28.5 9t-26 23t-19 30t-7.5 30v271h-337v69h785v-69h-379v-264z" />
    <glyph glyph-name="X" unicode="X" horiz-adv-x="599" 
d="M604 684h-406v-538q0 -22 2 -35t6.5 -20.5t12.5 -11t20 -6.5q27 3 54 17.5t50.5 37.5t43.5 52t35 62t23.5 68t8.5 68q0 51 -41 51q-9 0 -22 -5.5t-30 -23.5l-41 54q57 45 98 45q21 0 40 -12t33.5 -30t23 -39.5t8.5 -42.5q0 -40 -11.5 -83t-31 -84.5t-46.5 -78.5
t-58.5 -65t-66 -44t-68.5 -16q-27 0 -47.5 10t-35 29t-22.5 44t-8 55v542h-142v69h618v-69z" />
    <glyph glyph-name="Y" unicode="Y" horiz-adv-x="648" 
d="M252 344q-3 -1 -8 -1h-9q-29 0 -56.5 18.5t-48 46.5t-33 60t-12.5 60q0 40 15 80t41 71.5t62.5 51.5t79.5 20q62 0 110.5 -34.5t86.5 -102.5v251h70v-112h128v-69h-128v-684h-70v463q0 19 -7.5 42.5t-21 48t-30.5 47.5t-35.5 41t-38 29t-35.5 11q-35 0 -64 -10.5t-50 -30
t-32.5 -47.5t-11.5 -63q0 -19 7.5 -40.5t21 -39.5t31 -31t37.5 -13q13 0 24 6z" />
    <glyph glyph-name="Z" unicode="Z" horiz-adv-x="786" 
d="M-35 684v69h851v-69h-851zM310 396q-15 27 -22 52t-7 47q0 29 14 55t37 45.5t54.5 30.5t69.5 11q57 0 101 -25.5t73.5 -67.5t45 -94.5t15.5 -106.5q0 -55 -16 -107.5t-47.5 -93.5t-78.5 -66t-109 -25q-68 0 -118.5 22.5t-87 61t-61 89.5t-41.5 108t-32.5 126t-25.5 130
l71 11l6 -37q9 -49 19 -101t24 -101t33.5 -92.5t47.5 -76.5t66 -52t89 -19q49 0 85.5 19t60 50.5t35 71.5t11.5 82q0 41 -11 81.5t-32 72.5t-52 51.5t-71 19.5q-20 0 -38.5 -6.5t-33.5 -18.5t-24 -29t-9 -37q0 -10 4 -21.5t13 -26.5z" />
    <glyph glyph-name="bracketleft" unicode="[" horiz-adv-x="293" 
d="M155 865v-992h114v-68h-183v1130h183v-70h-114z" />
    <glyph glyph-name="backslash" unicode="\" horiz-adv-x="495" 
d="M282 92q4 -18 4 -29l-4 -23q-11 -13 -23.5 -20t-27.5 -7q-14 0 -28.5 9.5t-25.5 24.5t-18.5 34t-7.5 38v531q-2 -6 -8.5 -9.5t-17.5 -3.5q-49 0 -49 54q0 50 54 50q13 0 28 -10.5t27.5 -27t21 -37t8.5 -39.5v-523q3 7 7 11t15 4q25 0 45 -27zM444 70q0 -43 -54 -43
q-15 0 -29 11t-25.5 28t-18.5 36t-8 36v511q-6 -7 -23 -7q-49 0 -49 57q0 48 53 48q14 0 28 -11t26 -27.5t19.5 -36t9.5 -36.5v-513q2 5 7.5 7t15.5 2q48 0 48 -62z" />
    <glyph glyph-name="bracketright" unicode="]" horiz-adv-x="293" 
d="M47 865v70h183v-1130h-183v68h114v992h-114z" />
    <glyph glyph-name="asciicircum" unicode="^" 
d="M-115 522v-487h-69v40q-23 38 -43 65t-44 47.5t-53 37.5t-70 38l-21 57q32 27 89.5 66.5t141.5 90.5v45h69zM-186 401q-39 -21 -75 -45.5t-67 -52.5q45 -23 82 -51t62 -60v209h-2z" />
    <glyph glyph-name="underscore" unicode="_" horiz-adv-x="669" 
d="M572 865v-112h109v-69h-109v-684h-69v99q-49 53 -88.5 93.5t-80.5 70t-88 48t-131 33.5l-19 82q65 0 121 14t89 33.5t46.5 45.5t13.5 62q0 25 -11 44.5t-29 32t-41.5 19t-47.5 6.5q-22 0 -44.5 -6.5t-41 -18t-30.5 -26.5t-12 -33q0 -20 9.5 -30.5t23.5 -10.5q4 0 8.5 0.5
t8.5 1.5v-69q-6 -1 -12 -1h-10q-20 0 -37.5 7.5t-31 21.5t-21 33t-7.5 42q0 39 18 69t47 50t65 30t71 10q36 0 71 -11t62.5 -33.5t44.5 -57t17 -80.5q0 -32 -16 -64t-41 -58.5t-56 -45t-62 -24.5q70 -26 130.5 -69.5t111.5 -105.5v661h69z" />
    <glyph glyph-name="grave" unicode="`" horiz-adv-x="600" 
d="M165 684v-315q69 90 152 140t186 59l59 -44q-34 -60 -47.5 -132t-13.5 -147q0 -60 7.5 -120t20.5 -116l-64 -11q-17 53 -25 113t-8 122q0 66 9 131t28 124q-88 -11 -162.5 -76t-142.5 -172l-69 52v392h-106v69h618v-69h-442z" />
    <glyph glyph-name="a" unicode="a" horiz-adv-x="621" 
d="M453 573q-161 -77 -279 -179q35 -17 61.5 -30.5t47.5 -25.5t39.5 -24t37.5 -26.5t41.5 -33.5t51.5 -44v363zM453 653v100h180v-69h-111v-684h-69v116q-45 44 -83 78.5t-77 62t-83 48.5t-102 38l-38 55l152 123q-127 30 -127 125q0 23 9 44.5t24.5 37.5t36.5 25.5t44 9.5
q58 0 97 -76l-53 -34q-7 17 -19 28.5t-31 11.5q-10 0 -17 -4.5t-12.5 -12.5t-7.5 -16t-2 -14q0 -19 10.5 -31.5t28.5 -22t40.5 -17t45.5 -13.5z" />
    <glyph glyph-name="b" unicode="b" horiz-adv-x="656" 
d="M158 178q-37 26 -53.5 63.5t-16.5 79.5q0 40 14 80.5t40.5 72.5t62.5 52t81 20q66 0 117 -33.5t84 -103.5v275h-517v69h695v-69h-108v-684h-70v260q-7 32 -24 69.5t-41.5 70.5t-55.5 55t-67 22q-32 0 -58 -12t-45 -32t-29 -46.5t-10 -53.5t10.5 -53.5t34.5 -48.5z" />
    <glyph glyph-name="c" unicode="c" horiz-adv-x="728" 
d="M440 616q-26 20 -47.5 31t-38.5 16t-30 6t-23 1q-15 0 -35 -4t-41.5 -13t-41.5 -24t-35 -35q32 0 54.5 -6t38.5 -20.5t27.5 -39.5t21.5 -63q32 30 69 67t81 84zM630 865v-112h116v-69h-116v-684h-69v424q0 4 -5 15.5t-13 26t-17.5 31.5t-18 31t-15.5 24t-10 12
q-37 -39 -99.5 -104.5t-153.5 -155.5l-48 45q50 53 50 97q0 15 -4.5 30.5t-13.5 27.5t-21.5 18.5t-28.5 6.5q-3 0 -64 -12l-48 48q7 34 31 65t57.5 55.5t72 39.5t74.5 15q179 0 275 -176v301h69z" />
    <glyph glyph-name="d" unicode="d" horiz-adv-x="819" 
d="M457 0v94q-10 25 -30.5 50t-46.5 49t-57 45t-63.5 38t-65.5 29.5t-64 18.5l-39 50q50 37 96.5 75.5t89.5 75.5q-23 34 -69.5 74t-116.5 85h-115v69h855v-69h-623q85 -56 139 -132v-51q-34 -31 -71.5 -62t-79.5 -64q78 -25 143.5 -71t117.5 -112v451q10 1 21 1h21
q54 0 104 -15.5t88 -46t60.5 -75t22.5 -102.5q0 -21 -8.5 -39.5t-23 -33t-34 -22.5t-39.5 -8q-11 0 -27 3.5t-35 11.5l34 67q7 -7 14 -10t12 -3q38 0 38 47q0 34 -13 62t-36.5 48t-56.5 30.5t-73 10.5v-569h-69z" />
    <glyph glyph-name="e" unicode="e" horiz-adv-x="594" 
d="M426 558q-14 -4 -36.5 -12.5t-48 -20t-53 -25.5t-52 -27.5t-44 -26t-28.5 -22.5q17 -2 41.5 -11.5t51.5 -24.5t53.5 -34t50 -39.5t41 -40t24.5 -35.5v319zM496 0h-70v120q-6 21 -23.5 46.5t-43.5 53t-57 53.5t-63 47t-63 33.5t-56 12.5q-5 0 -10 -0.5t-8 -2.5l-45 74
q170 130 369 189v58h-435v69h603v-69h-98v-684z" />
    <glyph glyph-name="f" unicode="f" horiz-adv-x="772" 
d="M-6 684v69h810v-69h-810zM414 522q-37 28 -56 28q-21 0 -32 -14t-11 -40q0 -40 26 -59.5t75 -19.5q24 0 44 7t38.5 25t38 50t43.5 82q38 -27 64.5 -53.5t43 -55.5t24 -62t7.5 -73q0 -46 -18.5 -89.5t-50.5 -77.5t-73.5 -54t-89.5 -20q-71 0 -135 28.5t-120.5 91
t-103.5 161t-75 189.5l66 20q25 -96 62.5 -173.5t84 -132.5t101.5 -85t115 -30q36 0 67 17t53 44.5t34.5 62.5t12.5 70q0 32 -11 60.5t-34 50.5q-38 -64 -83.5 -93t-99.5 -29q-39 0 -71 10.5t-55.5 30.5t-36 50t-12.5 68q0 23 7 43t19.5 35.5t30 25t40.5 9.5q55 -1 97 -40z
" />
    <glyph glyph-name="g" unicode="g" horiz-adv-x="677" 
d="M371 513q39 -13 74 -46t65 -85v302h-319q39 -13 67 -27.5t49 -34t36 -46.5t28 -63zM579 684v-684h-69v233q0 14 -8.5 35.5t-23 45.5t-33 48t-38.5 43.5t-39 32t-35 12.5q-72 0 -114 -38.5t-42 -110.5q0 -107 114 -130l-31 -59h-5q-30 0 -56.5 18.5t-47 46.5t-32 60.5
t-11.5 59.5q0 185 187 223q-9 23 -21.5 40t-35.5 30t-59.5 24.5t-92.5 24.5v45h-89v69h683v-69h-101z" />
    <glyph glyph-name="h" unicode="h" horiz-adv-x="629" 
d="M216 684q20 -14 40 -27.5t38 -29t35 -33.5t30 -40q-62 -50 -110.5 -92t-84.5 -77q56 -17 94 -32.5t70 -36.5t62.5 -49.5t70.5 -70.5v488h-245zM-27 753h657v-69h-99v-684h-70v103q-23 38 -60.5 73.5t-82.5 64.5t-94 49t-93 27l-61 76q35 36 84 78t113 89q-2 3 -14 13.5
t-30 24.5t-39.5 29t-41 28t-34.5 21t-20 8h-115v69z" />
    <glyph glyph-name="i" unicode="i" horiz-adv-x="593" 
d="M426 558q-14 -4 -36.5 -12.5t-48 -20t-53 -25.5t-52 -27.5t-44 -26t-28.5 -22.5q17 -2 41.5 -11.5t51.5 -24.5t53.5 -34t50 -39.5t41 -40t24.5 -35.5v319zM496 0h-70v120q-6 21 -23.5 46.5t-43.5 53t-57 53.5t-63 47t-63 33.5t-56 12.5q-5 0 -10 -0.5t-8 -2.5l-45 74
q170 130 369 189v58h-435v69h603v-69h-98v-684zM243 204q33 0 54 -21t21 -55t-21 -55t-54 -21q-34 0 -55 21t-21 55t21 55t55 21z" />
    <glyph glyph-name="j" unicode="j" horiz-adv-x="726" 
d="M233 200q-45 0 -77.5 16.5t-54.5 44t-32.5 62.5t-10.5 73q0 37 11 72t32.5 63t54.5 45t77 17q81 -2 129 -75q10 34 36 51t52 17q17 0 33.5 -6t31 -17t26 -26.5t18.5 -34.5v182h-570v69h745v-69h-106v-684h-69v373q-11 46 -21.5 69t-27.5 42t-34.5 26t-26.5 7
q-13 0 -22.5 -8t-16.5 -19.5t-9 -26t-1.5 -39t2.5 -29.5l-58 -11q0 24 -8 55.5t-22 47.5t-34 26t-43 10q-28 0 -48.5 -11t-34 -29t-20.5 -41t-7 -46q0 -25 7.5 -49t22 -42.5t36 -30t50.5 -11.5h9q4 0 8 1l-23 -64h-4z" />
    <glyph glyph-name="k" unicode="k" horiz-adv-x="721" 
d="M96 471q9 -9 22 -17t32 -8q14 2 25.5 11.5t20.5 22t13.5 27.5t4.5 29q0 35 -13.5 62t-37 46.5t-54.5 29.5t-65 10q-28 0 -55 -9v76q14 2 28 2h28q39 0 74.5 -6.5t65 -23.5t49.5 -45t27 -69q17 64 51.5 96t88.5 32q28 -3 48.5 -14t37.5 -27.5t32 -38t34 -45.5v253h70v-112
h108v-69h-108v-684h-70v473q0 11 -6.5 30t-18.5 40.5t-27 44t-33 40.5t-36 29t-36 11q-34 0 -55 -33t-21 -103q0 -16 6.5 -30t18.5 -24.5t26.5 -16.5t30.5 -6q23 0 43 15l33 -58q-21 -15 -41 -20.5t-38 -5.5q-40 0 -72 18.5t-55 60.5q-9 -21 -23.5 -37t-31 -27.5t-34 -18
t-35.5 -6.5q-23 0 -44.5 9t-42.5 31z" />
    <glyph glyph-name="l" unicode="l" horiz-adv-x="633" 
d="M175 684q49 -19 121 -70.5t169 -136.5v207h-290zM465 370q-17 24 -52 59t-86 80q-46 -34 -81.5 -67t-62.5 -66q165 -18 282 -171v165zM465 86q-45 64 -83 106.5t-75 68.5t-76 37t-84 13l-57 78q19 23 63.5 63t117.5 98q-38 28 -95 61t-136 73h-46v69h644v-69h-104v-684
h-69v86z" />
    <glyph glyph-name="m" unicode="m" horiz-adv-x="732" 
d="M564 331q-4 15 -18 39t-31.5 47t-37 39.5t-35.5 16.5q-20 0 -36.5 -17t-32 -41.5t-31.5 -53.5t-34.5 -54.5t-41.5 -42t-52 -16.5q-34 0 -71.5 36t-81.5 108l60 32q6 -13 15 -31t20 -35t24.5 -29t29.5 -12q13 0 28.5 14t29 33.5t22.5 39.5t10 33q-6 45 -17 77t-35 54.5
t-67 39t-113 31.5v45h-75v69h741v-69h-100v-684h-70v331zM175 684q40 -16 68 -31t48.5 -34.5t36 -47t29.5 -68.5q41 39 88 39q53 0 119 -92v234h-389z" />
    <glyph glyph-name="n" unicode="n" horiz-adv-x="621" 
d="M-19 684v69h648v-69h-648zM621 -72q-115 127 -244 213.5t-277 135.5v71q97 -39 176 -39q37 0 70.5 12.5t59 34t40.5 49.5t15 60q0 23 -15 46.5t-38 41.5t-49.5 29.5t-49.5 11.5q-21 0 -43.5 -7t-40.5 -19t-30 -30t-12 -39q0 -14 10 -27.5t27 -28.5l-42 -57
q-65 40 -65 117q0 31 20 59.5t49.5 51t64.5 36t65 13.5q36 0 74.5 -16.5t70.5 -44t53 -63.5t21 -74q0 -151 -202 -218q113 -62 198 -130t145 -144z" />
    <glyph glyph-name="o" unicode="o" horiz-adv-x="754" 
d="M416 -13q33 0 54.5 -21t21.5 -55t-21.5 -55t-54.5 -21q-34 0 -54.5 21t-20.5 55t20.5 55t54.5 21zM378 420q0 -15 5.5 -22.5t18.5 -7.5q11 0 27 8.5t34 22.5t37 30.5t35 33t28.5 31.5t17.5 24q45 -30 73 -83.5t28 -129.5q0 -50 -20.5 -94.5t-56.5 -78.5t-84 -53.5
t-103 -19.5q-64 0 -113 24.5t-85.5 67t-61.5 97.5t-42.5 116t-28.5 121.5t-19 111.5l69 8q16 -124 44 -213.5t66 -148t82.5 -87.5t92.5 -29q37 0 72 17t61.5 43.5t42 61t15.5 70.5q0 28 -9 53.5t-26 51.5q-13 -21 -35 -43t-48 -40t-53.5 -30t-51.5 -12q-14 0 -28.5 9t-26 23
t-19 30t-7.5 30v271h-337v69h785v-69h-379v-264z" />
    <glyph glyph-name="p" unicode="p" horiz-adv-x="599" 
d="M604 684h-406v-538q0 -22 2 -35t6.5 -20.5t12.5 -11t20 -6.5q27 3 54 17.5t50.5 37.5t43.5 52t35 62t23.5 68t8.5 68q0 51 -41 51q-9 0 -22 -5.5t-30 -23.5l-41 54q57 45 98 45q21 0 40 -12t33.5 -30t23 -39.5t8.5 -42.5q0 -40 -11.5 -83t-31 -84.5t-46.5 -78.5
t-58.5 -65t-66 -44t-68.5 -16q-27 0 -47.5 10t-35 29t-22.5 44t-8 55v542h-142v69h618v-69zM256 -52q33 0 54.5 -21t21.5 -54q0 -34 -21.5 -55.5t-54.5 -21.5q-34 0 -54.5 21.5t-20.5 55.5q0 33 20.5 54t54.5 21z" />
    <glyph glyph-name="q" unicode="q" horiz-adv-x="629" 
d="M216 684q20 -14 40 -27.5t38 -29t35 -33.5t30 -40q-62 -50 -110.5 -92t-84.5 -77q56 -17 94 -32.5t70 -36.5t62.5 -49.5t70.5 -70.5v488h-245zM-27 753h657v-69h-99v-684h-70v103q-23 38 -60.5 73.5t-82.5 64.5t-94 49t-93 27l-61 76q35 36 84 78t113 89q-2 3 -14 13.5
t-30 24.5t-39.5 29t-41 28t-34.5 21t-20 8h-115v69zM272 152q34 0 55 -21t21 -54q0 -34 -21 -55.5t-55 -21.5q-33 0 -54 21.5t-21 55.5q0 33 21 54t54 21z" />
    <glyph glyph-name="r" unicode="r" horiz-adv-x="492" 
d="M456 21q15 25 17 65q0 99 -207 200q-72 36 -116.5 61t-60.5 38q-74 62 -74 170q0 44 17 81t47 64t70.5 42t89.5 15q38 0 72 -11.5t59.5 -32t39.5 -49.5t14 -65q0 -25 -12 -48.5t-32 -41.5t-44.5 -29t-49.5 -11q-31 0 -56.5 12t-46 33.5t-35 51t-21.5 64.5l63 18
q3 -24 11 -44t20.5 -34.5t29 -22.5t37.5 -8q13 0 25.5 5.5t22 14.5t14.5 21t5 25q0 43 -34 63t-102 20q-30 0 -55 -10t-42.5 -28t-28 -43t-10.5 -55q0 -34 11 -60t29 -46.5t41.5 -36t51 -29t56 -25.5t55.5 -24q107 -50 161 -111.5t54 -133.5q0 -9 -3.5 -30.5t-17.5 -51.5z
" />
    <glyph glyph-name="s" unicode="s" horiz-adv-x="396" 
d="M204 469q-34 0 -62.5 12.5t-50 33.5t-33 49.5t-11.5 61.5q0 58 34.5 89t92.5 31q34 0 63.5 -11.5t51.5 -32t35 -49t13 -62.5q0 -60 -36 -91t-97 -31zM397 1l-370 361l56 56l369 -358zM268 594q0 37 -24 59.5t-60 22.5q-68 0 -68 -56q0 -17 7.5 -32t20 -26t28 -17t32.5 -6
q64 0 64 55z" />
    <glyph glyph-name="t" unicode="t" horiz-adv-x="356" 
d="M188 417q-33 0 -59.5 10t-45 29.5t-28.5 47t-10 61.5q0 25 12.5 46.5t31.5 38t43 26t47 9.5q26 0 49.5 -12t41.5 -31t29 -42.5t11 -48.5q0 -24 -9.5 -48t-26 -43.5t-39 -31t-47.5 -11.5zM241 552q0 13 -4.5 24.5t-11.5 20t-18 14t-23 5.5q-69 0 -69 -76q0 -12 6.5 -22
t17 -17t21.5 -11t21 -4q12 0 23 5.5t19 15t13 21t5 24.5zM188 64q-32 0 -58.5 10.5t-45 30.5t-29 47t-10.5 61q0 25 12 46.5t31 38t43 25.5t48 9q27 0 50.5 -11t41.5 -29.5t28.5 -43t10.5 -50.5q0 -24 -9.5 -48t-26 -43t-39 -31t-47.5 -12zM241 200q0 12 -4.5 23.5t-11.5 20
t-18 14t-23 5.5q-69 0 -69 -75q0 -11 7 -20.5t17 -17t21 -12t19 -4.5q13 0 24 5.5t19.5 15t13.5 21t5 24.5z" />
    <glyph glyph-name="u" unicode="u" horiz-adv-x="1" 
d="M-53 1031q-11 -52 -27 -82.5t-39.5 -51t-51 -30t-53.5 -9.5q-32 0 -65 12.5t-63.5 53.5t-43.5 111l60 8q8 -51 29 -79.5t42 -36t43 -5.5q85 2 107 121zM-270 1019q0 20 14 34t34 14t34 -14t14 -34t-14 -34t-34 -14t-34 14t-14 34z" />
    <glyph glyph-name="v" unicode="v" horiz-adv-x="262" 
d="M-71 753h96q10 -6 18.5 -12.5t17 -15t18.5 -20t24 -27.5v187h69v-112h120v-69h-120v-684h-69v584q-14 36 -39 62.5t-61 37.5h-74v69z" />
    <glyph glyph-name="w" unicode="w" horiz-adv-x="264" 
d="M98 0v684h-118v69h99l-57 79q7 48 33.5 90.5t65 74t85 50t95.5 18.5q119 0 233 -61q39 -21 88.5 -56.5t109.5 -87.5l-47 -51q-99 94 -194 140.5t-188 46.5q-35 0 -70.5 -13.5t-65 -36.5t-50.5 -54t-25 -65q2 -5 20 -22.5t47 -51.5h108v-69h-100v-684h-69z" />
    <glyph glyph-name="x" unicode="x" horiz-adv-x="260" 
d="M-36 753h134q-15 62 -50 112.5t-84.5 85t-110 53.5t-121.5 19q-30 0 -62 -6t-59 -18t-44 -27t-17 -33q11 -3 46 -6t93 -6q66 -2 112 -10.5t74 -25t40.5 -40t12.5 -56.5q0 -28 -33 -85l-61 23q28 28 34 56q-4 19 -14 32t-31 21.5t-57 12t-91 3.5q-98 0 -146.5 19.5
t-48.5 67.5q0 31 22 57.5t57.5 46.5t80 31.5t89.5 11.5q83 0 152.5 -22.5t125 -65.5t96 -106t64.5 -145h112v-69h-112v-684h-69v684h-134v69z" />
    <glyph glyph-name="y" unicode="y" 
d="M-273 -120q11 0 22.5 4t21.5 11t18 17t12 22q-15 13 -33 19t-36 6q-9 0 -20 -2t-20 -7t-14.5 -13t-5.5 -20q0 -19 15 -28t40 -9zM-127 103q14 -41 21 -70t7 -44q0 -3 -1.5 -13t-4.5 -27q24 -19 42.5 -34t33 -28t26.5 -26t24.5 -28t27 -34.5t34.5 -45.5l-54 -42
q-77 114 -169 177q-38 -47 -77 -62t-80 -15q-22 0 -40.5 9t-32 23.5t-20.5 34.5t-7 42q0 23 11 42.5t29 34.5t41.5 23t49.5 8q13 0 37 -8t60 -25l1 13q0 18 -16 60z" />
    <glyph glyph-name="z" unicode="z" 
d="M-458 -120q11 0 22.5 4t21.5 11t18 17t12 22q-15 13 -33 19t-36 6q-9 0 -20 -2t-20 -7t-14.5 -13t-5.5 -20q0 -19 15 -28t40 -9zM-312 103q14 -41 21 -70t7 -44q0 -3 -1.5 -13t-4.5 -27q24 -19 42.5 -34t33 -28t26.5 -26t24.5 -28t27 -34.5t34.5 -45.5l-54 -42
q-77 114 -169 177q-38 -47 -77 -62t-80 -15q-22 0 -40.5 9t-32 23.5t-20.5 34.5t-7 42q0 23 11 42.5t29 34.5t41.5 23t49.5 8q13 0 37 -8t60 -25l1 13q0 18 -16 60z" />
    <glyph glyph-name="braceleft" unicode="{" horiz-adv-x="648" 
d="M447 891q-39 -15 -61 -25.5t-33 -25t-13.5 -37.5t-2.5 -62v-255q0 -70 -79 -139q41 -33 60 -85.5t19 -131.5v-196q0 -26 1.5 -42t11 -28.5t30 -24.5t57.5 -29l-28 -61q-45 19 -72.5 36.5t-43 42t-20.5 59t-5 89.5v203q0 26 -2 43t-10.5 31.5t-26 30t-47.5 36.5v55
q28 20 45.5 35.5t26 30.5t11.5 33t3 43v266q0 74 39 110q7 5 34.5 20.5t76.5 39.5z" />
    <glyph glyph-name="bar" unicode="|" horiz-adv-x="255" 
d="M160 964v-1129h-70v1129h70z" />
    <glyph glyph-name="braceright" unicode="}" horiz-adv-x="648" 
d="M459 320q-27 -16 -43 -30.5t-24 -33.5t-11 -47t-3 -73v-159q0 -51 -5.5 -85.5t-21.5 -59.5t-44 -44t-74 -39l-28 61q13 7 29.5 17t32.5 22.5t28 28t14 34.5v211q0 38 1 66t3.5 48t8 34.5t13.5 27t20.5 23.5t29.5 25q-41 31 -58.5 77.5t-17.5 108.5v258q-5 24 -12.5 38.5
t-21 24.5t-32.5 17.5t-47 19.5l28 62q51 -23 81 -40.5t40 -29.5q15 -17 24 -52.5t9 -86.5v-254q0 -19 2 -31.5t9.5 -24.5t24.5 -25.5t46 -33.5z" />
    <glyph glyph-name="asciitilde" unicode="~" 
d="M-106 49l30 -85l-40 -47q-32 8 -50 8q-35 0 -56.5 -16t-21.5 -40q0 -23 14 -33.5t44 -10.5q36 0 65.5 11.5t55.5 35.5l223 -190l-47 -52l-184 154q-19 -10 -48 -19.5t-76 -9.5q-24 0 -45 8.5t-37 23.5t-25 35t-9 46q0 27 11.5 50t32.5 40.5t49.5 27t61.5 9.5l-10 29z" />
    <glyph glyph-name="nonbreakingspace" unicode="&#xa0;" horiz-adv-x="500" 
 />
    <glyph glyph-name="exclamdown" unicode="&#xa1;" horiz-adv-x="1" 
d="M-170 -188v62q-18 34 -38.5 58.5t-45 39.5t-55.5 22.5t-69 7.5l-30 63q103 105 239 170h69v-423h-70zM-170 160q-46 -21 -83 -46t-65 -52q91 -19 148 -85v183z" />
    <glyph glyph-name="cent" unicode="&#xa2;" 
d="M-17 275q0 -47 -20 -88t-55.5 -72t-85 -48.5t-108.5 -17.5q-37 0 -74 15.5t-72 41.5t-66 62t-57 76t-44.5 83.5t-27.5 85.5h69q18 -67 49.5 -121.5t71 -93t82.5 -59t86 -20.5q36 0 69 13t58 34.5t40.5 52t15.5 66.5q0 13 -3.5 30t-10.5 38l-65 -74q-19 -17 -40.5 -28
t-45.5 -11q-20 0 -38 8t-31 22t-20.5 32.5t-7.5 38.5q0 41 22.5 58.5t67.5 17.5l13 -51q-34 -4 -34 -27q0 -15 6 -22.5t23 -7.5q22 3 40.5 17.5t36 34t38 42.5t46.5 45q32 -41 52 -84.5t20 -88.5z" />
    <glyph glyph-name="sterling" unicode="&#xa3;" 
d="M-135 331q-26 -24 -48 -43t-42 -33t-39 -21t-39 -7q-28 0 -50.5 9.5t-38.5 25t-24.5 37t-8.5 45.5q0 18 6 34t17.5 27.5t27.5 18.5t34 7q9 0 17 -1t14 -5l-9 -47q-29 0 -40 -15l-4 -20q0 -11 6 -19.5t15 -14.5t20.5 -9.5t23.5 -3.5q7 0 20 8t32 25t46.5 42.5t63.5 59.5
l69 -25v-451h-69v72q-21 20 -50.5 27t-61.5 7q-17 0 -34.5 -1.5t-34.5 -2.5q-226 0 -226 203q0 34 19 115l68 -19q-10 -35 -14.5 -58.5t-4.5 -34.5q0 -37 8.5 -63.5t27.5 -42.5t49.5 -24t72.5 -8q26 0 46 2.5t38 2.5q23 0 44.5 -5.5t52.5 -22.5v229z" />
    <glyph glyph-name="currency" unicode="&#xa4;" horiz-adv-x="616" 
d="M-31 684v69h664v-69h-131q19 -34 28 -70t9 -72q0 -28 -10 -54.5t-28.5 -47t-43 -32t-54.5 -11.5q-28 0 -61 10.5t-72 40.5q-78 59 -104 59q-43 0 -43 -24q0 -32 33 -32h6q2 0 5 1l-6 -69q-10 -1 -15 -2q-2 -1 -4 -1q-18 0 -34 9t-28 23t-19.5 31.5t-7.5 35.5q0 19 8 34.5
t21.5 27t30.5 19t35 9.5v11q0 9 -4 23.5t-11 29.5t-14 29t-14 22h-136zM222 567q-1 0 8 -7.5t23.5 -18.5t33 -24.5t37.5 -24.5t36.5 -18.5t31.5 -7.5q78 0 78 89q0 36 -12 69t-36 60h-244q13 -15 24 -45.5t20 -71.5z" />
    <glyph glyph-name="yen" unicode="&#xa5;" horiz-adv-x="200" 
d="M-111 2q-6 0 -13 -2.5t-13.5 -7.5t-11 -11t-4.5 -12q0 -7 5 -12.5t13 -9.5t17 -6.5t17 -2.5l-22 -54q-20 0 -37.5 6.5t-31.5 18t-22 28t-8 36.5q0 19 10.5 37t27.5 31.5t39.5 22t46.5 8.5q39 0 74.5 -19.5t67.5 -54.5v686h-89v69h259v-69h-100v-880h-70v73
q0 23 -16.5 45.5t-41 40t-51 28.5t-46.5 11z" />
    <glyph glyph-name="brokenbar" unicode="&#xa6;" 
d="M-105 532v-487h-69v40q-23 38 -43 65t-44 47.5t-53 37.5t-70 38l-21 57q32 27 89.5 66.5t141.5 90.5v45h69zM-176 411q-39 -21 -75 -45.5t-67 -52.5q45 -23 82 -51t62 -60v209h-2z" />
    <glyph glyph-name="section" unicode="&#xa7;" horiz-adv-x="233" 
d="M68 684h-160v69h330v-69h-100v-684h-70v149q0 12 -12.5 32t-42.5 50q-24 23 -41 37t-31.5 21.5t-27.5 9.5t-28 2q-6 0 -13.5 -3t-13.5 -7.5t-10.5 -11t-4.5 -11.5q0 -34 53 -44l-23 -54q-22 0 -40 7.5t-31 20.5t-20.5 32t-7.5 40q0 22 10 39.5t27.5 30t40 19t45.5 6.5
q-37 67 -67 93l43 43q33 -31 57.5 -67t37.5 -79q5 -3 20.5 -15t32.5 -25.5t30.5 -26.5t16.5 -18v414z" />
    <glyph glyph-name="dieresis" unicode="&#xa8;" horiz-adv-x="328" 
d="M262 684q-45 -49 -66.5 -93t-21.5 -89l39 -310q0 -45 -9.5 -77.5t-33.5 -59.5t-65 -48.5t-104 -42.5l-19 64q52 15 84 31t49 37.5t23.5 52t6.5 77.5q0 9 -3.5 30t-7.5 48t-9.5 57.5t-9.5 59t-7 51.5t-3 35q0 52 17 95.5t51 81.5h-215v69h383v-69h-79z" />
    <glyph glyph-name="copyright" unicode="&#xa9;" horiz-adv-x="1" 
d="M-274 765l-37 55l417 283l37 -56z" />
    <glyph glyph-name="ordfeminine" unicode="&#xaa;" 
d="M-292 -53q-26 -4 -51.5 -9.5t-50.5 -10.5t-50.5 -8.5t-50.5 -3.5q-36 0 -65.5 15.5t-50 41t-31.5 58.5t-11 69q0 30 8 59t27 55l62 -16q-28 -43 -28 -93q0 -23 6.5 -45t19 -39t32 -27t44.5 -10q13 0 32 2.5t40.5 6.5t44 8t42.5 8t36 6.5t24 2.5q16 0 26.5 -2t20 -8.5
t21 -17t28.5 -28.5v360h69v-522h-69v71q-21 27 -35.5 42.5t-27.5 23t-27.5 9.5t-34.5 2z" />
    <glyph glyph-name="guillemotleft" unicode="&#xab;" 
d="M-503 -119q-9 0 -24.5 -3.5t-37.5 -7.5t-62 -5q-55 0 -96.5 14t-70 39.5t-43.5 60.5t-15 76q0 27 6.5 56t19.5 59l62 -16q-19 -60 -19 -84q0 -37 10 -63t32 -42t58.5 -23.5t86.5 -5.5q13 1 27 3.5t27 5.5t25 4.5t24 1.5q39 0 75 -16.5t68 -41.5v307h70v-469h-70v72
q-13 16 -32 30t-39.5 25t-42 17t-39.5 6z" />
    <glyph glyph-name="logicalnot" unicode="&#xac;" 
d="M-356 -117q0 72 -9.5 103.5t-37.5 31.5q-19 -1 -27.5 -15t-8.5 -30q0 -9 3 -19t7 -17l-61 -23q-6 28 -17.5 51.5t-26.5 41t-32.5 27t-35.5 9.5t-34.5 -4.5t-28 -14t-18.5 -24t-7 -32.5q0 -16 4 -27t13.5 -17.5t25 -11t38.5 -6.5l25 -64q-19 -4 -25 -4q-5 -1 -8 -2
q-30 0 -56 9.5t-45 27.5t-30 42.5t-11 54.5q0 28 13.5 53.5t35 45t49 31.5t56.5 12q69 0 122 -65q16 39 70 39q21 0 55 -33v136h69v-306h-67z" />
    <glyph glyph-name="registered" unicode="&#xae;" horiz-adv-x="554" 
d="M424 684q13 -18 19.5 -42t6.5 -52q0 -38 -19.5 -74t-51.5 -63.5t-71 -44t-77 -16.5q-29 0 -54.5 11.5t-44 31t-29 45t-10.5 55.5q0 47 17.5 86t53.5 63h-290v69h704v-69h-154zM381 590q0 13 -4 26t-12.5 23.5t-20.5 18t-28 8.5q-13 0 -34.5 -3.5t-57.5 -23.5l129 -121
q14 17 21 35t7 37zM188 609q-13 -19 -19.5 -37t-6.5 -35q0 -14 5.5 -28t14 -24.5t21 -17t26.5 -6.5q50 -5 94 28z" />
    <glyph glyph-name="macron" unicode="&#xaf;" horiz-adv-x="652" 
d="M552 614q0 11 -6 31.5t-25 38.5h-175q5 -26 16 -52t24 -47t40 -41t67 -18q63 10 59 88zM622 602q0 -29 -10.5 -53t-27.5 -46t-48 -35.5t-75 -10.5q-32 5 -52 19t-40 33.5t-37.5 48t-30.5 63.5q-23 -90 -55.5 -133t-71.5 -43q-14 0 -32 9.5t-35 23.5t-30 31t-19 31l34 53
q8 -13 18 -27t20.5 -25.5t20.5 -19t18 -7.5q13 0 25.5 14t22.5 35t16 46.5t6 47.5q0 8 -1 14t-2 13h-291v69h765v-69h-117q11 -13 20 -33t9 -49z" />
    <glyph glyph-name="degree" unicode="&#xb0;" horiz-adv-x="768" 
d="M474 684v-62q51 -6 96.5 -24t79 -45.5t53.5 -62t20 -73.5q0 -16 -7.5 -30.5t-18.5 -26t-25.5 -18t-29.5 -6.5q-6 0 -11 0.5t-10 2.5q10 -7 22 -20.5t23 -29.5t18 -33.5t7 -32.5q0 -24 -7.5 -43.5t-21.5 -34.5t-32.5 -22.5t-40.5 -7.5l5 69q27 0 27 35q0 20 -13 40
t-34 36.5t-47.5 29t-52.5 16.5v-422h-69v120q-31 27 -54 47.5t-42 34.5t-36.5 24.5t-37 18.5t-43 15t-54.5 15l-46 56l104 64q-29 21 -58 37t-58 25l-44 57q62 62 155 109.5t214 81.5v60h-436v69h837v-69h-332zM653 437q0 4 -6 14.5t-17.5 24t-27.5 28t-34.5 26t-39.5 19
t-44 7.5h-5t-5 -1v-148q15 -3 46.5 -15.5t81.5 -33.5q12 25 12 36l7 -1q32 0 32 44zM405 556q-34 -10 -74.5 -26t-79.5 -34t-70.5 -36.5t-45.5 -33.5q32 -16 63 -34t62 -39q21 11 57.5 25t87.5 31v147zM405 339q-46 -15 -98.5 -37t-113.5 -52q29 -11 50 -19t37 -16t29 -16.5
t27 -20t30 -27t39 -38.5v226z" />
    <glyph glyph-name="plusminus" unicode="&#xb1;" horiz-adv-x="633" 
d="M375 655q34 -5 67.5 -22t60.5 -43.5t44 -59.5t17 -67q0 -49 -27 -73t-74 -24q-42 0 -84 37l31 60q13 -19 53 -28q10 2 16.5 3t10 4.5t4.5 8.5t1 15q0 95 -120 125q0 -64 -19 -130.5t-57 -138.5q-27 -27 -49 -56q-18 -25 -32.5 -56t-14.5 -61q0 -19 7.5 -34t19.5 -25.5
t28.5 -16.5t34.5 -6q6 0 11 0.5t12 2.5q28 11 52.5 29t43 39.5t29 45.5t10.5 49q0 16 -7 26.5t-22 10.5q-10 0 -18.5 -15t-17.5 -36l-47 50q28 70 80 70q102 0 102 -123q0 -39 -21.5 -78t-55.5 -70t-75.5 -50t-79.5 -19q-35 0 -63.5 11.5t-49 32t-32 50t-11.5 64.5
q0 71 81 161q-39 109 -132 125l-17 52q90 129 241 160v29h-322v69h462q6 10 3 26q-15 42 -107 42q-9 0 -26 -1.5t-50 -4.5t-90.5 -4t-103.5 31t-46 91q0 21 8.5 46t21.5 55l64 -27q-24 -49 -24 -73q0 -54 91 -54q27 0 50 1.5t44.5 3.5t44 3.5t48.5 1.5q38 0 64.5 -7.5
t43.5 -24t24 -42t7 -63.5h124v-69h-262v-29zM305 593q-95 -39 -157 -103q58 -21 102 -105q53 84 55 208z" />
    <glyph glyph-name="twosuperior" unicode="&#xb2;" horiz-adv-x="1061" 
d="M604 84q-32 -2 -45 -10.5t-18 -20.5t-11 -32q12 -22 21.5 -27.5t18.5 -8t18 -2.5l-17 -65q-57 2 -83 25.5t-37.5 62t16.5 90.5q24 41 66 52v16q-17 36 -40.5 67t-49.5 52.5t-54.5 34t-55.5 12.5q-13 -5 -19.5 -8.5t-11 -8.5t-7.5 -14t-7 -25q-13 7 -27 17t-33 22
q0 17 14 35.5t39 37.5q9 4 24 7t34 6v17q0 32 -14 58t-37 44.5t-54 28t-65 9.5q-21 0 -29.5 -12.5t-8.5 -29.5l3 -19l-72 2q0 10 -0.5 16t-0.5 11q0 16 5.5 31t15.5 27.5t24.5 21t31.5 12.5q0 21 -14 38t-39 30h-143v69h1121v-69h-100v-880h-69v73q0 23 -58.5 78t-82.5 72.5
t-74.5 39.5t-74.5 17zM602 564q63 -3 97.5 -6t40.5 -4q20 -6 40.5 -21t36.5 -36t26 -46.5t10 -51.5q0 -56 -30 -86.5t-86 -30.5q-33 0 -62 19l33 64q6 -8 14.5 -11t18.5 -3q43 0 43 51q0 43 -34 70t-95 27q1 0 -12.5 -1t-40.5 -2v-337l20 -2q12 -2 25 -3q65 -11 121.5 -46.5
t125.5 -109.5v686h-292v-120zM533 496l-58 10q-23 5 -46.5 23t-41.5 43.5t-30 55t-12 56.5h-174q15 -15 21 -31t8 -31q39 0 76.5 -17.5t66 -47t46 -68.5t17.5 -83v-9q0 -4 -1 -8q45 -21 76 -50.5t52 -67.5v225zM533 684h-112q0 -25 7 -47t21 -38t35 -25.5t49 -9.5v120z" />
    <glyph glyph-name="threesuperior" unicode="&#xb3;" horiz-adv-x="891" 
d="M-53 684v69h964v-69h-964zM573 363q71 -30 71 -109q0 -39 -19 -71t-50 -55t-70.5 -35.5t-80.5 -12.5q-75 0 -141.5 51t-124.5 161q-22 43 -55 126.5t-59 175.5l64 11q32 -109 68.5 -194t76.5 -143.5t83.5 -89t89.5 -30.5q30 0 57 8t47.5 22t32.5 32.5t12 40.5
q0 56 -68 70q-40 -19 -92 -16l18 66q26 0 48 7.5t38 22t24.5 35t8.5 46.5q0 49 -35 75.5t-95 26.5q-29 0 -55 -7.5t-45 -22.5t-30 -35t-11 -45q0 -19 39 -42l-35 -51q-73 24 -73 105q0 36 17 66.5t46 52.5t67 34.5t80 12.5q36 0 67.5 -9.5t55.5 -26.5t41 -42t24 -56
q25 17 53 25.5t60 8.5q26 0 49.5 -12.5t41 -34.5t28 -50t10.5 -58q0 -28 -7 -55.5t-21.5 -45t-36 -28t-49.5 -8.5t-50 22l24 57q6 -4 20 -9.5t31 3.5q29 15 20 70q-3 34 -19 55t-52 25q-60 -2 -96 -40q0 -51 -43 -80z" />
    <glyph glyph-name="acute" unicode="&#xb4;" horiz-adv-x="782" 
d="M316 582q-7 0 -47 -12t-91 -41t-57 -33q43 0 73 -3.5t52.5 -11.5t39 -20.5t30.5 -31.5v134v19zM317 345q-21 29 -39 46.5t-39.5 27.5t-50.5 14t-72 4h-23l-54 70q3 3 73.5 53t203.5 90v34h-363v69h842v-69h-116v-705h-69q0 30 -11.5 60.5t-31 59t-45.5 54t-55.5 44
t-60.5 29.5t-61 11q-46 0 -46 -35q0 -21 52 -33l-29 -56q-19 0 -36.5 7t-30 19t-19.5 29.5t-7 38.5q0 18 7 34.5t18.5 29.5t27.5 21t34 8v45h1zM610 684h-228v-34q38 0 72 -16.5t60.5 -44t41.5 -62.5t15 -72q0 -22 -8.5 -42t-22.5 -35t-32.5 -24t-38.5 -9q-52 0 -71 80
l49 22q10 -32 26 -32q9 4 15.5 11.5t9 14.5t3.5 12.5t1 6.5q0 27 -8 49.5t-24 38.5t-38 25t-50 9v-279q36 -4 70 -18t63.5 -35.5t53.5 -49t41 -59.5v543z" />
    <glyph glyph-name="mu1" unicode="&#xb5;" horiz-adv-x="972" 
d="M-39 684v69h1020v-69h-1020zM948 355q0 -25 -11.5 -48.5t-33.5 -46.5l-47 54q24 9 24 39q-3 24 -10 40t-18 25t-26 13t-33 4q-29 0 -58 -16t-61 -49v-371h-69q0 37 -8.5 62.5t-30.5 41.5t-60 23.5t-96 7.5q-72 0 -127 2.5t-95.5 11t-67.5 24t-42.5 41t-22.5 62.5t-7 90
q0 47 39 158l55 -40q-26 -83 -26 -150q0 -37 8 -62.5t26.5 -41.5t48.5 -22.5t74 -6.5h35.5t56 1t60 1h45.5q39 0 72.5 -11.5t62.5 -34.5v389q0 45 -49 45q-14 0 -34.5 -9.5t-43.5 -25.5t-45.5 -36.5t-41 -43.5t-29.5 -46.5t-11 -43.5q0 -25 11.5 -35t34.5 -10h9q4 0 9 1
l-27 -68l-9 -2q-21 0 -38.5 9.5t-31 24.5t-21 36.5t-7.5 47.5q0 24 14.5 53.5t37.5 60t53 58.5t61 50t60 35.5t53 13.5q59 0 86.5 -39t27.5 -118v-44q74 44 140 44q28 0 52 -12.5t42.5 -33.5t29 -48t10.5 -54z" />
    <glyph glyph-name="paragraph" unicode="&#xb6;" horiz-adv-x="896" 
d="M533 684h-112q0 -25 7 -47t21 -38t35 -25.5t49 -9.5v120zM533 496l-58 10q-23 5 -46.5 23t-41.5 43.5t-30 55t-12 56.5h-174q15 -15 21 -31t8 -31q39 0 76.5 -17.5t66 -47t46 -68.5t17.5 -83v-9t-1 -8q45 -21 76 -50.5t52 -67.5v225zM63 502q-1 5 -1.5 11t-0.5 11
q0 16 5.5 31t15.5 27.5t24.5 21t31.5 12.5q0 21 -14 38t-39 30h-143v69h1003v-69h-343v-120q63 -3 97.5 -6t40.5 -4q20 -6 40.5 -21t36.5 -36t26 -46.5t10 -51.5q0 -56 -30 -86.5t-86 -30.5q-33 0 -62 19l33 64q6 -8 14.5 -11t18.5 -3q43 0 43 51q0 43 -34 70t-95 27
q1 0 -12.5 -1t-40.5 -2v-500h-69v168q-17 36 -40.5 67t-49.5 52.5t-54.5 34t-55.5 12.5q-13 -5 -19.5 -8.5t-11 -8.5t-7.5 -14t-7 -25q-13 7 -27 17t-33 22q0 17 14 35.5t39 37.5q9 4 24 7t34 6v17q0 32 -14 58t-37 44.5t-54 28t-65 9.5q-21 0 -29.5 -12.5t-8.5 -29.5
q0 -5 0.5 -9.5t2.5 -9.5z" />
    <glyph glyph-name="periodcentered" unicode="&#xb7;" horiz-adv-x="854" 
d="M405 575q-60 -16 -124.5 -44t-132.5 -72q31 -9 66 -28.5t69.5 -46.5t66.5 -59t55 -65v315zM471 644q39 -11 73 -30t58.5 -44.5t39 -56.5t14.5 -66q0 -23 -6.5 -45.5t-18.5 -40.5t-28.5 -29t-37.5 -11q-15 0 -36 7t-39 33l30 54q9 -10 18.5 -17.5t21.5 -7.5q9 0 18 13.5
t9 38.5q0 43 -29 74.5t-87 58.5v-373q30 7 50.5 10.5t30.5 3.5q15 0 35 -4t39.5 -14.5t33.5 -20.5t30 -30v537h-219v-40zM759 -93h-69v146q-13 18 -29.5 35t-34.5 30t-35.5 21t-30.5 8q-31 0 -64 -15t-68 -49q-36 -31 -63.5 -45t-46.5 -14q-21 0 -40 5.5t-37.5 19t-39 38
t-43.5 61.5l57 31q44 -86 107 -86q11 0 22.5 6t22.5 15t20.5 19.5t17.5 17.5q-105 184 -311 243l-49 86q100 62 189.5 102t168.5 62v40h-434v69h902v-69h-112v-777z" />
    <glyph glyph-name="cedilla" unicode="&#xb8;" horiz-adv-x="691" 
d="M589 328q24 -34 24 -109q0 -34 -15 -62.5t-46.5 -53.5t-82 -30.5t-84.5 2.5q-206 54 -330 349q-34 84 -64 247l63 13q6 -23 13 -57t18 -81q22 -85 59 -159.5t84.5 -130t102.5 -87t112 -31.5q103 0 103 107q0 19 -2.5 31.5t-8.5 19.5q-14 -2 -24 -3t-17 -2q-8 -1 -14 -2
q-21 0 -38 5t-30 14l19 57q28 -9 52 -9q20 0 39 7.5t32.5 20.5t21.5 30.5t8 37.5q0 17 -7 40.5t-18 47t-24 44t-25 30.5l-59 -123q-8 35 -25.5 67.5t-40.5 58t-48.5 40t-50.5 14.5q-64 0 -99 -80q53 21 84 21q19 0 37 -6t32 -16.5t23.5 -26t9.5 -34.5q0 -41 -46 -98
q-2 -2 -73 -82l-49 48q6 5 15.5 16t20.5 24t22.5 27.5t20.5 27t15 21.5t6 11q0 20 -28 20l-123 -19q-5 0 -11 5.5t-11.5 13t-9 16.5t-3.5 16q0 29 14 57t36.5 50.5t51.5 36t57 13.5q30 0 52 -4t41 -16t37 -32.5t39 -53.5l50 121q155 -181 155 -300q0 -74 -63 -120z" />
    <glyph glyph-name="onesuperior" unicode="&#xb9;" horiz-adv-x="654" 
d="M666 753v-69h-110v-689h-69v139q0 55 -15.5 102t-42.5 80.5t-62 52.5t-76 19q-132 0 -149 -141q45 23 78 34t56 11q22 0 41 -6t33.5 -17t22.5 -28t8 -37q0 -21 -13 -46.5t-34.5 -54t-50 -59.5t-57.5 -63l-50 49q25 26 49.5 51.5t44.5 48.5t33.5 41.5t15.5 32.5
q-6 27 -34 27q-12 0 -32 -8.5t-41 -19t-38.5 -19.5t-24.5 -11q-15 0 -29 7.5t-24.5 20t-16 28.5t-5.5 31q0 36 14.5 67.5t40 55.5t61 40.5t77.5 24.5l7 8q2 11 2 15q1 3 1 6q0 40 -55 40q-9 0 -25 -7t-33 -14.5t-33 -14t-24 -6.5q-14 0 -26.5 6.5t-22 17.5t-14.5 24.5
t-5 28.5q0 40 16 74.5t43.5 60t64 40.5t77.5 15q164 0 247 -153v285h69v-121h110zM242 678q-115 0 -134 -137l30 14t29.5 13t30 10t31.5 4q111 0 111 -103q0 -8 -0.5 -17t-1.5 -20q43 -11 81 -34.5t68 -59.5v83q0 27 -10.5 55.5t-28.5 56t-42.5 52t-51.5 43t-55.5 29.5
t-56.5 11z" />
    <glyph glyph-name="ordmasculine" unicode="&#xba;" horiz-adv-x="1024" 
d="M491 753h542v-69h-473v-311q70 90 153 138t184 57l61 -44q-17 -19 -28 -52.5t-18 -73.5t-10.5 -82.5t-3.5 -78.5q0 -28 2 -58.5t5.5 -60.5t9 -58t12.5 -51l-74 -9q-5 22 -9.5 53.5t-7.5 66t-4.5 69.5t-1.5 63q0 25 1.5 57t5.5 64.5t10.5 63t16.5 51.5q-177 -21 -312 -262
l-61 66v155q-100 240 -251 240q-26 0 -52 -10.5t-46 -29t-32.5 -42.5t-12.5 -53v-6q0 -4 1 -13q5 2 18.5 11t33 19t41.5 18.5t42 8.5q21 0 39.5 -6.5t31.5 -18.5t21 -28.5t8 -36.5q0 -54 -51 -126q-6 -7 -28.5 -32.5t-59.5 -68.5l-51 44q43 48 67.5 76.5t37.5 46.5t17 29.5
t4 27.5q0 13 -12.5 23.5t-25.5 10.5q-8 0 -25.5 -9.5t-36.5 -21t-35.5 -21t-22.5 -9.5q-74 0 -74 92q0 39 16 73.5t43 61t62 41t74 14.5q42 0 82 -13.5t73.5 -37t61 -56.5t42.5 -72v180z" />
    <glyph glyph-name="guillemotright" unicode="&#xbb;" horiz-adv-x="837" 
d="M267 222q26 0 57.5 -10t63 -25.5t60.5 -36.5t49 -43v233q-37 -14 -62.5 -24.5t-44.5 -19t-33 -16t-26.5 -15t-25 -16.5t-29.5 -21zM566 429q72 19 128 19q31 0 54 -30.5t11 -159.5q-6 -121 -2 -177t20 -104l-67 -19q-13 50 -18.5 108t-5.5 118q1 59 6 148q6 20 -3.5 39.5
t-122.5 -13.5v-443h-69v87q-45 75 -103.5 111t-128.5 36h-19l-68 87q51 50 131.5 94t187.5 85v17q-29 78 -54.5 126.5t-53.5 75t-62 35.5t-80 9q-26 0 -48.5 -10.5t-39 -27.5t-26 -40t-9.5 -49q5 1 20.5 7t35 13.5t40 13.5t35.5 6q22 0 39.5 -7t30.5 -20t20 -31t7 -40
q0 -24 -7 -45.5t-24 -45t-47.5 -53t-76.5 -70.5l-49 47q138 114 138 167q0 7 -3 13t-8 11.5t-11.5 8.5t-12.5 3q-8 0 -25.5 -8.5t-37 -19t-37.5 -19.5t-28 -11q-78 14 -78 97q0 38 18 71.5t47.5 58t69.5 38.5t86 14q131 0 231 -149v256h66v-104h296v-69h-293v-255z" />
    <glyph glyph-name="onequarter" unicode="&#xbc;" horiz-adv-x="714" 
d="M416 684q8 -14 21.5 -26.5t29 -23t31.5 -16.5t27 -6q30 0 38 12q1 6 2 11t2 9q0 2 1 5q0 35 -18 35h-134zM386 373q-21 -4 -65 -23.5t-111 -55.5q48 -11 93.5 -41t86.5 -79v199h-4zM559 210q42 11 42 60q0 23 -10.5 42t-29 32.5t-45 21t-57.5 7.5v-373h-69v67
q-24 38 -48 65t-52.5 47t-65 35.5t-86.5 30.5l-27 68q47 26 79 44t54 30t37 20t28 13.5t26.5 10.5t31.5 11l21 6q0 115 -145 115q-19 0 -40 -4.5t-38.5 -13t-29 -20t-11.5 -25.5q0 -25 36 -29l-11 -51q-18 0 -35 6t-30 16.5t-21 25.5t-8 34t3.5 32.5t15 25t32.5 24.5t56 32
q-13 45 -72 68h-114v69h754v-69h-114q11 -23 11 -51q0 -20 -7 -36.5t-20 -28.5t-30.5 -19t-37.5 -7q-79 0 -197 142h-142q27 -22 36 -54q113 -5 171.5 -50t58.5 -132q211 -22 211 -184q0 -16 -6.5 -35t-17.5 -35.5t-26 -29.5t-31 -18z" />
    <glyph glyph-name="onehalf" unicode="&#xbd;" horiz-adv-x="636" 
d="M459 684h-106q19 -27 39.5 -42t45.5 -15q5 0 10 2.5t9.5 7t7 10.5t2.5 12q0 11 -4 19q-2 4 -4 6zM317 454q0 21 -9 42t-25 37.5t-38 27t-48 11.5q-12 0 -26.5 -3.5t-26.5 -9.5t-20 -15.5t-8 -21.5q0 -5 1 -11t4.5 -12t9 -11.5t14.5 -8.5q14 -4 25.5 4t16.5 21l31 -41
q-6 -8 -13 -15.5t-15.5 -13.5t-18.5 -10t-21 -4q-18 0 -34.5 9t-29.5 23.5t-20.5 32.5t-7.5 36q0 21 9 40t24.5 33t35.5 23t42 12q-6 20 -30 55h-171v69h693v-69h-144q4 -4 5.5 -9.5t1.5 -10.5q-1 -18 -7 -33t-16 -26t-23.5 -18t-29.5 -7q-46 0 -85 26t-74 78h-75
q-1 -9 1 -17q1 -4 2 -7q1 -11 4.5 -17.5t6.5 -13.5q28 -3 53.5 -17t45.5 -36t32.5 -50t15.5 -60q42 44 88.5 77t98.5 59l86 -68q-29 -36 -54 -75.5t-42 -78.5q-9 -20 -15 -36.5t-11 -32.5t-7.5 -32t-4.5 -34q-5 -51 9 -111t43 -118l-61 -28q-16 42 -27.5 78.5t-18.5 68
t-10 60t-3 55.5q0 25 4.5 51t14.5 56q5 15 11 31.5t14 33.5q8 18 22 41.5t35 49.5q-22 -13 -38.5 -24t-30.5 -24q-16 -14 -29.5 -27t-27.5 -27q-13 -14 -26 -28.5t-25.5 -29.5t-24 -29t-21.5 -26q-22 -24 -41 -41t-36 -27t-32 -15t-28 -5q-20 0 -36 6t-30.5 20.5t-26 40
t-19.5 65.5l62 23l11 -49q6 -18 16 -26t20 -8q23 7 43.5 22t38 34t30.5 39t21 35v42z" />
    <glyph glyph-name="threequarters" unicode="&#xbe;" horiz-adv-x="1080" 
d="M374 684q11 -45 60.5 -70t137.5 -25q23 0 44 7.5t44 24.5q87 -109 232 -109q19 0 37 4t37 13l75 -82q-30 -29 -49 -57t-31 -56.5t-16 -58.5t-4 -62q0 -47 5.5 -99t11.5 -115l-69 -8q-6 61 -12.5 113t-6.5 101q0 28 3.5 56.5t11 57.5t20.5 59.5t33 63.5q-11 -4 -25 -5.5
t-29 -1.5q-32 0 -59 3.5t-53 14t-53 28.5t-59 46q-75 -55 -75 -99q0 -58 49 -58q30 0 108 54q87 -42 87 -164q0 -33 -12 -62t-32.5 -49.5t-49.5 -32.5t-63 -12q-68 0 -125.5 36.5t-102.5 110.5q-7 -14 -21.5 -27t-32.5 -22t-37.5 -14.5t-36.5 -5.5q-39 0 -76.5 13.5t-70 40
t-59 65t-41.5 88.5q-11 35 -23 97.5t-24 153.5l70 10q8 -80 14 -125t9 -55q10 -50 29.5 -86.5t43.5 -61.5t52.5 -37t57.5 -12q103 0 103 103q0 37 -26 59q-24 -24 -49.5 -35t-50.5 -11t-47 11.5t-39 31.5t-27 47.5t-10 60.5q0 13 8.5 34.5t20.5 43t26.5 40.5t25.5 26h-254
v69h1121v-69h-726zM762 266q0 21 -6 38.5t-18 31.5q-25 -14 -39 -22.5t-22.5 -13t-14 -5.5t-14.5 -1q-13 0 -25.5 2t-26 7.5t-28 15t-32.5 24.5q-13 24 -19.5 50.5t-6.5 54.5q0 4 7.5 21t22.5 49q-84 0 -144 31.5t-97 98.5q-23 -26 -36.5 -42.5t-20.5 -30t-9 -26t-2 -28.5
q0 -42 48 -42q33 0 108 42q19 -6 36 -25t29.5 -46t20 -58t7.5 -61q26 -43 47.5 -71.5t43 -45t44.5 -23t52 -6.5q20 0 37 5.5t29.5 16.5t20.5 25.5t8 33.5z" />
    <glyph glyph-name="questiondown" unicode="&#xbf;" 
d="M-415 250q-14 16 -21.5 36.5t-7.5 43.5q0 33 19.5 69t49.5 66.5t66 50t68 19.5q23 0 43.5 -10.5t35.5 -29t23.5 -43.5t8.5 -54v-444h-68v68q-66 57 -146 57q-10 0 -29 -3t-40.5 -6.5t-40 -6t-26.5 -2.5q-36 0 -68 15t-56 40t-38.5 57.5t-14.5 67.5q0 41 10 77t23 68
l60 -17q-25 -80 -25 -119q0 -26 10 -48.5t27.5 -38.5t41 -24.5t50.5 -8.5q31 5 62.5 11t64.5 6q39 0 73 -10t62 -30v292q0 66 -49 66q-19 0 -41.5 -14.5t-42 -35.5t-32 -44.5t-12.5 -42.5q0 -15 9 -28z" />
    <glyph glyph-name="Agrave" unicode="&#xc0;" horiz-adv-x="838" 
d="M464 139q-40 -20 -78 -42.5t-74 -47.5q36 -15 72.5 -43t76.5 -56zM598 -198v102q-29 74 -69 74v-228h-65q0 6 0.5 16t0.5 24q0 43 -19 76t-50 58t-68.5 42t-75.5 29l-66 75q27 11 58.5 30t69.5 47q-66 10 -117.5 45.5t-87.5 94t-55 139.5t-19 183h66q10 -393 247 -393
q27 0 50 6.5t41 20t27.5 33.5t9.5 46q0 56 -38 90q-29 -19 -47 -30t-32.5 -16.5t-30 -6.5t-37.5 -1q-26 0 -48 12t-38.5 31.5t-26 44.5t-9.5 51q0 27 5.5 49.5t18 44t35 44t56.5 49.5h-310v69h888v-69h-455q3 -25 20.5 -45.5t45 -35.5t61 -23.5t69.5 -8.5q87 0 108 7l66 -76
q-41 -39 -51 -52q-13 -16 -22.5 -36.5t-16 -42.5t-11 -43t-7 -39t-3.5 -30t-1 -17v-440h-67zM622 497q-193 0 -280 151q-32 -30 -51.5 -50.5t-30 -37t-14.5 -31.5t-4 -34q0 -24 8.5 -37t20 -19.5t22.5 -8t17 -1.5h4q20 0 47.5 17.5t60.5 41.5l20 15q23 -12 42 -33.5
t32.5 -47t21 -54t7.5 -55.5q0 -33 -15 -61v-197q41 -13 62 -53v200q0 93 18 167t55 132z" />
    <glyph glyph-name="Aacute" unicode="&#xc1;" horiz-adv-x="907" 
d="M345 639q-91 -72 -91 -161q0 -85 73 -85q12 0 27 5t30 13.5t29 19t24 21.5q-32 42 -55.5 88t-36.5 99zM675 399q5 -1 11 -1h11q26 0 47 5.5t36 14.5t24 22.5t9 28.5q0 12 -7.5 24t-19 21t-25.5 14t-28 5q-89 0 -198 -136q4 -43 22.5 -81t45.5 -67t61 -45.5t70 -16.5
q74 0 74 71q0 78 -87 78q-19 0 -43 -4zM822 365q53 -35 53 -107q0 -145 -149 -146q-68 5 -102.5 30t-57 47t-37.5 46q-9 -26 -29 -47t-45.5 -36.5t-55.5 -24t-59 -8.5q-35 0 -73 17t-72.5 46.5t-64.5 69.5t-49 85q-46 91 -60 256l64 13q12 -88 31 -158.5t51.5 -127t81 -92
t105.5 -35.5q26 0 49 11.5t40.5 30.5t28 43t10.5 49q0 29 -15 62q-81 -63 -146 -63q-136 0 -136 170q0 22 9.5 50t24.5 54.5t33.5 49t36.5 34.5h-357v69h1006v-69h-522l-4 -24q0 -23 8.5 -50t22 -52.5t31.5 -47.5t38 -35q104 130 216 130q29 0 56.5 -11.5t48 -31.5t32.5 -46
t12 -55q0 -72 -55 -96z" />
    <glyph glyph-name="Acircumflex" unicode="&#xc2;" horiz-adv-x="893" 
d="M424 516q-77 -49 -139.5 -89.5t-110.5 -72.5q61 -21 123.5 -60.5t126.5 -99.5v322zM708 245q17 0 32.5 6t26.5 17t18 26t7 32q0 39 -39 77q-25 -21 -64 -21q-43 0 -69 17l11 59q23 -11 44 -11q22 0 43 13t37 33t25.5 43.5t9.5 45.5q0 14 -6 27t-16 23t-23 15.5t-26 5.5
q-50 9 -116 -63l-94 -112q8 -30 29 -69t48 -80t59 -62.5t63 -21.5zM714 173q-68 0 -124.5 50t-103.5 151v-374h-62v100q-49 47 -82.5 76t-49.5 40q-19 13 -59.5 30.5t-100.5 39.5l-53 87q51 33 128 82t182 113q-46 107 -154 107q-95 0 -136 -72l-6 -39q0 -5 5 -9.5
t12.5 -8.5t17 -6.5t18.5 -2.5l-18 -59q-7 -1 -12 -1h-8q-16 0 -30.5 9t-25 24t-16.5 34t-6 39q0 32 16 59.5t41.5 48t60.5 32t72 11.5q38 0 68 -6t54.5 -20t45.5 -36.5t41 -54.5v200h60v-250q40 47 63.5 74t30.5 34q63 59 125 59q30 0 57 -11t47.5 -29.5t32 -44t11.5 -55.5
q0 -95 -50 -146q51 -43 51 -135q0 -27 -12 -52t-32.5 -45t-46 -31.5t-52.5 -11.5z" />
    <glyph glyph-name="Atilde" unicode="&#xc3;" horiz-adv-x="758" 
d="M270 431q-32 -13 -59.5 -24t-48 -22.5t-32 -24t-11.5 -28.5q0 -20 10.5 -34t25.5 -23.5t33.5 -14t34.5 -4.5q55 0 119 57q-16 15 -30 45.5t-25 78.5zM520 559q9 -1 15 -1h8q18 0 34.5 10t28.5 26t19.5 34t7.5 35q0 24 -16 39.5t-39 15.5q-37 0 -78 -36t-87 -111
q64 -181 173 -181q57 0 57 54q0 39 -40 58q-17 -9 -45 -9q-39 0 -55 12zM377 45q81 -43 166 -102.5t175 -138.5l-38 -53q-81 66 -138.5 109t-94.5 65q-140 86 -273 86l-53 93q31 -5 62.5 -7.5t63.5 -2.5q22 0 46 4t48.5 11.5t46.5 17t38.5 21.5t26.5 25t10 27q0 6 -5.5 17.5
t-13.5 23.5t-17.5 20.5t-15.5 8.5q-8 0 -13 -4q-42 -78 -199 -78q-26 0 -52 10.5t-46.5 29.5t-33 42.5t-12.5 49.5q0 83 72 126q37 15 73.5 30.5t66 36t48.5 47t19 65.5q0 21 -8.5 38.5t-22.5 30.5t-33.5 20t-39.5 7q-21 0 -43 -9t-41.5 -24.5t-31.5 -35t-12 -39.5
q0 -40 44 -48l-28 -58q-81 27 -81 99q0 40 17.5 72.5t47.5 56t70.5 36t88.5 12.5q22 0 43.5 -11t38.5 -29t30 -41t19 -47q31 42 53 67t42 38t42.5 17.5t52.5 4.5q26 0 47.5 -10.5t37 -28t23.5 -41.5t8 -50q0 -61 -46 -107q55 -29 55 -114q0 -24 -9.5 -43t-25.5 -34
t-37 -23.5t-45 -8.5q-146 0 -213 203q-6 -22 -40 -47q17 -102 57 -133q24 0 48.5 -13.5t43.5 -35.5t31 -48.5t12 -51.5q0 -51 -37.5 -89.5t-114.5 -61.5z" />
    <glyph glyph-name="Adieresis" unicode="&#xc4;" horiz-adv-x="780" 
d="M630 496q-20 -9 -46 -9q-25 0 -45 12l16 61q12 -1 17 -2h6q18 0 33.5 6t27 13t19 22t7.5 32q0 48 -57 48q-69 5 -121.5 -40t-69.5 -83q19 -52 54 -93t70 -50.5t65 -9.5q57 0 57 41q0 29 -33 52zM279 330q4 -30 22 -30q43 0 100 55q23 -8 42.5 -26t33 -42.5t21.5 -52.5
t8 -57q0 -37 -14.5 -68.5t-38.5 -55t-56.5 -37.5t-68.5 -14q-53 0 -99 25.5t-82.5 70t-61.5 104.5t-41 144l-9 70l64 1q5 -69 25.5 -131.5t51.5 -111t70.5 -76.5t84.5 -28q23 0 42.5 9t34 25t23 37.5t8.5 45.5q0 44 -30 73q-42 -34 -102 -34q-113 10 -99 128q29 103 84 177
q31 52 35.5 64.5t4.5 25.5l-4 21q-18 42 -73 48q-21 0 -43 -10t-40 -26t-29.5 -36.5t-11.5 -42.5q0 -20 20 -33l-32 -52q-52 19 -52 81q0 37 16.5 70.5t42.5 59t60 40.5t69 15q98 0 129 -72q12 -19 12 -44q25 28 50 48t51 34t56 19.5t67 5.5q24 0 44.5 -11t36 -26
t24.5 -35.5t9 -44.5q0 -25 -11 -49.5t-35 -49.5q48 -28 48 -89q0 -39 -45 -82q10 -13 18.5 -21t15.5 -13q-98 -64 -98 -191q0 -72 43 -158l-58 -28l-17.5 35t-21.5 54q-21 63 -15 126q18 123 67 171q-11 -2 -19 -2h-11q-130 -5 -229 176q-42 -58 -63.5 -103t-23.5 -76z" />
    <glyph glyph-name="Aring" unicode="&#xc5;" horiz-adv-x="1077" 
d="M1011 521q0 -76 -56 -133q64 -41 64 -125q0 -27 -8.5 -50.5t-24.5 -41t-38 -27.5t-49 -10q-44 0 -102 20v-390l-73 2q5 59 -14 102t-51 72v-219h-77v94q-43 62 -95.5 96t-112.5 39l-65 77q59 35 113.5 63.5t140.5 58.5q-88 39 -153 36q-27 0 -46 -2t-41 -5.5t-42.5 -7
t-30.5 -3.5q-47 0 -85 20.5t-64.5 56t-41 83.5t-14.5 102q0 20 2 36.5t6.5 35.5t12 36.5t18.5 36.5l68 -32q-30 -64 -32 -108q7 -67 16.5 -91.5t23.5 -44.5t40.5 -39t84.5 -17l83 15q76 3 99 -1t45.5 -10t41.5 -13.5t29 -14.5v434q0 4 -3.5 9.5t-9 10t-12 8t-12.5 3.5h-2
q-21 0 -44.5 -11t-46.5 -29t-44.5 -40.5t-38 -47.5t-26 -50t-9.5 -45v-4q1 -4 2 -13l12 -14l-50 -53q-36 36 -36 108q0 28 14 58.5t37 60t52.5 56.5t61 48t62.5 33t56 12q64 0 113 -86v-138q40 43 66.5 70t49.5 43t45 22.5t48 6.5q31 0 57 -12t45 -32t30 -47t11 -58z
M955 277q0 29 -39 60q-44 36 -111 39v67q27 0 53 -6q26 -5 45 -12q46 46 46 96q0 16 -6 30t-16.5 24t-24.5 16.5t-30 6.5q-77 0 -213 -185v-58q133 -155 234 -155q14 0 25.5 6t19.5 16.5t12.5 24.5t4.5 30zM724 191l-65 70v-58v-200q37 -11 65 -54v242zM583 93
q-58 -29 -95.5 -46.5t-74.5 -34.5q107 -7 170 -108v189z" />
    <glyph glyph-name="AE" unicode="&#xc6;" horiz-adv-x="626" 
d="M530 205q0 -38 -17.5 -69.5t-46 -54.5t-65 -36t-73.5 -13q-95 0 -172.5 73.5t-141.5 225.5l63 27q103 -256 255 -256q24 0 47 7.5t41 21t29.5 31t11.5 36.5q0 54 -35 73q-72 -56 -135 -56q-64 0 -96.5 37.5t-32.5 101.5v330h-176v69h516q0 23 1 27q-5 76 -125 80
l-204 -14q-35 0 -65.5 10.5t-53 29t-36 46t-13.5 61.5q0 22 11.5 45.5t33.5 51.5l57 -40q-6 -5 -11.5 -14.5t-10 -20.5t-8 -21t-3.5 -16q0 -64 131 -64l208 15q34 0 63 -12.5t51 -35t34 -52t12 -62.5l-1 -14h64v-69h-407v-326q0 -28 5.5 -42.5t13 -22t15.5 -9t14 -1.5
q37 0 72 20.5t61.5 53t43 73.5t16.5 83q0 60 -41 60q-18 0 -54 -23l-36 48q56 45 98 45q24 0 43 -12.5t32 -34t20 -50t7 -60.5q0 -16 -5 -38t-13.5 -45t-18.5 -44.5t-20 -34.5q22 -28 34.5 -57.5t12.5 -61.5z" />
    <glyph glyph-name="Ccedilla" unicode="&#xc7;" horiz-adv-x="1198" 
d="M-31 753h1241v-69h-372v-232q0 -28 15 -28q7 0 19.5 8t27.5 21t31 29.5t30.5 32.5t26 31t16.5 25q30 -16 54.5 -41t42.5 -55t27.5 -64t9.5 -68q0 -49 -18.5 -94t-49.5 -81t-71.5 -57.5t-84.5 -21.5q-47 0 -86 11t-73 37t-66.5 69t-66.5 107q-11 -33 -32.5 -62.5
t-48.5 -52t-58.5 -36t-62.5 -13.5q-74 0 -132 24.5t-104 79.5t-82 145t-67 223l64 16q72 -413 318 -413q32 0 60 15t49 41t33.5 59.5t12.5 69.5q0 47 -39 109q-14 -21 -39 -42t-53 -38.5t-55.5 -28.5t-48.5 -11q-66 0 -66 69v217h-302v69zM336 502q0 -31 12 -33q20 2 35.5 8
t34.5 21.5t48 44t74 77.5q61 -47 93 -169q1 -12 4.5 -25t11 -30.5t20.5 -39.5t33 -51q34 -49 58 -78t45 -44.5t42.5 -20t48.5 -4.5q38 0 70 15.5t55.5 41.5t36 60t12.5 70q0 52 -47 129q-19 -24 -43.5 -47.5t-50.5 -41.5t-50 -29t-41 -11q-14 0 -26.5 5.5t-22 15t-15 22
t-5.5 27.5v269h-433v-182z" />
    <glyph glyph-name="Egrave" unicode="&#xc8;" horiz-adv-x="846" 
d="M222 405q-13 -4 -26 -5.5t-24 -1.5q-30 0 -56.5 14t-46 37.5t-31 53.5t-11.5 64q0 39 14 76t38.5 65t58 45.5t74.5 17.5q29 0 55.5 -11.5t51 -31.5t44.5 -47.5t34 -60.5v133h334q1 10 2 16.5t2 10.5l2 9q0 71 -122 71l-204 -14q-36 0 -67 10t-53.5 29t-35.5 46t-13 61
q0 42 45 98l56 -40l-30 -43q0 -15 -1 -22q-1 -4 -1 -7q0 -14 9.5 -26t24.5 -19.5t33 -12t37 -4.5l194 11q200 0 200 -160v-14h64v-69h-406v-484q0 -10 3.5 -18.5t8.5 -15.5t11.5 -11t12.5 -4q45 0 83.5 28t72.5 87q12 21 23 45t19.5 50t14 52t5.5 52q0 7 -2.5 14.5
t-7.5 13.5t-11.5 9.5t-14.5 3.5q-23 0 -53 -26l-43 51q46 45 98 45q102 0 102 -148q0 -34 -12 -73.5t-32 -77.5t-47 -73.5t-57.5 -62t-62.5 -42.5t-63 -16q-29 0 -51 9.5t-36.5 27.5t-22.5 43t-8 56v288q0 12 -10 30.5t-25 39.5t-35 42.5t-39.5 38.5t-38 28t-30.5 11
q-123 0 -123 -129q0 -51 22 -77t67 -26l14 1z" />
    <glyph glyph-name="Eacute" unicode="&#xc9;" horiz-adv-x="691" 
d="M212 264q0 -28 10.5 -54.5t29.5 -46.5t43.5 -32t53.5 -12q47 0 85.5 19t65.5 53.5t41.5 81.5t14.5 105q0 19 -5 39t-15 44.5t-25.5 54.5t-37.5 70q-6 -123 -73 -206t-188 -116zM164 402q-31 0 -57.5 15t-46.5 39.5t-31 57t-11 67.5q0 37 11 70t32.5 58.5t51 40.5t66.5 15
q147 0 236 -151q0 44 -78 176q-77 133 -77 224q0 101 81 137l43 -40q-15 -9 -25.5 -19.5t-16.5 -26t-8.5 -38t-2.5 -55.5q0 -13 10.5 -40.5t26 -59.5t34 -64t35.5 -55h277v-69h-231q24 -40 43.5 -71t35.5 -57t27.5 -49t19 -47t11.5 -51.5t4 -61.5q0 -63 -21.5 -117.5
t-59.5 -94.5t-88.5 -63t-109.5 -23q-42 0 -79.5 18.5t-66 49t-44.5 70.5t-16 82q0 18 1 31t5 22q230 64 230 199q0 28 -19 60t-47 59.5t-60.5 46t-60.5 18.5q-24 0 -43 -9.5t-32.5 -26.5t-20.5 -38.5t-7 -46.5q0 -117 122 -117z" />
    <glyph glyph-name="Ecircumflex" unicode="&#xca;" horiz-adv-x="752" 
d="M565 780q30 -36 50.5 -66t34 -56t20 -50t9.5 -48q4 -46 -7 -80t-43 -57q18 -19 31 -35t21 -32.5t11.5 -34.5t3.5 -42q0 -41 -15 -76t-40.5 -61.5t-60 -41.5t-72.5 -15q-95 0 -170.5 49t-137.5 146q-32 48 -70.5 136.5t-84.5 218.5l70 21q14 -56 35.5 -115t49 -114.5
t60 -105.5t70 -87t79 -58.5t85.5 -21.5q31 0 55.5 10.5t41.5 27.5t26 40t9 48q0 31 -13.5 61t-41.5 56q-39 -12 -84 -16l-13 67q37 0 65.5 8t46.5 24.5t24 40t-1 54.5q-4 19 -12 38.5t-16 35.5t-14 26t-6 9l-96 -130q-15 32 -30.5 58.5t-31.5 46t-33 30.5t-37 13h-4
q-17 0 -32 -7t-26 -19t-17 -28t-6 -34q0 -17 4.5 -32.5t12.5 -27.5t19.5 -19.5t25.5 -7.5q11 0 25 8l-23 -64l-17 -1h-6q-23 0 -43 12.5t-35 33t-23.5 46t-8.5 51.5q0 31 12 59t33 50t48.5 35t59.5 13q20 0 42 -9.5t42 -25t34.5 -35.5t21.5 -42z" />
    <glyph glyph-name="Edieresis" unicode="&#xcb;" horiz-adv-x="750" 
d="M-47 684v69h838v-69h-838zM625 356q19 -19 31 -47.5t12 -67.5q0 -43 -17 -82t-48.5 -69t-75 -48t-96.5 -18q-98 0 -178.5 90t-150.5 271q-2 4 -21 57.5t-54 158.5l66 21q7 -27 19 -66t27.5 -81t32 -85t32.5 -78t28 -59t18 -29q42 -66 93 -98.5t120 -32.5q25 0 50 16
t44 41t30.5 56t11.5 62q0 20 -7.5 33.5t-22.5 20.5q-38 -11 -83 -15l-13 67q136 0 136 127q0 20 -9.5 35.5t-26 25.5t-38.5 15.5t-47 5.5q-29 0 -57.5 -10t-50.5 -24.5t-35.5 -33t-13.5 -35.5q0 -21 13.5 -38t43.5 -30l-28 -63q-98 45 -98 131q0 37 21.5 68.5t57 54t81 36
t92.5 13.5q36 0 66.5 -12.5t52 -35t33.5 -53t12 -67.5q0 -13 -5 -32t-13 -38t-17 -35t-18 -23z" />
    <glyph glyph-name="Igrave" unicode="&#xcc;" horiz-adv-x="678" 
d="M715 684h-97v-705h-64v67q-193 206 -331 218l-63 6l-81 122q23 -4 51 -5t60 -1q36 0 75 13t71.5 34t53.5 49t21 58q0 58 -67 116q-7 -12 -20 -27t-30 -32l10 -41l-61 -16q-10 44 -17.5 71t-16.5 41t-21 18t-31 4q-15 0 -27.5 -5.5t-22 -15.5t-14.5 -23.5t-5 -27.5
q0 -31 42 -57l47 -8v-64q-36 0 -65 8.5t-49 25t-31 40t-11 54.5q0 140 157 140q56 0 95 -79q11 15 29 35t41 48q37 -27 63 -52t42 -50t23 -52.5t7 -59.5q0 -31 -17 -62.5t-45.5 -59t-65 -50t-76.5 -33.5q157 -58 277 -178v690h67v-85h97v-69z" />
    <glyph glyph-name="Iacute" unicode="&#xcd;" horiz-adv-x="796" 
d="M258 496q-19 26 -19 59q0 24 9 44t25 34.5t37 23.5t45 9q37 0 70 -13.5t59 -37.5t41.5 -56.5t15.5 -70.5q2 -128 -85 -183q8 -6 18 -22.5t22 -37.5q43 -19 76 -43t56 -54v536h-649v69h820v-69h-102v-729h-68v73q0 14 -11 31.5t-29.5 35t-41.5 34.5t-46.5 30t-45 21
t-36.5 8q-6 0 -13.5 -4t-14 -9.5t-11.5 -12t-5 -13.5q0 -10 20 -25l33 -7l-9 -55q-22 0 -42 7t-35.5 19t-24 29t-8.5 39q0 42 30.5 68.5t86.5 26.5q-4 9 -9.5 17t-12.5 14q-29 -8 -72 -8q-38 0 -79 19t-79 62q-26 30 -46.5 61.5t-37 65.5t-31 69.5t-27.5 73.5l61 24
q31 -82 53.5 -132.5t36.5 -70.5q67 -105 183 -105q22 0 41 12t34 32t23.5 45.5t8.5 52.5q0 20 -8.5 40.5t-22 37t-31.5 27t-38 10.5q-22 0 -35.5 -6t-20 -13.5t-9 -14.5t-2.5 -10v-2q0 -17 10 -39z" />
    <glyph glyph-name="Icircumflex" unicode="&#xce;" horiz-adv-x="752" 
d="M655 -15h-69q0 77 -28.5 118.5t-90.5 41.5q-10 0 -28.5 -2t-39.5 -5t-44.5 -6t-45 -6t-39 -4.5t-27.5 -1.5q-41 0 -75.5 17t-59 46.5t-38 70.5t-13.5 90q0 37 6 74.5t16 77.5l59 -10q-12 -57 -12 -126q0 -171 116 -171l240 24q53 0 104 -48v376q-23 46 -47 46
q-16 0 -37 -10.5t-43 -27.5t-43.5 -39t-39.5 -43.5t-29.5 -42.5t-13.5 -35q6 -35 32 -35q17 0 44 22l33 -48q-21 -20 -42 -31.5t-44 -11.5q-21 0 -38 8t-29 22.5t-18 34t-6 42.5q0 25 13.5 55t36.5 59t52.5 56t60 48t60.5 33.5t54 12.5q18 0 33 -8.5t27.5 -20t22 -25.5
t16 -26t10.5 -19t4 -6v-566zM-12 753h768v-69h-768v69z" />
    <glyph glyph-name="Idieresis" unicode="&#xcf;" horiz-adv-x="732" 
d="M140 407q31 57 115 117.5t122 69.5l43 -44q-16 -33 -30 -74.5t-16.5 -86t-1.5 -73.5q81 123 235 186l46 -41q-45 -140 -47 -235q0 -118 25 -203l-68 -14q-16 54 -24 114t-5 107q-3 79 29 168q-24 -4 -88.5 -68t-94.5 -129l-74 33q-9 100 -3 166.5t16 89.5
q-50 -34 -95 -89t-84 -119l-68 37v365h-89v69h769v-69h-612v-277z" />
    <glyph glyph-name="Eth" unicode="&#xd0;" horiz-adv-x="333" 
d="M289 194h-246v63h246v-63z" />
    <glyph glyph-name="Ntilde" unicode="&#xd1;" horiz-adv-x="487" 
d="M444 311h-408v70h408v-70z" />
    <glyph glyph-name="Ograve" unicode="&#xd2;" horiz-adv-x="486" 
d="M224 823q-24 -6 -43.5 -20t-33 -32t-21.5 -38.5t-8 -39.5q0 -14 4.5 -27t14.5 -22.5t25.5 -15t36.5 -5.5h9l-18 -59q-34 0 -60 10.5t-42 29t-24 42t-8 48.5q0 27 8 54.5t24.5 52t41 43.5t56.5 29zM430 823q-24 -6 -43.5 -20t-33 -32t-21.5 -38.5t-8 -39.5q0 -14 4.5 -27
t15 -22.5t25.5 -15t36 -5.5h10l-19 -59q-34 0 -60 10.5t-42 29t-24 42t-8 48.5q0 27 8.5 54.5t25 52t40.5 43.5t56 29z" />
    <glyph glyph-name="Oacute" unicode="&#xd3;" horiz-adv-x="486" 
d="M48 621q24 5 43.5 19t33 32t21.5 38.5t8 39.5q0 15 -4.5 28t-14.5 22.5t-25.5 15t-36.5 5.5h-10l19 59q34 0 60 -11t42 -29t24 -41.5t8 -48.5q0 -27 -8 -55t-24.5 -52t-41 -43t-56.5 -30zM255 621q24 5 43.5 19t33 32t21 38.5t7.5 39.5q0 15 -4.5 28t-14 22.5t-25 15
t-37.5 5.5h-9l19 59q34 0 60 -11t42 -29t24 -41.5t8 -48.5q0 -27 -8.5 -55t-25 -52t-40.5 -43t-56 -30z" />
    <glyph glyph-name="Ocircumflex" unicode="&#xd4;" horiz-adv-x="268" 
d="M224 823q-24 -6 -43.5 -20t-33 -32t-21.5 -38.5t-8 -39.5q0 -14 4.5 -27t14.5 -22.5t25.5 -15t36.5 -5.5h9l-18 -59q-34 0 -60 10.5t-42 29t-24 42t-8 48.5q0 27 8 54.5t24.5 52t41 43.5t56.5 29z" />
    <glyph glyph-name="Otilde" unicode="&#xd5;" horiz-adv-x="268" 
d="M48 621q24 5 43.5 19t33 32t21.5 38.5t8 39.5q0 15 -4.5 28t-14.5 22.5t-25.5 15t-36.5 5.5h-10l19 59q34 0 60 -11t42 -29t24 -41.5t8 -48.5q0 -27 -8 -55t-24.5 -52t-41 -43t-56.5 -30z" />
    <glyph glyph-name="Odieresis" unicode="&#xd6;" horiz-adv-x="1" 
d="M-114 -17q-40 109 -199 124q-122 10 -186.5 16.5t-74.5 10.5q-60 23 -89.5 84t-29.5 171l69 -3q0 -13 -1.5 -27.5t-1.5 -26.5q0 -23 3.5 -45t14 -40t29 -31.5t47.5 -21.5q10 -2 60.5 -6.5t142.5 -13.5q70 -6 118.5 -21.5t81.5 -40.5q15 -12 25 -28t18 -31q7 -17 13 -36z
" />
    <glyph glyph-name="multiply" unicode="&#xd7;" horiz-adv-x="712" 
d="M420 331l-156 -98q7 -2 44.5 -22t111.5 -90v210zM175 247l245 160v93q-10 27 -26 35t-34 10q-23 1 -51 -10t-79 -62t-73.5 -96t-22.5 -63h-71v370h-94v69h756v-69h-593v-228q44 57 95.5 98.5t112.5 53.5q71 4 104.5 -27t39.5 -52.5t6 -39.5v-28.5t-2 -25.5q38 17 65.5 26
t44.5 9q29 0 47 -29.5t18 -105.5q-6 -114 -6 -148q0 -20 2 -39.5t8 -55.5t32 -83l-62 -24q-48 96 -46 192v159q3 39 -5 66l-98 -43v-371h-68v29q-42 64 -108 110.5t-125 61.5z" />
    <glyph glyph-name="Oslash" unicode="&#xd8;" horiz-adv-x="597" 
d="M428 342q-83 -45 -154 -99q50 -21 75.5 -40.5t78.5 -70.5v210zM142 469q103 151 215 153q61 0 97 -27.5t42 -73.5v-520h-65v23q-38 67 -108 115t-127 61l-11 58q137 112 245 158v93q-9 44 -72 42q-15 0 -51.5 -19.5t-83.5 -77t-81 -128.5l-68 19v339h-96v69h623v-69h-459
v-215z" />
    <glyph glyph-name="Ugrave" unicode="&#xd9;" horiz-adv-x="669" 
d="M-31 684v69h710v-69h-109v-684h-69v88q-117 151 -180 151q-8 0 -18 -3.5t-18.5 -9.5t-14.5 -15t-6 -21q0 -16 12.5 -29.5t28.5 -13.5q9 0 18 3.5t18 10.5l13 -53q-19 -9 -32.5 -13.5t-22.5 -4.5q-20 0 -37.5 8.5t-30.5 22t-21 32t-8 39.5q0 82 116 105q-1 8 2 85.5
t34 165.5q-61 -41 -123.5 -114.5t-95.5 -134.5l-69 48v337h-97zM135 421q109 151 235 206l67 -46q-42 -78 -52 -172t4 -126q61 -42 112 -99v500h-366v-263z" />
    <glyph glyph-name="Uacute" unicode="&#xda;" horiz-adv-x="626" 
d="M426 599q-11 -130 -70 -188q-16 -17 -60 -46.5t-118 -70.5q-27 -15 -27 -36q0 -30 9.5 -53t24.5 -39t34.5 -24t39.5 -8q52 4 94 22.5t71 52t44.5 81t15.5 112.5q0 12 -2.5 29.5t-7.5 37t-10.5 40t-12 38t-13 32t-12.5 20.5zM671 684h-238q113 -155 113 -314
q0 -60 -21.5 -114.5t-60 -95.5t-91 -65.5t-113.5 -24.5q-32 0 -64 13.5t-57 36.5t-40.5 52.5t-15.5 63.5q0 65 53 107q8 5 35 21t76 43q10 28 15.5 55t5.5 52q-12 73 -75 72t-68 -68q0 -15 8.5 -24.5t24.5 -13.5l23 7l6 -53q-22 -8 -41 -8q-17 0 -34 8.5t-25.5 22t-15.5 29
t-7 34.5q8 126 132 126q22 0 44 -8.5t40 -23t29 -35t11 -43.5q0 -36 -2 -57t-5 -29q25 37 41 71.5t16 68.5q0 45 -38 94h-366v69h336q-52 44 -77.5 80t-33 53.5t-11.5 33.5t-5.5 31t-1.5 34q0 93 95 173l44 -55q-71 -50 -71 -120q0 -23 7.5 -56.5t41.5 -75.5t103 -98h278
v-69z" />
    <glyph glyph-name="Ucircumflex" unicode="&#xdb;" horiz-adv-x="806" 
d="M386 684h-420v69h861v-69h-372v-259q0 -37 31 -37q18 0 56 42.5t93 128.5q28 -28 47 -54t31.5 -53t18 -55.5t5.5 -61.5q0 -45 -22 -90.5t-57.5 -82t-81 -59t-90.5 -22.5q-81 0 -150.5 33.5t-125.5 98t-98 159.5t-75 218l68 13q27 -114 68.5 -204t87.5 -145t100.5 -80
t120.5 -25q40 0 74.5 17.5t59.5 47t38.5 69.5t13.5 86q0 19 -8 39.5t-23 41.5q-41 -64 -81 -98t-82 -34q-20 0 -35 5.5t-25.5 17t-17 29.5t-10.5 45q-3 22 -14.5 44.5t-28 40.5t-35.5 30.5t-45 9.5q-18 -7 -18 -34q0 -16 13.5 -21t38.5 2l-5 -63q-18 -4 -36 -3
q-24 3 -33.5 8.5t-21 17.5t-19 27.5t-7.5 34.5q0 24 8.5 42.5t22.5 31.5t32.5 19.5t39.5 6.5q16 0 45 -15.5t63 -53.5v144z" />
    <glyph glyph-name="Udieresis" unicode="&#xdc;" horiz-adv-x="738" 
d="M228 297q45 -26 73.5 -43t45.5 -31t27.5 -28t22.5 -34v238q-33 -15 -75.5 -40.5t-93.5 -61.5zM397 60q-41 65 -94.5 109t-123.5 67l-52 69q43 38 102 75t133 75q-10 26 -27.5 49t-39.5 39.5t-48 26.5t-52 10q-34 0 -52 -17t-18 -54q0 -21 23.5 -31.5t31.5 -11.5l-12 -55
q-21 0 -41.5 9t-36 24.5t-25 35.5t-9.5 41q0 26 11 49t29 40t41.5 27.5t49.5 10.5q28 0 58 -8.5t58.5 -25t53 -40.5t40.5 -54v164h-476v69h822v-69h-277v-193q75 30 120 30q13 0 26 -1.5t25 -5.5l30 -41q-11 -66 -16.5 -117.5t-5.5 -100.5q0 -48 5.5 -100.5t16.5 -120.5
l-67 -11q-6 26 -10.5 58t-7.5 67t-4 71.5t-1 72.5q0 40 3 79.5t12 79.5q-38 -6 -70 -15t-56 -20v-437h-69v81z" />
    <glyph glyph-name="Yacute" unicode="&#xdd;" horiz-adv-x="728" 
d="M243 684q22 -3 47 -14t48.5 -27.5t41.5 -36t27 -38.5q29 27 49 27q47 0 107 -89v178h-320zM146 539q-8 0 -16.5 -4t-16 -9.5t-12 -13.5t-4.5 -15q16 -33 54 -31v-51q-38 -4 -57.5 7t-31.5 22.5t-19 27.5t-7 35q0 20 9.5 36t25 27.5t36.5 18t45 6.5q113 0 180 -149
q11 23 18.5 41.5t11.5 32.5q-11 27 -28 46.5t-44 33.5t-68 23.5t-102 15.5v45h-130v69h740v-69h-100v-684h-65v382q-9 22 -23 46t-29.5 44t-30.5 33t-24 13q-21 0 -55 -76q-31 -68 -53.5 -111t-42.5 -67.5t-39 -34t-43 -9.5q-39 0 -74 28.5t-65 86.5l60 32q34 -68 69 -68
q37 0 77 77q-46 163 -146 163z" />
    <glyph glyph-name="Thorn" unicode="&#xde;" horiz-adv-x="1022" 
d="M422 562q-29 33 -63 48t-69 15q-24 0 -47 -6.5t-43.5 -18t-38 -27t-30.5 -33.5q32 0 54.5 -6t38.5 -20.5t27.5 -39.5t21.5 -63q32 29 69 66.5t80 84.5zM465 510q-37 -39 -99.5 -104.5t-153.5 -155.5l-48 46q49 52 49 96q-6 41 -24 63t-50 22q-13 0 -27 -4t-31 -10l-47 49
q7 32 31 63.5t57.5 56t72 39.5t74.5 15q185 0 281 -187v254h333q1 10 2.5 16.5t2.5 10.5l2 9q0 71 -123 71l-208 -14q-36 0 -66 11t-52 30t-34.5 46t-12.5 59q0 42 45 98l57 -40l-30 -43q-1 -15 -2 -22q-1 -4 -1 -7q0 -13 8.5 -24t23.5 -20t34 -13.5t38 -4.5l194 11
q200 0 200 -160v-14h77v-69h-417v-475q0 -22 1.5 -35t6 -20.5t12 -11t19.5 -6.5q27 3 53.5 18t50.5 38t44 52.5t34.5 62t23.5 67.5t9 68q0 51 -41 51q-18 0 -52 -22l-41 46q58 45 99 45q20 0 38.5 -11.5t32.5 -29.5t21.5 -40t7.5 -42q0 -42 -11 -85t-30.5 -84t-46.5 -77.5
t-58.5 -64t-66 -44t-68.5 -16.5q-114 0 -114 186q0 10 0.5 26t1.5 32.5t2 29.5t1 17q0 3 -11 40t-40.5 71t-33.5 40z" />
    <glyph glyph-name="germandbls" unicode="&#xdf;" horiz-adv-x="761" 
d="M433 644q-75 64 -121 64q-87 0 -124 -62q24 0 46.5 -7t39.5 -21t27.5 -34t12.5 -45q29 24 58 50.5t61 54.5zM594 428q26 -6 50 -25.5t42.5 -48t29.5 -61.5t11 -65q0 -47 -22 -88.5t-57.5 -72t-81 -48.5t-91.5 -18q-42 0 -89 23.5t-93.5 64.5t-89.5 96.5t-78 119.5
q-18 34 -40 85.5t-49 119.5l69 29q40 -106 83.5 -191t91.5 -144t99.5 -90t106.5 -31q34 0 65 11t54 31t37 48t14 62q0 23 -9.5 47t-24 43.5t-34.5 32t-40 12.5q-17 0 -32 -6.5t-25.5 -17.5t-17 -25t-6.5 -31q0 -5 3 -13.5t7.5 -18.5t10 -19.5t11.5 -16.5l-70 -25
q-39 51 -39 102q0 106 137 132v110q-15 21 -52 60l-212 -194l-39 44q19 12 27 29t8 36q0 14 -4.5 27t-13 24t-20.5 17t-27 6q-10 0 -21.5 -3.5t-24.5 -11.5l-46 49q5 30 24.5 56.5t46 46t58 30.5t61.5 11q125 0 233 -128v221h65v-108h202v-69h-198v-256z" />
    <glyph glyph-name="agrave" unicode="&#xe0;" horiz-adv-x="676" 
d="M300 682q-71 0 -151 -96q35 4 44 4q17 0 32.5 -9t27 -24.5t20 -36.5t12.5 -45q25 22 62 54t85 76q-77 77 -132 77zM173 208q-11 0 -23 -5t-25 -16l-55 21q22 86 58 139.5t88 72.5q8 22 8 40q0 14 -6 26.5t-16 22t-23 15t-28 5.5q-29 0 -54 -19l-55 34q107 201 269 201
q121 0 239 -170v279h71v-101h107v-69h-110v-708h-66v203q-17 25 -59 70l-215 -238l-60 28l36 46q0 25 -5.5 47.5t-16 39t-26 26.5t-33.5 10zM555 459q-13 21 -32.5 44.5t-47.5 48.5q-38 -34 -71 -63.5t-65 -55.5q27 -3 57 -16t59 -33t55 -45t45 -53v173zM451 301
q-86 68 -146 68q-94 0 -138 -98q14 2 21 2h9q23 0 42 -10.5t34 -28t23.5 -41t10.5 -48.5z" />
    <glyph glyph-name="aacute" unicode="&#xe1;" horiz-adv-x="890" 
d="M403 684q64 -12 105 -42t60 -74q34 30 50 30q13 0 24 -3.5t23 -13.5t26 -28t33 -47v178h-321zM356 497q-31 32 -58.5 45t-54.5 13q-34 0 -64 -19t-59 -49q29 0 50 -4t35.5 -14t23.5 -28t17 -45q18 19 45.5 44t64.5 57zM493 446q11 23 19 41.5t12 32.5q-12 27 -28.5 46.5
t-44 33.5t-68.5 23.5t-102 15.5v45h-305v69h915v-69h-100v-684h-64v382q-8 19 -22.5 42.5t-30.5 44.5t-31 35t-23 14q-10 0 -24 -19.5t-33 -59.5q-34 -70 -57.5 -114t-44 -69t-40.5 -34.5t-44 -9.5q-19 0 -33 3.5t-26.5 12.5t-25.5 26.5t-29 45.5l54 31l26 -39l22 -9
q12 1 22.5 5t21.5 15.5t24 31.5t30 54q-12 14 -28.5 30t-36.5 35l-200 -190l-59 25q27 13 38.5 35t11.5 43q0 13 -4 24.5t-11.5 20.5t-18 14.5t-24.5 5.5q-22 0 -50 -16l-47 49q6 29 26 55.5t47.5 46.5t59 32.5t61.5 12.5q143 0 265 -166z" />
    <glyph glyph-name="acircumflex" unicode="&#xe2;" horiz-adv-x="836" 
d="M443 684q7 -26 26 -48t46 -38t59 -25.5t63 -9.5q56 0 86 13l66 -63q-78 -140 -78 -303q0 -31 10 -79t30 -114l-64 -18q-23 78 -34 129.5t-11 79.5q0 33 4 73.5t12 80.5t18 75.5t21 58.5q-13 -1 -34 -1h-47q-32 0 -58 4t-50.5 17t-50.5 36t-58 58v-209l16 -4q15 0 38.5 17
t55.5 52q86 -67 86 -178q0 -195 -230 -195q-32 0 -68 19.5t-70.5 51.5t-65 73t-50.5 85q-45 96 -70 265l64 12q12 -75 23 -120t19 -70q7 -19 18 -44.5t27 -52t37 -53t46.5 -47t55.5 -33t65 -12.5q28 0 53 8.5t43 24t28.5 38t10.5 51.5q0 45 -31 73q-42 -42 -95 -42
q-28 0 -60 20q-30 43 -49.5 68t-35.5 39.5t-33.5 23t-42.5 17.5l-36 66q36 29 81.5 58.5t103.5 58.5v13h-367v69h910v-69h-433zM332 602q-61 -22 -103 -65q34 -11 60 -31.5t43 -51.5v148z" />
    <glyph glyph-name="atilde" unicode="&#xe3;" horiz-adv-x="864" 
d="M313 684h-329v69h896v-69h-498v-327q69 102 153.5 152t186.5 59l59 -44q-17 -30 -29 -59t-19.5 -64.5t-10.5 -80.5t-3 -107q0 -105 29 -204l-62 -11q-19 57 -27 120t-8 131q0 15 1.5 36.5t4.5 45.5t7 48.5t8 46t9 38t8 24.5q-50 -6 -98.5 -30.5t-90 -64t-72.5 -89.5
t-38 -77l-85 22q-53 121 -233 181l-33 80q42 34 110 70t164 77v27zM124 486q19 -6 45.5 -19t53.5 -31t51.5 -37t38.5 -34v222q-61 -25 -109 -50.5t-80 -50.5z" />
    <glyph glyph-name="adieresis" unicode="&#xe4;" horiz-adv-x="750" 
d="M411 558q-62 -8 -134 -36.5t-154 -79.5q73 -20 133 -94q32 17 70.5 33t84.5 31v146zM83 250q20 15 46.5 32.5t60.5 38.5q-20 19 -34 30.5t-24 17.5q-9 5 -25.5 9t-42.5 8l-53 57q197 137 400 183v58h-442v69h805v-69h-296v-251q59 17 94.5 25t48.5 8l49 -59
q-7 -71 -11 -117.5t-4 -69.5q0 -113 42 -243l-64 -16q-23 77 -34.5 153.5t-11.5 154.5q0 10 1 24t5 33q3 21 4 35t2 21l-120 -27v-435h-66v80q-53 58 -118.5 99.5t-146.5 65.5zM411 341q-67 -21 -123.5 -48t-103.5 -60q43 -18 73.5 -33t49.5 -26q27 -16 53 -38.5t51 -52.5
v258z" />
    <glyph glyph-name="aring" unicode="&#xe5;" horiz-adv-x="761" 
d="M-14 684v69h784v-69h-784zM603 0q-7 40 -18 67.5t-29 45t-45.5 25.5t-65.5 8q-8 0 -27.5 -1t-41.5 -2t-43 -1.5t-33 -0.5q-58 0 -104.5 15.5t-78 46t-48 74t-16.5 99.5q0 21 5 48.5t17 61.5l66 -20q-9 -31 -13.5 -55.5t-4.5 -43.5q0 -43 15 -73t38.5 -49t50.5 -28t52 -9
l203 12q33 0 62 -9.5t52 -36.5v313q-132 -114 -222 -114q-33 0 -59.5 10.5t-45.5 30.5t-29.5 47t-10.5 60q0 20 8.5 38.5t23.5 32.5t33.5 23t39.5 9q49 0 72 -49l-30 -58q-17 39 -34 39q-8 0 -15 -4t-12 -10t-8.5 -13.5t-3.5 -15.5q0 -69 77 -69q22 0 42 6.5t44 23t55.5 46
t76.5 75.5l66 -30v-565h-61z" />
    <glyph glyph-name="ae" unicode="&#xe6;" horiz-adv-x="575" 
d="M222 568q-1 0 8 -7t23.5 -18.5t33 -24.5t37.5 -24.5t36.5 -19t31.5 -7.5q78 0 78 89q0 36 -12 68.5t-36 59.5h-230q7 -9 14 -38.5t16 -77.5zM473 0h-71v93q-22 41 -37 66t-24 34q-8 9 -24 24.5t-37.5 29.5t-44 24.5t-42.5 10.5q-69 0 -69 -74q0 -16 14 -30l47 -18
l-21 -64q-56 13 -83 44t-27 79q0 24 12 47.5t31 41t43 28.5t48 11q26 0 58 -11.5t62 -30t55 -41.5t39 -45v167q-50 0 -129 60q-40 29 -67 44t-44 15q-31 0 -39 -21q0 -9 3.5 -14t9 -8t12 -3h10.5h4l8 1l-25 -59l-13 -2q-15 0 -28.5 7t-25 18t-18 26t-6.5 30q0 19 8 34.5
t21 27.5t30 19.5t35 9.5v7q0 34 -7 61t-22 45h-150v69h637v-69h-104q19 -34 28.5 -69t9.5 -70q0 -45 -17 -77.5t-50 -54.5v-413z" />
    <glyph glyph-name="ccedilla" unicode="&#xe7;" horiz-adv-x="935" 
d="M520 684q3 -12 5 -26t2 -33q0 -25 -7.5 -50t-26.5 -50q-18 -14 -62.5 -55t-121.5 -107q88 -35 155 -77t109 -92v450h3q7 0 16.5 1t12.5 1q62 0 113.5 -17t88.5 -47t58 -73.5t21 -96.5q0 -20 -7.5 -39t-21 -33.5t-30.5 -23t-38 -8.5q-62 0 -109 61l54 42q26 -36 50 -36
q19 0 28 13.5t9 37.5q0 32 -14.5 58t-38.5 45t-57 29.5t-69 10.5v-569h-69v90q-23 36 -61 70t-83.5 62.5t-93 49t-89.5 29.5l-44 61l145 116q-18 6 -44.5 21t-61.5 40q-32 23 -54.5 35.5t-37.5 12.5q-17 0 -26.5 -5t-14.5 -17q0 -5 1.5 -10t5.5 -10q20 -4 34 -4h7l-26 -59
l-11 -2q-15 0 -29.5 7t-25.5 18t-17.5 26t-6.5 32q0 19 8 34t21.5 26.5t30 19t34.5 9.5q-4 22 -12 32h-135v69h960v-69h-427zM457 640q0 7 -2.5 18t-7.5 26h-245l6 -35q4 -3 24 -17t58 -42q24 -21 46 -31.5t41 -10.5q80 0 80 92z" />
    <glyph glyph-name="egrave" unicode="&#xe8;" horiz-adv-x="1" 
d="M-601 12q-14 0 -27 -5.5t-22.5 -15t-15.5 -22t-6 -26.5q0 -11 1.5 -20t8 -16t18 -14t31.5 -16l-19 -56q-26 0 -46.5 10t-34 26.5t-21.5 38t-8 47.5t12 51t32 44t46 31t54 12q63 0 111.5 -35t96.5 -99v179h69v-326h-69v16q-83 196 -211 196z" />
    <glyph glyph-name="eacute" unicode="&#xe9;" horiz-adv-x="790" 
d="M475 393q-21 -5 -51.5 -19t-61.5 -31t-59 -36t-43 -34q28 -4 49 -8t37.5 -9.5t31 -13t29 -19.5t31 -29t37.5 -42v241zM139 355q-112 32 -112 135q0 28 13.5 53.5t35.5 45t49.5 31t55.5 11.5q18 0 38 -5t38 -14.5t33.5 -22.5t25.5 -29q27 43 72 43q17 -2 26.5 -4.5
t17 -7.5t17 -14t24.5 -23v130h-534v69h875v-69h-279v-226q51 -8 93 -25.5t72 -44t46.5 -60.5t16.5 -73q0 -73 -70 -117l-34 55q42 22 42 73q0 21 -12 40.5t-34 35.5t-51.5 29t-64.5 21v-419h-61v55q-25 50 -52 84t-58 55.5t-66.5 31t-77.5 9.5h-15l-44 65q91 107 306 186
q-4 12 -11.5 25t-18 23.5t-22.5 17.5t-23 7q-37 0 -37 -37l12 -39l-58 -19q-41 127 -126 127q-19 0 -35 -5t-27.5 -15.5t-18.5 -24.5t-7 -32q0 -14 5.5 -27t15 -23.5t22.5 -16t27 -5.5z" />
    <glyph glyph-name="ecircumflex" unicode="&#xea;" horiz-adv-x="671" 
d="M535 684v-770h-69v198q0 15 -9 36.5t-26 49.5q-59 96 -176 96q-26 0 -50 -11.5t-42 -30.5t-29 -44t-11 -51q97 48 135 48q22 0 41 -6.5t33 -19t22 -30t8 -40.5q0 -12 -1 -21.5t-4.5 -18.5t-11 -19.5t-20 -24.5t-31 -32.5t-44.5 -45.5l-50 49q45 36 69.5 65t30.5 52
q-6 28 -34 28q-12 0 -32.5 -8.5t-41 -19t-38.5 -20t-24 -10.5q-17 0 -31 7t-24 19t-15.5 27.5t-5.5 32.5q0 42 18 77.5t49 60.5t72 39t86 14q89 0 186 -102v228q0 10 -6.5 21t-17 20t-22.5 15t-22 6q-13 -4 -18.5 -16t-5.5 -27q0 -10 2.5 -20.5t5.5 -18.5l-67 -23
q-38 126 -124 126q-21 0 -38 -8.5t-29 -21.5t-18 -30t-6 -32q0 -12 4 -23.5t12 -19.5t21 -13t31 -5h14l-21 -60l-18 -1q-28 0 -49 10t-34.5 27t-20 39t-6.5 46q0 28 10 57t29 52.5t47 38t64 14.5q77 0 138 -72q25 51 68 51q45 0 81 -36v102h-516v69h737v-69h-155z" />
    <glyph glyph-name="edieresis" unicode="&#xeb;" horiz-adv-x="962" 
d="M501 370v90q-18 38 -36 61t-40 23q-19 0 -27 -11.5t-8 -22.5q0 -13 8.5 -27t20.5 -25l-51 -40q-28 43 -47.5 69.5t-37.5 40.5t-36 19t-40 5q-17 0 -31.5 -10t-26 -26t-18 -35.5t-6.5 -38.5q0 -23 10.5 -42t37.5 -27l-48 -46q-34 20 -51.5 53t-17.5 80q0 34 13.5 63
t36.5 51.5t53 35t63 12.5q28 0 57.5 -16.5t60.5 -47.5q15 25 37.5 40t48.5 15q20 0 39 -12t36 -38v121h-518v69h694v-69h-107v-314h-69zM570 216q0 -36 11 -54t30 -18q27 0 53 12t49.5 33t44 48.5t36 59t24 64.5t8.5 64q0 49 -40 49q-19 0 -53 -22l-41 45q51 41 96 41
q23 0 42.5 -8.5t33.5 -24t22.5 -37.5t8.5 -49q0 -38 -11 -78.5t-31 -78.5t-46.5 -72t-58 -60t-66 -40.5t-69.5 -14.5q-27 0 -47.5 10t-35 28.5t-22 44t-7.5 54.5v472h-130v69h463q3 10 5 19.5t2 17.5q0 35 -31 51.5t-92 17.5l-208 -15q-33 0 -63 11t-52.5 30.5t-36 46.5
t-13.5 60q0 42 45 98l57 -40q-32 -42 -32 -74q0 -62 130 -62l207 15q36 0 66 -12.5t50.5 -35t32 -53.5t11.5 -67v-8h64v-69h-406v-468z" />
    <glyph glyph-name="igrave" unicode="&#xec;" horiz-adv-x="893" 
d="M113 327q-69 42 -69 133q0 34 14 63t37 51t53 34.5t62 12.5q56 0 118 -63q16 25 38.5 40t47.5 15q21 0 39.5 -11t35.5 -38v120h-518v69h932v-69h-344v-282q1 -5 3.5 -8t6.5 -6q20 3 35.5 10.5t32 26.5t37 52t52.5 88q107 -123 107 -230q0 -49 -21 -96t-57 -83.5
t-82 -59.5t-96 -23q-56 0 -102 13.5t-87.5 44t-78.5 79t-60 96.5l69 24q31 -57 59 -93.5t57.5 -57.5t64 -29t77.5 -8q38 0 72.5 16t60 43.5t40.5 62.5t15 73q0 49 -29 106q-14 -23 -35.5 -45.5t-45.5 -40t-47.5 -28.5t-41.5 -11q-37 0 -56.5 35.5t-19.5 106.5q-17 38 -35 61
t-41 23q-18 0 -26.5 -11.5t-8.5 -22.5q0 -13 8.5 -27t20.5 -25l-51 -40q-27 43 -47 69.5t-38 40.5t-35.5 19t-40.5 5q-16 0 -31 -10t-26.5 -26t-18 -35.5t-6.5 -38.5q0 -23 11 -42t38 -27z" />
    <glyph glyph-name="iacute" unicode="&#xed;" horiz-adv-x="703" 
d="M536 208v278q-1 13 -10.5 26.5t-31.5 31.5t-39 23q-20 -3 -29.5 -10.5t-16 -30t-2.5 -38.5t8 -25l-59 -20q-2 22 -13.5 45t-28.5 41.5t-38.5 30t-44.5 11.5q-19 0 -35.5 -5.5t-29 -15t-20 -24t-7.5 -31.5q9 -68 60 -64q27 7 23.5 22.5t-9.5 20.5l63 26q22 -43 10.5 -72
t-26 -41t-33 -18.5t-36.5 -6.5q-50 7 -74.5 31.5t-35.5 50t-11 56.5q7 72 53.5 107.5t102.5 32.5q18 0 37.5 -5.5t38 -15t34 -23t24.5 -29.5q33 66 95 66q44 0 81 -43v94h-557v69h745v-69h-119v-706h-69v131q-15 17 -30.5 32t-30.5 28l-212 -193l-39 43q19 13 27.5 30
t8.5 34q0 15 -5 28t-13.5 23.5t-21 16.5t-27.5 6q-20 0 -45 -14l-46 49q5 29 25.5 55.5t48.5 47.5t59.5 33t60.5 12q28 0 60.5 -10t64.5 -27.5t62 -42t53 -52.5zM433 212q-37 32 -67.5 45.5t-53.5 13.5q-44 0 -74.5 -13t-49.5 -43q24 0 46.5 -7.5t39.5 -22t27.5 -34.5
t12.5 -44q29 25 58 51.5t61 53.5z" />
    <glyph glyph-name="icircumflex" unicode="&#xee;" horiz-adv-x="1047" 
d="M389 537q-33 -6 -36 -36l10 -38l-60 -23q-7 28 -18.5 52t-26 41t-32 26.5t-34.5 9.5q-37 0 -62 -19t-25 -55q4 -73 91 -63l12 -63q-20 -6 -41.5 -6t-47.5 9.5t-45 27t-29.5 42.5t-10.5 55q0 28 13.5 54t35.5 45.5t49.5 31t55.5 11.5q74 0 121 -66q17 40 70 40
q31 0 101 -48l-150 119h-335v69h1073v-69h-622l137 -132v-51l-150 -126q79 -25 144 -71t117 -112v451h70q55 -2 107.5 -23t91.5 -67t45 -133q-2 -40 -10.5 -58t-22 -31.5t-32 -21.5t-37.5 -8q-38 0 -63 25l34 58q15 -13 27 -13q39 0 39 47q0 34 -13.5 62t-37.5 48t-57 30.5
t-71 10.5v-569h-70v94q-19 40 -55 76.5t-79.5 67t-93 53t-99.5 33.5l-39 50l152 116q-54 46 -91 47z" />
    <glyph glyph-name="idieresis" unicode="&#xef;" horiz-adv-x="738" 
d="M181 569q22 -25 35 -25q9 0 17 5.5t13.5 13.5t9.5 17.5t4 18.5q0 95 -130 95h-17v59q12 2 23.5 3t21.5 1q23 0 44.5 -4t41 -14t36.5 -27.5t32 -43.5q4 12 12.5 25t19 27t25.5 20.5t32 9.5q51 -6 99 -88l50 110q16 -11 38.5 -30.5t46.5 -54.5t39.5 -69.5t23.5 -97.5
q0 -121 -48 -161q20 -31 20 -70q0 -33 -14.5 -64.5t-39.5 -56.5t-57.5 -40t-69.5 -15q-52 0 -102 18.5t-96 53t-87.5 83.5t-75.5 109.5t-60.5 130.5t-39.5 139l62 11q12 -55 32.5 -113.5t50.5 -112t66 -99.5t76 -80t83 -53.5t86 -19.5q19 1 40.5 9.5t39.5 22.5t29.5 32.5
t11.5 39.5q0 18 -9 35q-11 -6 -24.5 -7.5t-30.5 -1.5q-42 5 -67 21l28 66q28 -14 53 -14q33 4 43.5 17t18.5 32t10 39.5t2 48.5q-6 70 -59 144l-52 -135q-72 135 -117 149q-30 -31 -30 -73q0 -54 39 -54q12 1 23 30l26 -59q-14 -20 -31 -31t-36 -11q-10 0 -21 4
q-40 21 -60 62q-17 -36 -29 -46t-26.5 -16.5t-28.5 -6.5q-12 0 -27 6.5t-33 19.5z" />
    <glyph glyph-name="eth" unicode="&#xf0;" horiz-adv-x="915" 
d="M497 602q24 -32 42.5 -52t37.5 -32.5t44.5 -19.5t65.5 -12q35 -6 59.5 -11.5t38.5 -13.5q21 -13 37 -35.5t16 -55.5q0 -54 -35 -113.5t-97 -125.5q-60 -64 -114 -96.5t-101 -32.5h-3q-19 12 -34 25t-26 26v700h488v-69h-419v-82zM497 72q32 0 71.5 28t93.5 87
q107 114 107 180q0 30 -49 45q-28 6 -59.5 13.5t-61.5 18t-56.5 24.5t-45.5 37v-433zM497 307h-69v223q-35 82 -73.5 118t-56.5 29q-14 -6 -34.5 -32t-23.5 -69q1 -81 23 -106.5t47 -17.5q30 6 44 36l31 -46q-15 -21 -37 -34t-52 -15q-35 3 -60 23t-33 47q-16 -37 -36 -52
t-53 -18q-19 0 -37.5 7t-48.5 31l32 48q18 -18 43 -22q20 -3 35.5 9.5t21.5 28.5t6 26q0 73 -18 104.5t-47.5 48t-100.5 10.5v69q53 0 77 -4t44 -15.5t38 -32t41 -54.5q45 100 100 100q51 0 128 -102v108h212v-69h-143v-377z" />
    <glyph glyph-name="ntilde" unicode="&#xf1;" horiz-adv-x="976" 
d="M700 166q41 -15 70.5 -28.5t53.5 -27.5t44.5 -29t42.5 -34t48.5 -43.5t61.5 -56.5l-46 -49q-42 50 -100.5 94.5t-124 77.5t-135 52.5t-142.5 19.5v69h96q55 0 105 16t88.5 42.5t62 61.5t23.5 71q0 22 -4 37t-13.5 26t-25.5 18t-41 14l-29 3q-4 -39 -22.5 -76.5t-46 -67.5
t-62.5 -48.5t-71 -18.5q-19 0 -38 8t-33.5 21.5t-24 30t-9.5 32.5v149q-35 82 -73.5 118t-56.5 29q-14 -6 -34.5 -32t-23.5 -69q1 -81 23 -104.5t47 -15.5q30 6 44 36l31 -50q-15 -21 -37 -34t-52 -15q-35 3 -60 23t-33 47q-16 -37 -36 -52t-53 -18q-19 0 -37.5 7t-48.5 31
l32 52q18 -18 43 -23q20 -2 39 12t24 49q0 73 -18 104.5t-47.5 48t-100.5 10.5v69q53 0 77 -4t44 -15.5t38 -32t41 -54.5q45 100 100 100q51 0 128 -102v108h554v-69h-485v-29q17 -27 35 -44q19 -17 43 -27q108 -20 196 -19q30 0 56.5 -14t46.5 -38.5t31.5 -56.5t11.5 -68
q0 -34 -17.5 -67t-47 -62.5t-69 -53.5t-83.5 -39zM497 389q9 -15 17.5 -23t21.5 -8q19 0 41.5 14.5t42 35.5t32.5 44.5t13 42.5q0 21 -22 23h-38q-67 0 -108 51v-180z" />
    <glyph glyph-name="ograve" unicode="&#xf2;" horiz-adv-x="923" 
d="M151 684q113 -46 289 -207v207h-289zM439 371q-17 25 -51 59t-85 79q-46 -34 -81.5 -67t-63.5 -66q164 -18 281 -171v166zM736 369q-30 0 -52 -2t-38 -8l-3 62q94 14 109 18q61 22 61 82q0 15 -6 28.5t-16.5 24t-24 17t-28.5 6.5q-24 0 -47 -9.5t-49 -33t-58.5 -63
t-76.5 -99.5q28 -43 60 -79t64 -62t64 -41.5t61 -15.5q62 0 62 72q0 15 -7 33.5t-18 33.5t-26 25.5t-31 10.5zM509 0h-69v86q-46 65 -84.5 108t-75 68.5t-74.5 36t-83 12.5l-57 78q19 23 63.5 63t116.5 98q-37 28 -94.5 61t-136.5 73h-46v69h986v-69h-446v-177
q94 96 101 102q67 57 130 57q29 0 55 -11.5t44.5 -31t29.5 -46t11 -56.5q0 -72 -58 -122q32 -33 47 -67t15 -68q0 -139 -139 -139q-25 0 -55.5 12t-62.5 33t-63 49.5t-55 61.5v-281z" />
    <glyph glyph-name="oacute" unicode="&#xf3;" horiz-adv-x="819" 
d="M363 197q-35 52 -67.5 86t-64 55t-64.5 30.5t-70 10.5l-44 63q15 19 47.5 54t89.5 80l-11 8q-13 11 -28.5 22.5t-34 24t-41.5 26t-52 27.5h-38v69h712q3 10 4.5 19.5t1.5 17.5q0 35 -30.5 52t-91.5 18l-210 -16q-34 0 -64 11t-52 30t-35 46.5t-13 60.5q0 21 11.5 45.5
t33.5 52.5l57 -40q-17 -21 -24.5 -39.5t-7.5 -34.5q0 -31 31.5 -46.5t97.5 -15.5l208 15q36 0 65.5 -12.5t50.5 -35t32.5 -53.5t11.5 -67v-8h64v-69h-406v-448q0 -36 11.5 -54t30.5 -18q26 0 52 12t49.5 32.5t44 48.5t35.5 59t23.5 64t8.5 64q0 25 -9.5 37t-31.5 12
q-16 0 -52 -22l-39 46q25 20 48 30.5t46 10.5t42 -8.5t34 -24t23.5 -38t8.5 -48.5q0 -38 -11 -78.5t-30.5 -79t-46.5 -72.5t-58 -59.5t-66 -40.5t-70 -15q-27 0 -47.5 10.5t-35 28.5t-21.5 44zM363 421q-14 19 -42 47.5t-69 64.5q-37 -27 -65 -48t-49 -48q65 -6 121.5 -40.5
t103.5 -95.5v120zM136 684q38 -15 93.5 -56.5t133.5 -110.5v167h-227z" />
    <glyph glyph-name="ocircumflex" unicode="&#xf4;" horiz-adv-x="657" 
d="M437 551q0 -54 -17 -106.5t-48 -97t-72.5 -76.5t-89.5 -45q0 -153 139 -153q35 0 66 21.5t54 56.5t36 79.5t13 90.5q0 114 -81 230zM275 344q50 46 69 99l-131 117q-74 -81 -74 -108q0 -33 55 -67zM121 358q-49 38 -49 89q0 14 9 36t78 120l-78 81h-124v69h354
q-55 64 -82 118t-27 104q0 80 73 175l52 -37q-31 -45 -44.5 -77.5t-13.5 -61.5q0 -26 9.5 -48t26.5 -47t41.5 -55t55.5 -71h295v-69h-264q81 -126 107 -182q42 -94 42 -206q0 -53 -19 -105t-50.5 -93t-73 -67t-86.5 -26q-47 0 -86 15.5t-66.5 43.5t-43 67t-15.5 87
q0 23 4.5 35.5t13.5 20t22.5 13t30.5 16.5zM171 684l192 -174q11 38 11 83q-3 51 -23 91h-180z" />
    <glyph glyph-name="otilde" unicode="&#xf5;" horiz-adv-x="870" 
d="M389 684q27 -47 27 -78q0 -51 -44 -106l69 -59l-12 -57l-135 -84q143 -47 238 -130v433l68 1q60 -1 103.5 -12.5t75.5 -34t50.5 -54.5t18.5 -71q0 -27 -8.5 -51t-24 -41.5t-35.5 -28t-43 -10.5q-14 0 -28.5 4.5t-29.5 14.5l4 79q7 -13 20 -19.5t26 -6.5q21 0 37 13.5
t16 38.5q0 28 -12.5 49t-33 34.5t-46.5 20.5t-53 7q-9 0 -18 -0.5t-18 -2.5v-542h-69v88q-85 117 -281 156l-54 73q5 4 45.5 31t125.5 81l-41 36q-37 -25 -77.5 -38t-83.5 -13q-23 0 -44.5 12.5t-38.5 31.5t-27 43t-10 47q0 75 88 145h-140v69h934v-69h-539zM192 653
l126 -108q23 30 27 44t4 22.5t0 6.5q0 28 -17 48.5t-46 20.5q-20 3 -46.5 -5t-47.5 -29zM273 502l-125 106q-21 -24 -28 -44t-7 -27q0 -1 1 -2h1q0 -13 5.5 -24t16 -20t23.5 -13.5t27 -4.5q15 0 36 7t50 22z" />
    <glyph glyph-name="odieresis" unicode="&#xf6;" horiz-adv-x="810" 
d="M818 753v-69h-107v-720h-66v51q-30 31 -66 53t-75 37t-80 23.5t-83 14.5l-25 84q14 -1 41.5 2t54.5 12t50.5 23.5t38 34.5t15.5 45t-28 60q-60 -92 -165 -108q-41 -4 -75 17q-39 26 -43 73q0 51 61 72l36 -38q-24 -9 -30 -29q2 -17 14 -23t26 -5q97 13 124 100
q0 10 -4 24q-31 1 -54 8t-40.5 22.5t-32 40.5t-29.5 62q-7 -34 -21.5 -62t-33 -48t-41.5 -30.5t-48 -10.5q-45 1 -98 82l46 40q21 -28 34 -41.5t21 -13.5q64 5 87 148h-226v69h455q21 0 39.5 -14t32.5 -36.5t22 -51.5t8 -58q0 -68 -55 -96q32 -19 52.5 -49t28 -63.5t3 -67.5
t-22 -62t-47.5 -46.5t-72 -20.5h9q118 -21 194 -91v774h68v-118h107zM314 683q16 -37 29.5 -62.5t27 -40.5t28.5 -21.5t33 -6.5q52 0 52 53q0 43 -44 79h-126v-1z" />
    <glyph glyph-name="divide" unicode="&#xf7;" horiz-adv-x="1040" 
d="M153 684q66 -17 110 -64t69 -120q40 39 87 39q28 0 56.5 -23.5t62.5 -69.5v238h-385zM881 415q0 51 -41 51q-18 0 -52 -22l-41 46q57 45 99 45q20 0 39 -11.5t33.5 -29.5t23 -39.5t8.5 -42.5q0 -42 -10.5 -86.5t-30 -85.5t-45.5 -77.5t-56.5 -63.5t-65 -42t-69.5 -15
q-25 0 -42.5 3.5t-33 13t-29.5 23.5t-30 35v207q-9 20 -23.5 45t-31.5 47.5t-34 38t-29 15.5q-20 0 -38.5 -16.5t-35.5 -42t-34.5 -54.5t-37 -54t-36.5 -43t-53 -20q-74 6 -149 148l59 32q10 -21 20 -40.5t21 -34t22.5 -23.5t23.5 -9q13 0 28 13t28.5 31.5t23 39t12.5 35.5
q-6 47 -17 78.5t-35 54t-67 39t-113 31.5v49h-67v69h914q1 10 2 16.5t3 10.5q1 6 2 10q0 70 -123 70l-204 -14q-36 0 -66.5 10t-53.5 29t-36 46t-13 62q0 42 45 97l56 -40l-29 -43q-1 -15 -2 -22q-1 -4 -1 -7q0 -64 131 -64l207 15q36 0 65.5 -12.5t50.5 -34.5t32.5 -52
t11.5 -66v-11h91v-69h-451v-542q16 -31 58 -31t80.5 28t69 72.5t48.5 98t18 105.5z" />
    <glyph glyph-name="oslash" unicode="&#xf8;" horiz-adv-x="703" 
d="M533 521v-521h-67v89q-21 41 -37 65.5t-25 34.5q-8 10 -24.5 25t-37 29.5t-43 24.5t-42.5 10q-70 0 -70 -74q0 -25 62 -48l-21 -64q-110 28 -110 124q0 25 12 48t30.5 40.5t43 28t47.5 10.5q28 0 57.5 -10.5t58.5 -27.5t54.5 -40.5t44.5 -49.5v286zM562 614
q0 11 -6.5 31.5t-24.5 38.5h-175q5 -26 15.5 -52t24 -47t40 -41t66.5 -18q64 10 60 88zM631 602q0 -29 -10 -53t-27 -46t-48 -35.5t-75 -10.5q-33 5 -53 19t-40 33.5t-37 48t-30 63.5q-23 -90 -55.5 -133t-71.5 -43q-15 0 -32.5 9.5t-34.5 23.5t-30 31t-19 31l34 53
q7 -13 17.5 -27t20.5 -25.5t20 -19t19 -7.5q13 0 25.5 14t22 35t16 46.5t6.5 47.5q0 8 -1 14t-2 13h-291v69h765v-69h-117q11 -13 19.5 -33t8.5 -49z" />
    <glyph glyph-name="ugrave" unicode="&#xf9;" horiz-adv-x="1014" 
d="M313 686q21 -56 39.5 -91.5t37 -55.5t40.5 -28t50 -8q36 0 54 23t18 56q0 24 -10.5 51t-31.5 51h-197v2zM422 450q-21 4 -36.5 10.5t-31.5 21.5t-33.5 40.5t-41.5 67.5q-25 -55 -38 -83t-15 -32q-39 -59 -103 -59q-17 0 -33 9.5t-30.5 23.5t-27.5 30t-24 27l43 45
q12 -11 20 -23t17 -21.5t20 -16t30 -6.5q9 0 23 20.5t28.5 50.5t28.5 65t24 64h-263v69h1045v-69h-427q11 -19 17 -44t6 -53q0 -24 -5 -47.5t-15.5 -41.5t-26 -29.5t-36.5 -12.5q-43 -43 -77.5 -74t-57.5 -52q193 -56 259 -142v395q30 1 55 0q41 1 91 -14.5t87.5 -45.5
t59 -73.5t21.5 -98.5q0 -20 -7.5 -39t-20.5 -33.5t-31 -23t-39 -8.5q-63 0 -109 62l54 40q26 -33 52 -33q36 0 36 51q0 32 -14.5 58t-39.5 45t-57.5 29.5t-68.5 10.5v-515h-69v90q-14 32 -51 62t-82.5 55.5t-94 42.5t-92.5 23l-45 60q28 28 59.5 58.5t66.5 63.5z" />
    <glyph glyph-name="uacute" unicode="&#xfa;" horiz-adv-x="728" 
d="M220 616q-26 20 -47.5 31t-38.5 16t-30 6t-23 1q-15 0 -35 -4t-41.5 -13t-41.5 -24t-35 -35q32 0 54.5 -6t38.5 -20.5t27.5 -39.5t21.5 -63zM410 865v-112h116v-69h-116v-684h-69v424q0 4 -5 15.5t-13 26t-17.5 31.5t-18 31t-15.5 24t-10 12l-253 -260l-48 45
q50 53 50 97q0 15 -4.5 30.5t-13.5 27.5t-21.5 18.5t-28.5 6.5q-3 0 -64 -12l-48 48q7 34 31 65t57.5 55.5t72 39.5t74.5 15q179 0 275 -176v301h69z" />
    <glyph glyph-name="ucircumflex" unicode="&#xfb;" horiz-adv-x="659" 
d="M-31 684v69h695v-69h-695zM345 208q38 -22 69 -41.5t58 -38t51 -38t50 -42t54.5 -49.5t97.5 -93l-46 -49q-68 69 -132 125t-132.5 102.5t-139 83t-157.5 64.5l-3 75q66 -33 143 -42q52 -3 99.5 10t83.5 37t57 57t21 73q0 74 -58 125l-97 -130l-49 24q0 25 -7 47t-21 38.5
t-33.5 26t-43.5 9.5q-23 0 -40.5 -8.5t-30 -22.5t-19 -34t-6.5 -44q15 -59 86 -48l-16 -61q-125 -3 -137 115q0 36 12.5 66.5t35.5 52.5t53.5 35t67.5 13q98 0 148 -102l89 116q28 -17 52.5 -43t42.5 -55.5t29 -61t11 -58.5q0 -44 -21.5 -86t-56.5 -75t-78.5 -53t-86.5 -20z
" />
    <glyph glyph-name="udieresis" unicode="&#xfc;" horiz-adv-x="777" 
d="M647 55q-11 61 -18 115t-10.5 102t-3 93t4.5 87l-134 -30l-14 70l181 33l45 -45q-8 -53 -9.5 -106t1 -104t9 -100.5t14.5 -96.5zM621 -72q-115 127 -244 213.5t-277 135.5v71q97 -39 176 -39q37 0 70.5 12.5t59 34t40.5 49.5t15 60q0 23 -15 46.5t-38 41.5t-49.5 29.5
t-49.5 11.5q-21 0 -43.5 -7t-40.5 -19t-30 -30t-12 -39q0 -14 10 -27.5t27 -28.5l-42 -57q-65 40 -65 117q0 31 20 59.5t49.5 51t64.5 36t65 13.5q36 0 74.5 -16.5t70.5 -44t53 -63.5t21 -74q0 -151 -202 -218q113 -62 198 -130t145 -144zM-19 684v69h815v-69h-815z" />
    <glyph glyph-name="yacute" unicode="&#xfd;" horiz-adv-x="842" 
d="M621 -72q-115 127 -244 213.5t-277 135.5v71q97 -39 176 -39q37 0 70.5 12.5t59 34t40.5 49.5t15 60q0 23 -15 46.5t-38 41.5t-49.5 29.5t-49.5 11.5q-21 0 -43.5 -7t-40.5 -19t-30 -30t-12 -39q0 -14 10 -27.5t27 -28.5l-42 -57q-65 40 -65 117q0 31 17 61t47 52.5
t67.5 34.5t67.5 12q36 0 74.5 -16.5t70.5 -44t53 -63.5q8 -15 13 -29q33 29 65 43q34 15 68 15q32 0 58.5 -10.5t45.5 -29.5t28.5 -45.5t9.5 -60.5q0 -22 -7.5 -44t-21 -40.5t-30 -30.5t-42.5 -18l-40 56q73 13 80 83q0 14 -6 27t-16 23t-23 16t-27 6t-32.5 -5t-33 -14
t-42.5 -32l-31 -29q-26 -116 -197 -173q113 -62 198 -130t145 -144zM-19 684v69h873v-69h-873z" />
    <glyph glyph-name="thorn" unicode="&#xfe;" horiz-adv-x="866" 
d="M533 684h-111q0 -59 30 -91.5t81 -32.5v124zM194 652l7 -34q41 0 78 -18.5t65.5 -49t45 -70t16.5 -79.5v-15q48 -18 79.5 -47.5t47.5 -69.5v224l-58 9q-23 3 -46.5 21.5t-41.5 44.5t-29 56.5t-11 59.5h-174zM-31 684v69h919v-69h-287v-125q1 0 27 9.5t77 28.5
q18 -17 34 -35t32 -37q-8 -29 -11.5 -59t-3.5 -61q0 -94 6 -167.5t18 -126.5l-65 -28q-29 183 -29 328q0 86 7 116l-92 -36v-499h-69v168q-17 36 -40 67t-49 52.5t-54.5 34t-55.5 12.5q-24 -11 -47 -47q-16 10 -30 17t-27 13q4 19 14.5 35t25.5 27t33 18t38 7v22
q0 31 -14 56.5t-37.5 43.5t-54.5 28t-65 10q-12 0 -22 -5.5t-17 -14.5t-10.5 -21.5t-3.5 -24.5l-61 9l-1 10q0 16 7 33t18.5 31t26.5 24.5t32 14.5q0 23 -12.5 41.5t-37.5 30.5h-119z" />
    <glyph glyph-name="ydieresis" unicode="&#xff;" horiz-adv-x="1169" 
d="M416 -13q33 0 54.5 -21t21.5 -55t-21.5 -55t-54.5 -21q-34 0 -54.5 21t-20.5 55t20.5 55t54.5 21zM378 420q0 -15 5.5 -22.5t18.5 -7.5q11 0 27 8.5t34 22.5t37 30.5t35 33t28.5 31.5t17.5 24q45 -30 73 -83.5t28 -129.5q0 -50 -20.5 -94.5t-56.5 -78.5t-84 -53.5
t-103 -19.5q-64 0 -113 24.5t-85.5 67t-61.5 97.5t-42.5 116t-28.5 121.5t-19 111.5l69 8q16 -124 44 -213.5t66 -148t82.5 -87.5t92.5 -29q37 0 72 17t61.5 43.5t42 61t15.5 70.5q0 28 -9 53.5t-26 51.5q-13 -21 -35 -43t-48 -40t-53.5 -30t-51.5 -12q-14 0 -28.5 9t-26 23
t-19 30t-7.5 30v271h-337v69h785v-69h-379v-264zM1179 753v-69h-108v-684h-69v479q-114 209 -243 209q-23 0 -47.5 -10t-44.5 -26.5t-33 -38.5t-13 -46q0 -22 14 -22q9 0 27 5.5t38.5 12t38.5 12.5t26 6q22 0 41 -7t33.5 -20t22.5 -32t8 -43q0 -18 -12.5 -40t-33 -46
t-47.5 -51t-57 -54l-57 43q45 42 71.5 70.5t41.5 45.5t19.5 26t5.5 13q0 18 -11 25t-33 7q-4 0 -21 -6.5t-37.5 -14.5t-40.5 -14.5t-29 -6.5q-18 0 -32.5 7t-24.5 19t-15.5 28t-5.5 34q0 39 17.5 74t46.5 61.5t66.5 42t77.5 15.5q43 0 76 -10.5t61 -31t53.5 -52.5t52.5 -74
v276h69v-112h108z" />
    <glyph glyph-name="OE" unicode="&#x152;" horiz-adv-x="208" 
d="M-19 684v69h231v-69h-231zM-336 251q-27 31 -27 73q0 23 9 47.5t24.5 47.5t36 43t43 36t46 25t44.5 9q24 0 44.5 -10t35.5 -29t23 -45t8 -56q19 15 34 25t29.5 15.5t31 8t37.5 2.5q22 0 42 -10.5t35.5 -26.5t24.5 -36.5t9 -41.5q0 -33 -14 -57t-34 -40l-46 47
q24 20 24 49q0 12 -5.5 20.5t-15 15t-21.5 9t-24 2.5q-18 0 -44 -22t-63 -67v-331h-68v68q-66 57 -146 57q-10 0 -29 -3t-40.5 -6t-40 -5.5t-26.5 -2.5q-38 0 -69.5 16t-54.5 42.5t-37 61.5t-14 73q0 57 37 143l54 -35q-12 -28 -17 -58t-5 -63q0 -24 10.5 -45t27.5 -36
t40 -23t48 -8q8 0 27 2.5t40 6t40.5 6t29.5 2.5q70 0 125 -39v291q0 34 -13 49t-37 15q-20 0 -42 -14t-41.5 -34.5t-32.5 -45t-13 -45.5q0 -5 2 -11t6 -14z" />
    <glyph glyph-name="oe" unicode="&#x153;" horiz-adv-x="1" 
d="M-388 62q-14 0 -27 -5.5t-22.5 -15t-15.5 -22t-6 -26.5q0 -11 1.5 -20t8 -16t18 -14t31.5 -16l-19 -56q-26 0 -46.5 10t-34 26.5t-21.5 38t-8 47.5t12 51t32 44t46 31t54 12q63 0 111.5 -35t96.5 -99v129h69v-276h-69v16q-83 196 -211 196z" />
    <glyph glyph-name="Scaron" unicode="&#x160;" horiz-adv-x="296" 
d="M185 0h-69v684h-163v69h163l3 49q0 15 -8.5 27.5t-22 21t-30.5 14t-35 5.5q-33 0 -72 -4.5t-81 -4.5q-45 0 -88.5 5.5t-78 21t-55.5 43t-21 72.5t36 104l56 -35q-12 -19 -17 -36t-5 -32q0 -23 14 -37t37.5 -22.5t54 -11.5t63.5 -3q50 0 94 3.5t72 3.5q30 0 56 -10
t46.5 -27t33.5 -40t14 -47l3 -60h135v-69h-135v-684z" />
    <glyph glyph-name="scaron" unicode="&#x161;" horiz-adv-x="708" 
d="M-42 753h775v-69h-143q17 -32 24.5 -60.5t7.5 -51.5q0 -24 -10 -48.5t-26.5 -44.5t-37 -33t-41.5 -13q-36 0 -111 64q-38 32 -70 43.5t-57 11.5q-21 0 -36 -15t-15 -36q0 -13 6.5 -18.5t20.5 -11.5l-41 -45q-56 26 -56 92q0 23 10.5 41.5t28 32.5t40 21.5t47.5 7.5
q61 0 112 -31q4 -3 20 -16.5t36 -29.5t40 -29t32 -13q8 3 15.5 11t13 18t8.5 20.5t3 20.5q0 42 -12.5 70.5t-36.5 41.5h-547v69z" />
    <glyph glyph-name="Ydieresis" unicode="&#x178;" horiz-adv-x="428" 
d="M-13 424q39 -10 80 -30t77.5 -46t65.5 -56t46 -60v327q-15 -5 -39 -14.5t-51 -22t-55.5 -26.5t-53.5 -27.5t-43.5 -25t-26.5 -19.5zM256 0v119q-13 27 -34.5 56.5t-48.5 56.5t-58.5 51t-63.5 42t-63.5 28t-60.5 10l-34 74q176 139 363 189v58h-300v69h508v-69h-139v-684
h-69z" />
    <glyph glyph-name="florin" unicode="&#x192;" horiz-adv-x="195" 
d="M-41 684v69h232v-69h-232zM39 29v399l-134 -30l-14 69l181 34l37 -38v-434h-70z" />
    <glyph glyph-name="circumflex" unicode="&#x2c6;" horiz-adv-x="337" 
d="M7 1030q-19 -40 -19 -56q0 -48 67 -48q8 0 18.5 0.5t20.5 1.5t19 1.5t13 0.5q68 -1 112 -13.5t69.5 -40t36 -72.5t10.5 -113q-53 -31 -96 -72t-74 -89t-48 -101.5t-17 -108.5q0 -43 11 -87.5t31 -81t47 -60t60 -23.5q13 0 23.5 2t20 7.5t19.5 15t22 24.5q19 -16 54 -38
q-21 -42 -52.5 -60.5t-75.5 -18.5q-35 0 -66 13.5t-56.5 37.5t-45 54.5t-33.5 66t-21 71t-7 69.5q0 60 16.5 120.5t46.5 116t72.5 104t95.5 84.5q0 36 -6 59t-21 35.5t-41 17t-65 4.5q-66 0 -98 0.5t-43 3.5q-26 5 -42.5 20.5t-26.5 33.5t-14.5 35t-4.5 26q0 49 28 90z" />
    <glyph glyph-name="tilde" unicode="&#x2dc;" horiz-adv-x="411" 
d="M182 497q107 81 291 116l39 -51q-8 -32 -13 -63t-6 -61.5t1.5 -61.5t9.5 -64h-68q-5 27 -8 56t-3 59t4.5 59t13.5 55q-65 -9 -135 -46t-140 -93l-55 26v256h-145v69h475v-69h-261v-187z" />
    <glyph glyph-name="mu" unicode="&#x3bc;" horiz-adv-x="206" 
d="M83 352q-48 0 -81 41q-31 38 -31 87q0 43 31 71.5t74 28.5q47 0 77.5 -32.5t30.5 -79.5q0 -43 -29 -78q-30 -38 -72 -38zM99 419q41 29 41 54q0 38 -61 38q-25 0 -38 -11q-27 -23 -27 -64q0 -39 31 -39q23 0 54 22z" />
    <glyph glyph-name="endash" unicode="&#x2013;" horiz-adv-x="1" 
d="M-348 -270q11 0 22.5 4t21.5 11t18 17t12 22q-15 13 -33 19t-36 6q-9 0 -20 -2t-20 -7t-14.5 -13t-5.5 -20q0 -19 15 -28t40 -9zM-202 -47q14 -41 21 -70t7 -44q0 -3 -1.5 -13t-4.5 -27q24 -19 42.5 -34t33 -28t26.5 -26t24.5 -28t27 -34.5t34.5 -45.5l-54 -42
q-77 114 -169 177q-38 -47 -77 -62t-80 -15q-22 0 -40.5 9t-32 23.5t-20.5 34.5t-7 42q0 23 11 42.5t29 34.5t41.5 23t49.5 8q13 0 37 -8t60 -25l1 13q0 18 -16 60z" />
    <glyph glyph-name="emdash" unicode="&#x2014;" horiz-adv-x="1" 
d="M2 269q0 -49 -17 -88.5t-49 -68t-78 -44t-105 -15.5q-47 0 -91.5 18.5t-84.5 49t-75 72t-63 88t-48 96t-30 96.5l70 10q17 -75 53 -141t81.5 -114.5t96.5 -76.5t101 -28q34 0 65 11t54 31t37 48t14 62q0 23 -8 46t-23 41t-35 29.5t-42 11.5q-17 0 -33.5 -4.5t-29 -14
t-20.5 -22.5t-8 -29q0 -13 6.5 -26t16.5 -26l-56 -42q-36 46 -36 96q0 29 13 54t35.5 44t53.5 29.5t67 10.5t66.5 -17t53 -44.5t35.5 -64.5t13 -78z" />
    <glyph glyph-name="quoteleft" unicode="&#x2018;" 
d="M-62 255q70 -42 70 -109q0 -38 -16.5 -68.5t-45.5 -52t-70 -32.5t-88 -11q-150 0 -260 111t-181 332l64 19q26 -89 64.5 -161t87 -123t105.5 -79t120 -28q151 0 151 90q0 55 -67 70q-18 -16 -94 -16v66q38 2 64 6.5t42 14t23.5 26.5t7.5 44q0 16 -17 27.5t-40.5 19
t-46 11.5t-34.5 4q-25 0 -48 -6.5t-41 -18t-28.5 -27t-10.5 -34.5q0 -27 16.5 -40t50.5 -13l-10 -70q-63 8 -94.5 39t-31.5 85q0 34 16 61.5t43.5 48t62.5 32t74 11.5q37 0 74.5 -10.5t67 -28t47.5 -41.5t18 -51q0 -70 -45 -98z" />
    <glyph glyph-name="quoteright" unicode="&#x2019;" horiz-adv-x="1" 
d="M-517 112v69q72 -8 116 -8q43 0 75 2t51 8q17 6 37.5 17t37.5 27.5t28.5 37t11.5 43.5q0 98 -130 98q-47 0 -81 -30.5t-55 -94.5l-67 16q42 178 229 178q34 0 65.5 -13t55.5 -36t38.5 -53.5t14.5 -64.5q0 -42 -20 -78t-53 -62t-75.5 -41t-88.5 -15q82 -44 179 -113
t208 -166l-47 -48q-160 147 -457 319z" />
    <glyph glyph-name="quotesinglbase" unicode="&#x201a;" 
d="M-316 49l30 -85l-40 -47q-32 8 -50 8q-35 0 -56.5 -16t-21.5 -40q0 -23 14 -33.5t44 -10.5q36 0 65.5 11.5t55.5 35.5l223 -190l-47 -52l-184 154q-19 -10 -48 -19.5t-76 -9.5q-24 0 -45 8.5t-37 23.5t-25 35t-9 46q0 27 11.5 50t32.5 40.5t49.5 27t61.5 9.5l-10 29z" />
    <glyph glyph-name="quotedblleft" unicode="&#x201c;" horiz-adv-x="230" 
d="M-160 684v69h394v-69h-394zM-95 503q23 -21 44 -90q4 -17 12 -33.5t19.5 -29.5t26.5 -20.5t34 -5.5q28 0 48.5 11t33.5 28.5t17.5 39t-0.5 43.5q-7 28 -22.5 40t-42.5 10q-14 -3 -20.5 -13t-5.5 -20q-1 -5 1 -10t5.5 -9t8.5 -5.5t11 0.5l-12 -54q-14 -2 -29.5 2t-28.5 14
t-20 27t-5 42q0 22 10 40t26 30.5t36 19t40 4.5q33 -3 54 -16.5t33.5 -32.5t17 -43t4.5 -50q0 -36 -11.5 -66t-30.5 -47t-41 -30t-65 -18q-89 -5 -138 75q-31 82 -56 97z" />
    <glyph glyph-name="quotedblright" unicode="&#x201d;" horiz-adv-x="362" 
d="M-34 753h413v-69h-210v-42q21 -38 55.5 -71.5t75.5 -58.5t86.5 -39.5t88.5 -14.5q5 -12 8 -24.5t3 -27.5q0 -37 -12 -76t-33.5 -76t-50.5 -69.5t-62.5 -56.5t-69.5 -38.5t-71 -14.5q-44 25 -65.5 51t-21.5 66v492h-134v69zM197 145q23 0 48.5 11t50 30t46.5 44.5t38.5 53
t26.5 56.5t10 56q-152 24 -248 149v-352q0 -24 6.5 -36t21.5 -12z" />
    <glyph glyph-name="quotedblbase" unicode="&#x201e;" horiz-adv-x="1" 
d="M-345 -156l196 144l21 67l44 -109l-135 -101l258 -181l-42 -62z" />
    <glyph glyph-name="dagger" unicode="&#x2020;" horiz-adv-x="363" 
d="M429 79q-21 -42 -52.5 -60.5t-74.5 -18.5q-40 0 -72.5 13t-58 37t-52 56t-38.5 68.5t-18.5 76t-6.5 77.5q0 46 10 93.5t32 92t53 85t68.5 73.5t80.5 55t89 30v-69q-137 -57 -200.5 -153.5t-61.5 -225.5q0 -33 4 -56.5t14 -48t27 -52t37.5 -44t39.5 -28.5t40 -12
q15 0 26.5 2.5t21.5 8t18.5 15.5t19.5 23q19 -16 54 -38z" />
    <glyph glyph-name="daggerdbl" unicode="&#x2021;" horiz-adv-x="343" 
d="M409 79q-20 -42 -51.5 -60.5t-75.5 -18.5q-58 0 -101.5 28.5t-71.5 75t-42 104.5t-14 116q0 47 13 100t37 102.5t59 91t79 66.5h-304v69h461v-66q-68 -20 -119 -58.5t-86 -90.5t-53 -114.5t-18 -131.5q0 -22 5.5 -48t15.5 -51t24 -47.5t30 -39.5t34.5 -27.5t37.5 -10.5
q16 0 26.5 2t19.5 7.5t18.5 15t21.5 24.5q20 -16 54 -38z" />
    <glyph glyph-name="bullet" unicode="&#x2022;" horiz-adv-x="365" 
d="M423 695q-26 -1 -52 -13.5t-52 -39.5q17 -16 38 -25t43 -9q12 0 26 3.5t25 10t19 15t8 18.5q0 40 -55 40zM-13 753h434q32 0 55.5 -4.5t39.5 -15.5t23.5 -30t7.5 -48q0 -24 -11 -45t-30 -37t-44 -25t-54 -9q-32 0 -62.5 14t-61.5 33q-24 -66 -24 -108q0 -77 48 -77
q18 0 30.5 3t24.5 14t24.5 32.5t31.5 56.5q62 -30 95 -77.5t33 -115.5q0 -81 -49 -122t-144 -41q-50 0 -94 22.5t-80.5 59.5t-66.5 85.5t-50.5 100t-31.5 103t-11 95.5l69 13q0 -41 10.5 -87.5t28.5 -92t43.5 -87t56 -73.5t65 -51t71.5 -19q115 0 115 98q0 60 -37 97
q-25 -40 -56 -61.5t-67 -21.5q-28 0 -51.5 10t-40.5 28.5t-25.5 43t-8.5 53.5q0 52 18 106.5t54 110.5h-278v69z" />
    <glyph glyph-name="ellipsis" unicode="&#x2026;" horiz-adv-x="1" 
d="M-545 -156l196 144l21 67l44 -109l-135 -101l258 -181l-42 -62z" />
    <glyph glyph-name="perthousand" unicode="&#x2030;" horiz-adv-x="328" 
d="M-41 753h317q0 35 -5 55.5t-23.5 31t-54.5 13t-98 2.5h-55q-20 0 -27 2q-29 4 -48 19t-30.5 33t-16 36t-4.5 27q0 49 28 90l60 -32q-19 -40 -19 -56q0 -48 67 -48q9 0 19 0.5t20 1.5t19 1.5t13 0.5q63 -1 106 -11t68.5 -30.5t37 -54t12.5 -81.5h96v-69h-84
q-56 -34 -101 -72.5t-76 -83.5t-47.5 -95.5t-16.5 -106.5q0 -40 10 -85t29 -83.5t46 -64t62 -25.5q13 0 23.5 2t20 7.5t19.5 15t22 24.5q19 -16 54 -38q-21 -42 -52.5 -60.5t-75.5 -18.5q-34 0 -65 13t-56.5 36t-45 54t-33 66t-21 72.5t-7.5 74.5q0 53 12 105t35.5 100
t57.5 89.5t79 73.5h-271v69z" />
    <glyph glyph-name="guilsinglleft" unicode="&#x2039;" horiz-adv-x="105" 
d="M-100 684v69h228v-69h-228zM98 297q0 -55 -33 -87.5t-92 -42.5l-39 55l8 -2q16 0 31.5 6.5t27.5 18t19.5 26t7.5 30.5q0 19 -10.5 37.5t-26.5 34t-33 26.5t-35 18.5t-53 13.5v-456h-70v93q-22 47 -46.5 81t-56 56t-70 33t-88.5 11h-5l-44 64q31 28 54.5 48.5t44.5 37
t41 28.5t44 24t53.5 23.5t72.5 25.5q61 3 115 -12t94.5 -42.5t64.5 -65t24 -83.5zM-200 431q-54 -14 -106 -43.5t-106 -78.5q41 -6 69 -13t50 -19.5t43.5 -32t49.5 -51.5v238z" />
    <glyph glyph-name="guilsinglright" unicode="&#x203a;" horiz-adv-x="268" 
d="M189 497q-29 0 -45 -19t-16 -43q0 -18 30 -49l-45 -38q-53 38 -53 93q0 27 9.5 50t27.5 39.5t42 26t51 9.5q72 0 153 -103v221h-404v69h473v-514h-69v98q-38 76 -75.5 118t-78.5 42z" />
    <glyph glyph-name="trademark" unicode="&#x2122;" horiz-adv-x="615" 
d="M426 319q-4 25 -7 75t15 143q-50 -10 -100.5 -33t-90 -53t-69.5 -72l-69 60v245h-108v69h622v-69h-445v-203q132 104 291 132l46 -53q-21 -56 -25 -101.5t0 -74.5q2 -30 9 -63q0 -1 -10.5 -1.5t-23.5 -0.5h-35z" />
    <glyph glyph-name="minus" unicode="&#x2212;" horiz-adv-x="1" 
d="M-149 24v55q0 18 -2 21q-2 9 -5.5 19t-9 18.5t-13.5 14t-18 5.5t-16.5 -4t-10.5 -10.5t-5.5 -14t-1.5 -15.5q0 -9 2 -18.5t6 -15.5l-56 -21q-7 26 -19 49.5t-27.5 41t-34 28t-38.5 10.5q-18 0 -32.5 -6t-25.5 -16.5t-17.5 -25t-6.5 -30.5q0 -15 3.5 -26t12 -18.5
t24.5 -12t41 -7.5l21 -62l-24 -4q-5 0 -9 -1q-30 0 -55.5 10t-44 27t-29 42t-10.5 55q0 26 13 52t34 46.5t46 33t51 12.5q33 0 65.5 -19t65.5 -55q11 21 28 32.5t39 11.5q27 0 59 -32v283h69v-453h-69z" />
    <glyph glyph-name="NULL" 
 />
    <glyph glyph-name="glyph218" horiz-adv-x="269" 
 />
    <glyph glyph-name="glyph219" horiz-adv-x="269" 
 />
    <glyph glyph-name="glyph217" horiz-adv-x="564" 
d="M412 87l-157 155l-156 -159l-46 47l157 157l-158 155l47 46l155 -156l154 157l46 -45l-154 -156l157 -155z" />
    <glyph glyph-name="glyph218" horiz-adv-x="333" 
d="M319 254h-306v63h306v-63zM167 348q-23 0 -39.5 20t-16.5 43q0 21 16 36t37 15q23 0 38.5 -16.5t15.5 -39.5q0 -22 -15 -40t-36 -18zM168 104q-23 0 -39.5 20.5t-16.5 44.5q0 21 16 35.5t37 14.5q23 0 38 -16.5t15 -39.5q0 -22 -14.5 -40.5t-35.5 -18.5z" />
    <glyph glyph-name="glyph220" horiz-adv-x="594" 
d="M496 0h-70v120q-6 21 -23.5 46.5t-43.5 53t-57 53.5t-63 47t-63 33.5t-56 12.5q-5 0 -10 -0.5t-8 -2.5l-45 74q170 130 369 189v58h-435v69h607v-69h-102v-684zM426 340l-183 137q-26 -16 -48 -29t-31 -24q17 -2 41.5 -11.5t51.5 -24.5t53.5 -34t50 -39.5t41 -40
t24.5 -35.5v101zM426 558q-19 -4 -50 -17.5t-65 -30.5l115 -86v134z" />
    <glyph glyph-name="glyph221" horiz-adv-x="594" 
d="M426 558q-14 -4 -36.5 -12.5t-48 -20t-53 -25.5t-52 -27.5t-44 -26t-28.5 -22.5q17 -2 41.5 -11.5t51.5 -24.5t53.5 -34t50 -39.5t41 -40t24.5 -35.5v319zM496 0h-70v120q-6 21 -23.5 46.5t-43.5 53t-57 53.5t-63 47t-63 33.5t-56 12.5q-5 0 -10 -0.5t-8 -2.5l-45 74
q170 130 369 189v58h-435v69h607v-69h-102v-684zM308 51q-17 30 -43.5 58.5t-58 52t-66.5 41t-70 24.5l41 62q35 -9 72 -26.5t69.5 -42t58.5 -54.5t43 -63z" />
    <glyph glyph-name="glyph222" horiz-adv-x="1151" 
d="M-31 684v69h493l40 -69q19 -34 28 -70t9 -72q0 -28 -10.5 -54.5t-28.5 -47t-42.5 -32t-54.5 -11.5q-28 0 -61 10.5t-72 40.5q-73 61 -104 59q-38 1 -43 -24q-4 -37 44 -31l-6 -68q-7 -3 -23 -2t-31 8.5t-27 21.5t-19 31.5t-7 35.5q0 19 8 34.5t21 27t30 19t35 9.5v11
q0 9 -9.5 37.5t-33.5 66.5h-136zM222 567q-1 0 8 -7.5t23.5 -18.5t33 -24.5t37.5 -24.5t36.5 -18.5t31.5 -7.5q78 0 78 89q0 36 -12 69t-36 60h-244q25 -36 44 -117zM864 616q-26 20 -47.5 31.5t-38.5 16.5t-30 6t-23 1q-15 0 -35.5 -4t-41.5 -13.5t-41.5 -24.5t-34.5 -35
q32 0 54 -6t38.5 -20.5t28 -39.5t21.5 -63zM1054 846v-93h115v-69h-115v-684h-70v443q-28 70 -78 121l-253 -260l-48 45q50 52 50 97q0 15 -4.5 30.5t-14 27.5t-21.5 18.5t-28 6.5q-1 0 -17 -3t-47 -9l-48 48q7 34 31.5 65t57.5 55.5t71.5 39.5t74.5 15q180 0 274 -176v282
h70zM831 14q-9 0 -24.5 -4t-37.5 -8t-62 -5q-55 0 -96.5 14t-70 39.5t-43.5 60.5t-15 76q0 27 6.5 56t19.5 59l62 -16q-19 -59 -19 -84q0 -37 10 -62.5t32 -42t58.5 -24t86.5 -5.5q13 1 27 3.5t27 5.5t25 4.5t24 1.5q39 0 75 -16t68 -42v307h70v-469h-70v72q-13 16 -32 30
t-39.5 25t-42 17.5t-39.5 6.5z" />
    <glyph glyph-name="ch264" horiz-adv-x="269" 
 />
    <glyph glyph-name="glyph219" horiz-adv-x="269" 
 />
    <glyph glyph-name="glyph225" horiz-adv-x="269" 
 />
    <glyph glyph-name="ch267" horiz-adv-x="269" 
 />
    <glyph glyph-name="ch268" horiz-adv-x="269" 
 />
  </font>
</defs>
</svg>
